<svg width="200" height="200" viewBox="0 0 200 200" fill="none" xmlns="http://www.w3.org/2000/svg">
<g clip-path="url(#clip0)">
<path d="M99.8695 184.799C53.5109 184.799 15.7954 146.758 15.7954 99.9999C15.7954 53.2417 53.5109 15.2011 99.8695 15.2011C111.252 15.2011 122.301 17.4675 132.709 21.9374C142.131 25.9839 150.67 31.6828 158.09 38.8749C160.277 40.9953 160.346 44.5023 158.244 46.7081C156.143 48.9148 152.665 48.9839 150.477 46.864C144.022 40.607 136.596 35.6499 128.404 32.132C119.365 28.2499 109.764 26.2808 99.8691 26.2808C59.5681 26.2808 26.7808 59.3507 26.7808 99.9992C26.7808 140.648 59.5685 173.718 99.8695 173.718C140.17 173.718 172.959 140.648 172.959 99.9999C172.959 96.9402 175.418 94.4597 178.451 94.4597C181.485 94.4597 183.944 96.9402 183.944 99.9999C183.944 146.758 146.228 184.799 99.8695 184.799Z" fill="#0492EB"/>
<path d="M99.8693 160.422C66.8377 160.422 39.9639 133.316 39.9639 99.9999C39.9639 66.6835 66.8377 39.5781 99.8693 39.5781C114.699 39.5781 128.939 45.1062 139.967 55.1433C142.219 57.1933 142.397 60.6964 140.365 62.9683C138.333 65.2402 134.859 65.4195 132.607 63.3699C123.601 55.173 111.975 50.6589 99.8689 50.6589C72.8948 50.6589 50.9492 72.7937 50.9492 100C50.9492 127.207 72.8952 149.342 99.8693 149.342C126.843 149.342 148.79 127.207 148.79 100.001C148.79 96.941 151.249 94.4605 154.283 94.4605C157.316 94.4605 159.776 96.941 159.776 100.001C159.776 133.316 132.902 160.422 99.8693 160.422Z" fill="#0492EB"/>
<path d="M99.8696 129.014C115.757 129.014 128.636 116.024 128.636 100C128.636 83.9762 115.757 70.9862 99.8696 70.9862C83.9825 70.9862 71.1035 83.9762 71.1035 100C71.1035 116.024 83.9825 129.014 99.8696 129.014Z" fill="#91CFFA"/>
<path d="M99.8693 134.554C80.979 134.554 65.6104 119.054 65.6104 100C65.6104 80.9465 80.9786 65.4457 99.8693 65.4457C118.76 65.4457 134.128 80.9465 134.128 100C134.128 119.054 118.76 134.554 99.8693 134.554ZM99.8693 76.5261C87.0362 76.5261 76.5961 87.0562 76.5961 100C76.5961 112.944 87.0362 123.474 99.8693 123.474C112.702 123.474 123.142 112.944 123.142 100C123.142 87.0562 112.702 76.5261 99.8693 76.5261Z" fill="#0492EB"/>
<path d="M99.8698 50.3816C96.8362 50.3816 94.377 47.9012 94.377 44.8414V5.54023C94.377 2.48047 96.8362 0 99.8698 0C102.903 0 105.363 2.48047 105.363 5.54023V44.8414C105.363 47.9012 102.903 50.3816 99.8698 50.3816Z" fill="#0492EB"/>
<path d="M99.8698 200C96.8362 200 94.377 197.52 94.377 194.46V155.159C94.377 152.099 96.8362 149.618 99.8698 149.618C102.903 149.618 105.363 152.099 105.363 155.159V194.46C105.363 197.52 102.903 200 99.8698 200Z" fill="#0492EB"/>
<path d="M193.522 105.54H154.282C151.249 105.54 148.789 103.06 148.789 100C148.789 96.9403 151.249 94.4598 154.282 94.4598H193.522C196.555 94.4598 199.015 96.9403 199.015 100C199.015 103.06 196.555 105.54 193.522 105.54Z" fill="#0492EB"/>
<path d="M45.1823 105.54H6.217C3.18339 105.54 0.724121 103.06 0.724121 100C0.724121 96.9403 3.18339 94.4598 6.217 94.4598H45.1823C48.2159 94.4598 50.6751 96.9403 50.6751 100C50.6751 103.06 48.2159 105.54 45.1823 105.54Z" fill="#0492EB"/>
</g>
<defs>
<clipPath id="clip0">
<rect width="198.291" height="200" fill="white" transform="translate(0.724121)"/>
</clipPath>
</defs>
</svg>
