<svg width="264" height="320" viewBox="0 0 264 320" fill="none" xmlns="http://www.w3.org/2000/svg">
<g filter="url(#filter0_dd)">
<path d="M243.84 7.22156H19.5509C13.7238 7.22156 9 12.0018 9 17.8986V298.015C9 303.912 13.7238 308.692 19.5509 308.692H243.84C249.667 308.692 254.391 303.912 254.391 298.015V17.8986C254.391 12.0018 249.667 7.22156 243.84 7.22156Z" fill="black"/>
</g>
<path d="M243.84 7.22156H19.5509C13.7238 7.22156 9 12.0018 9 17.8986V298.015C9 303.912 13.7238 308.692 19.5509 308.692H243.84C249.667 308.692 254.391 303.912 254.391 298.015V17.8986C254.391 12.0018 249.667 7.22156 243.84 7.22156Z" fill="white"/>
<g opacity="0.75">
<path opacity="0.75" d="M109.483 36.8635H114.741C117.985 36.8635 120.364 37.9407 120.364 41.4093V41.5081C120.474 43.2215 119.368 44.7758 117.72 45.2238C120.265 45.8365 121.219 47.1409 121.219 49.4237V49.5225C121.219 52.8429 118.968 54.4636 115.469 54.4636H109.483V36.8635ZM114.741 44.532C117.307 44.532 118.28 43.5932 118.28 41.4389V41.3401C118.28 39.3637 117.13 38.5336 114.692 38.5336H111.557V44.532H114.741ZM115.42 52.7639C117.965 52.7639 119.135 51.6373 119.135 49.4929V49.394C119.135 47.2299 117.936 46.2021 115.125 46.2021H111.557V52.7639H115.42Z" fill="#000F33"/>
<path opacity="0.75" d="M122.654 48.0897V47.892C122.563 45.5746 123.74 43.3929 125.723 42.207C127.705 41.021 130.174 41.021 132.156 42.207C134.139 43.3929 135.316 45.5746 135.225 47.892V48.0897C135.316 50.4071 134.139 52.5887 132.156 53.7747C130.174 54.9607 127.705 54.9607 125.723 53.7747C123.74 52.5887 122.563 50.4071 122.654 48.0897ZM133.122 48.0897V47.9217C133.122 44.957 131.48 42.9806 128.944 42.9806C126.409 42.9806 124.757 44.8977 124.757 47.8426V48.0897C124.757 51.0543 126.35 52.9319 128.944 52.9319C131.539 52.9319 133.122 51.0543 133.122 48.0897Z" fill="#000F33"/>
<path opacity="0.75" fill-rule="evenodd" clip-rule="evenodd" d="M137.446 41.5873H139.481V43.8898C140.255 42.2921 141.892 41.3013 143.658 41.36V43.2771C141.083 43.4056 139.452 44.2159 139.452 47.3782V54.434H137.417L137.446 41.5873Z" fill="#000F33"/>
<path opacity="0.75" d="M145.398 37.5554C145.394 37.006 145.721 36.5087 146.225 36.2966C146.729 36.0846 147.311 36.1998 147.697 36.5882C148.084 36.9767 148.198 37.5614 147.987 38.0682C147.776 38.575 147.282 38.9033 146.735 38.8994C146.001 38.8887 145.409 38.2932 145.398 37.5554ZM145.762 41.5873H147.787V54.434H145.762V41.5873Z" fill="#000F33"/>
<path opacity="0.75" fill-rule="evenodd" clip-rule="evenodd" d="M151.021 41.5873H153.045V43.623C153.867 42.1363 155.465 41.2561 157.154 41.36C159.798 41.36 161.656 42.8126 161.656 46.5481V54.4538H159.621V46.3998C159.621 44.1368 158.638 43.1289 156.613 43.1289C155.663 43.0723 154.733 43.4223 154.053 44.0925C153.374 44.7627 153.008 45.6905 153.045 46.6469V54.434H151.021V41.5873Z" fill="#000F33"/>
<path opacity="0.75" d="M164.025 55.1752H166.099C166.394 56.6476 167.622 57.4085 169.795 57.4085C172.311 57.4085 173.903 56.2029 173.903 53.4557V51.588C172.951 53.0679 171.331 53.9781 169.578 54.019C167.986 54.0376 166.458 53.3928 165.355 52.2377C164.253 51.0826 163.675 49.5203 163.76 47.9217V47.7537C163.677 46.1022 164.266 44.4878 165.391 43.2818C166.516 42.0758 168.081 41.382 169.726 41.36C171.432 41.2823 173.04 42.1612 173.903 43.6427V41.5873H175.928V53.5743C175.928 57.3097 173.392 59.128 169.814 59.128C166.03 59.128 164.369 57.3394 164.025 55.1752ZM173.972 47.7735V47.6055C173.972 44.7298 172.409 43.0597 169.913 43.0597C167.416 43.0597 165.863 44.9472 165.863 47.6549V47.8525C165.863 50.6492 167.642 52.3192 169.795 52.3192C172.163 52.3192 173.972 50.6492 173.972 47.7735Z" fill="#000F33"/>
<path opacity="0.75" d="M109.483 60.7585H114.103C120.118 60.7585 122.949 64.494 122.949 69.3856V69.6129C122.949 74.4749 120.167 78.3289 114.053 78.3289H109.483V60.7585ZM114.004 76.5699C118.506 76.5699 120.747 73.8622 120.747 69.5635V69.3659C120.747 65.3142 118.781 62.4484 113.975 62.4484H111.606V76.5897L114.004 76.5699Z" fill="#000F33"/>
<path opacity="0.75" d="M124.472 72.0143V71.8068C124.472 69.5507 125.669 67.4661 127.613 66.3381C129.556 65.2101 131.95 65.2101 133.893 66.3381C135.837 67.4661 137.034 69.5507 137.034 71.8068V72.0044C137.034 75.4919 134.222 78.3191 130.753 78.3191C127.284 78.3191 124.472 75.4919 124.472 72.0044V72.0143ZM134.93 72.0143V71.8068C134.93 68.8421 133.289 66.8657 130.753 66.8657C128.217 66.8657 126.566 68.8421 126.566 71.8068V72.0044C126.566 74.9691 128.158 76.8467 130.753 76.8467C133.348 76.8467 134.93 74.9196 134.93 72.0143Z" fill="#000F33"/>
<path opacity="0.75" fill-rule="evenodd" clip-rule="evenodd" d="M138.302 72.0439V71.8067C138.21 70.092 138.823 68.4147 139.998 67.1682C141.173 65.9217 142.806 65.2156 144.514 65.2153C147.177 65.2153 149.674 66.4506 150.067 69.7117H148.101C147.777 67.676 146.312 66.9151 144.553 66.9151C142.233 66.9151 140.444 68.7828 140.444 71.8561V72.0538C140.444 75.1963 142.155 76.8663 144.632 76.8663C146.498 76.9869 148.121 75.5952 148.298 73.7238H150.175C149.901 76.5746 147.448 78.706 144.602 78.5661C142.879 78.6316 141.209 77.9589 140.008 76.7152C138.806 75.4715 138.186 73.7737 138.302 72.0439Z" fill="#000F33"/>
</g>
<path opacity="0.4" d="M90.0171 33.3103H40.6525C38.464 33.3103 36.6899 35.1056 36.6899 37.3202V79.5454C36.6899 81.7601 38.464 83.5554 40.6525 83.5554H90.0171C92.2056 83.5554 93.9797 81.7601 93.9797 79.5454V37.3202C93.9797 35.1056 92.2056 33.3103 90.0171 33.3103Z" fill="#A3B3C1"/>
<path opacity="0.4" fill-rule="evenodd" clip-rule="evenodd" d="M40.7149 214.965H72.5594C74.6995 215.004 76.5224 213.482 76.7769 211.443C76.8765 210.37 76.5047 209.306 75.7511 208.507C74.9975 207.709 73.9305 207.248 72.8075 207.236H40.9233C38.7849 207.202 36.9646 208.722 36.7058 210.758C36.6056 211.838 36.9827 212.908 37.745 213.708C38.5074 214.508 39.5849 214.964 40.7149 214.965Z" fill="#A3B3C1"/>
<path opacity="0.4" fill-rule="evenodd" clip-rule="evenodd" d="M92.1976 214.965H107.971C110.069 215.004 111.857 213.482 112.106 211.443C112.204 210.37 111.839 209.306 111.1 208.507C110.361 207.709 109.315 207.248 108.214 207.236H92.402C90.3052 207.202 88.5203 208.722 88.2666 210.758C88.1683 211.838 88.538 212.908 89.2855 213.708C90.0331 214.508 91.0897 214.964 92.1976 214.965Z" fill="#A3B3C1"/>
<path opacity="0.4" fill-rule="evenodd" clip-rule="evenodd" d="M129.493 214.965H222.49C224.617 215 226.428 213.48 226.685 211.443C226.784 210.37 226.415 209.306 225.665 208.507C224.915 207.709 223.854 207.248 222.737 207.236H129.7C127.573 207.202 125.762 208.722 125.505 210.758C125.405 211.838 125.78 212.908 126.539 213.708C127.297 214.508 128.369 214.964 129.493 214.965Z" fill="#A3B3C1"/>
<path opacity="0.4" fill-rule="evenodd" clip-rule="evenodd" d="M222.791 176.316H144.006C141.886 176.277 140.079 177.8 139.827 179.838C139.729 180.911 140.097 181.975 140.844 182.774C141.59 183.573 142.648 184.033 143.761 184.045H222.506C224.625 184.08 226.429 182.56 226.685 180.523C226.784 179.457 226.42 178.399 225.682 177.601C224.944 176.804 223.897 176.338 222.791 176.316Z" fill="#A3B3C1"/>
<path opacity="0.4" fill-rule="evenodd" clip-rule="evenodd" d="M124.297 176.316H40.9041C38.7754 176.282 36.9634 177.802 36.7058 179.838C36.6066 180.911 36.9767 181.975 37.7269 182.774C38.4771 183.573 39.5392 184.033 40.6571 184.045H124.139C126.268 184.08 128.08 182.56 128.338 180.523C128.438 179.435 128.056 178.357 127.287 177.556C126.517 176.754 125.431 176.304 124.297 176.316Z" fill="#A3B3C1"/>
<path opacity="0.4" fill-rule="evenodd" clip-rule="evenodd" d="M114.17 245.885H158.523C160.65 245.928 162.463 244.402 162.712 242.359C162.811 241.286 162.441 240.221 161.692 239.423C160.944 238.625 159.884 238.166 158.769 238.157H114.417C112.294 238.117 110.485 239.636 110.228 241.673C110.129 242.747 110.498 243.813 111.247 244.612C111.995 245.412 113.055 245.873 114.17 245.885Z" fill="#A3B3C1"/>
<path opacity="0.4" fill-rule="evenodd" clip-rule="evenodd" d="M178.145 245.885H222.536C224.642 245.924 226.435 244.4 226.685 242.359C226.784 241.286 226.418 240.221 225.676 239.423C224.934 238.625 223.884 238.166 222.78 238.157H178.35C176.248 238.117 174.456 239.636 174.201 241.673C174.103 242.754 174.474 243.825 175.224 244.626C175.974 245.427 177.034 245.884 178.145 245.885Z" fill="#A3B3C1"/>
<path opacity="0.4" fill-rule="evenodd" clip-rule="evenodd" d="M40.707 245.885H92.6164C94.7537 245.924 96.5742 244.4 96.8283 242.359C96.9279 241.286 96.5563 240.221 95.8034 239.423C95.0505 238.625 93.9848 238.165 92.8642 238.156H40.9151C38.7711 238.118 36.948 239.653 36.7033 241.701C36.612 242.778 36.9925 243.841 37.7528 244.636C38.5132 245.43 39.5842 245.883 40.707 245.885Z" fill="#A3B3C1"/>
<path opacity="0.4" fill-rule="evenodd" clip-rule="evenodd" d="M120.561 269.076H40.9094C38.7797 269.037 36.9641 270.556 36.7058 272.593C36.6065 273.667 36.9771 274.732 37.7282 275.532C38.4793 276.332 39.5428 276.793 40.6622 276.805H120.314C122.445 276.849 124.264 275.328 124.517 273.288C124.62 272.213 124.25 271.146 123.499 270.346C122.747 269.546 121.681 269.085 120.561 269.076Z" fill="#A3B3C1"/>
<path opacity="0.4" fill-rule="evenodd" clip-rule="evenodd" d="M92.226 154.091H175.733C177.845 154.135 179.647 152.614 179.899 150.574C179.997 149.5 179.63 148.435 178.886 147.635C178.141 146.835 177.087 146.374 175.978 146.362H92.4318C90.3195 146.328 88.5214 147.85 88.2658 149.888C88.1697 150.968 88.5435 152.037 89.2962 152.835C90.0489 153.634 91.1117 154.09 92.226 154.091Z" fill="#A3B3C1"/>
<path opacity="0.4" fill-rule="evenodd" clip-rule="evenodd" d="M40.715 154.091H72.5594C74.6978 154.135 76.5221 152.614 76.7769 150.575C76.8765 149.5 76.5047 148.435 75.7511 147.635C74.9975 146.836 73.9305 146.374 72.8075 146.363H40.9233C38.7833 146.324 36.9603 147.848 36.7059 149.888C36.6055 150.968 36.9828 152.039 37.7455 152.838C38.5082 153.638 39.5859 154.092 40.715 154.091Z" fill="#A3B3C1"/>
<path opacity="0.4" fill-rule="evenodd" clip-rule="evenodd" d="M197.328 154.091H222.446C224.594 154.131 226.425 152.612 226.685 150.575C226.785 149.5 226.412 148.435 225.654 147.635C224.897 146.836 223.824 146.374 222.695 146.363H197.538C195.385 146.319 193.55 147.845 193.298 149.889C193.197 150.969 193.577 152.039 194.343 152.839C195.11 153.638 196.193 154.093 197.328 154.091Z" fill="#A3B3C1"/>
<path opacity="0.78" fill-rule="evenodd" clip-rule="evenodd" d="M80.6121 40.048C80.6113 37.7875 80.4045 35.5319 79.9943 33.3103H67.4423C69.9189 42.0278 67.4077 51.4234 60.9337 57.6623C54.4598 63.9012 45.106 65.9398 36.6899 62.9461V75.9224C47.3775 78.3306 58.5613 75.6749 67.0988 68.7017C75.6364 61.7284 80.6063 51.1902 80.6121 40.048Z" fill="#A3B3C1"/>
<path opacity="0.78" d="M114.776 111.577H42.629C39.3489 111.577 36.6899 114.267 36.6899 117.587V118.128C36.6899 121.447 39.3489 124.138 42.629 124.138H114.776C118.056 124.138 120.715 121.447 120.715 118.128V117.587C120.715 114.267 118.056 111.577 114.776 111.577Z" fill="#A3B3C1"/>
<defs>
<filter id="filter0_dd" x="0" y="0.221558" width="263.391" height="319.47" filterUnits="userSpaceOnUse" color-interpolation-filters="sRGB">
<feFlood flood-opacity="0" result="BackgroundImageFix"/>
<feColorMatrix in="SourceAlpha" type="matrix" values="0 0 0 0 0 0 0 0 0 0 0 0 0 0 0 0 0 0 127 0"/>
<feOffset dy="2"/>
<feGaussianBlur stdDeviation="4.5"/>
<feColorMatrix type="matrix" values="0 0 0 0 0.523985 0 0 0 0 0.551093 0 0 0 0 0.605309 0 0 0 0.0960711 0"/>
<feBlend mode="normal" in2="BackgroundImageFix" result="effect1_dropShadow"/>
<feColorMatrix in="SourceAlpha" type="matrix" values="0 0 0 0 0 0 0 0 0 0 0 0 0 0 0 0 0 0 127 0"/>
<feOffset dy="1"/>
<feGaussianBlur stdDeviation="1.5"/>
<feColorMatrix type="matrix" values="0 0 0 0 0.883118 0 0 0 0 0.894921 0 0 0 0 0.918527 0 0 0 0.436198 0"/>
<feBlend mode="normal" in2="effect1_dropShadow" result="effect2_dropShadow"/>
<feBlend mode="normal" in="SourceGraphic" in2="effect2_dropShadow" result="shape"/>
</filter>
</defs>
</svg>
