<svg width="139" height="320" viewBox="0 0 139 320" fill="none" xmlns="http://www.w3.org/2000/svg">
<g filter="url(#filter0_dd)">
<path d="M118.184 7.22156H20.2044C14.193 7.22156 9.31982 12.153 9.31982 18.2363V297.648C9.31982 303.731 14.193 308.663 20.2044 308.663H118.184C124.195 308.663 129.069 303.731 129.069 297.648V18.2363C129.069 12.153 124.195 7.22156 118.184 7.22156Z" fill="black"/>
</g>
<path d="M118.184 7.22156H20.2044C14.193 7.22156 9.31982 12.153 9.31982 18.2363V297.648C9.31982 303.731 14.193 308.663 20.2044 308.663H118.184C124.195 308.663 129.069 303.731 129.069 297.648V18.2363C129.069 12.153 124.195 7.22156 118.184 7.22156Z" fill="white"/>
<g opacity="0.4">
<path opacity="0.8" fill-rule="evenodd" clip-rule="evenodd" d="M31.8786 41.6522H98.8697C99.462 41.6552 100.026 41.3946 100.411 40.9397L104.569 36.1255C105.224 35.3455 105.224 34.2001 104.569 33.42L100.411 28.6059C100.026 28.1509 99.462 27.8904 98.8697 27.8934H31.8786C31.3164 27.8769 30.8437 28.3168 30.813 28.8851V40.6027C30.8129 40.8861 30.9261 41.1575 31.1268 41.3552C31.3275 41.5528 31.5986 41.66 31.8786 41.6522Z" fill="#36A6F5"/>
<path opacity="0.42" d="M90.1259 33.7762H38.596C38.0705 33.7762 37.6445 34.2073 37.6445 34.7391C37.6445 35.2708 38.0705 35.7019 38.596 35.7019H90.1259C90.6514 35.7019 91.0774 35.2708 91.0774 34.7391C91.0774 34.2073 90.6514 33.7762 90.1259 33.7762Z" fill="white"/>
<path opacity="0.8" fill-rule="evenodd" clip-rule="evenodd" d="M31.8784 179.991H98.8693C99.4615 179.994 100.025 179.733 100.411 179.278L104.568 174.464C105.223 173.684 105.223 172.539 104.568 171.759L100.411 166.944C100.025 166.489 99.4615 166.229 98.8693 166.232H31.8784C31.3056 166.232 30.8413 166.702 30.8413 167.281V178.999C30.8716 179.556 31.3272 179.992 31.8784 179.991Z" fill="#FFC03C"/>
<path opacity="0.42" d="M76.2634 172.115H38.596C38.0705 172.115 37.6445 172.546 37.6445 173.078C37.6445 173.609 38.0705 174.04 38.596 174.04H76.2634C76.7889 174.04 77.2148 173.609 77.2148 173.078C77.2148 172.546 76.7889 172.115 76.2634 172.115Z" fill="white"/>
<path opacity="0.4" fill-rule="evenodd" clip-rule="evenodd" d="M31.8786 100.355H98.8697C99.462 100.358 100.026 100.098 100.411 99.643L104.569 94.8289C105.224 94.0488 105.224 92.9034 104.569 92.1234L100.411 87.3093C100.026 86.8543 99.462 86.5938 98.8697 86.5968H31.8786C31.3164 86.5802 30.8437 87.0202 30.813 87.5885V99.306C30.8129 99.5894 30.9261 99.8608 31.1268 100.058C31.3275 100.256 31.5986 100.363 31.8786 100.355Z" fill="#FFA6BF"/>
<path opacity="0.42" d="M69.984 92.4797H38.596C38.0705 92.4797 37.6445 92.9108 37.6445 93.4426C37.6445 93.9743 38.0705 94.4054 38.596 94.4054H69.984C70.5095 94.4054 70.9354 93.9743 70.9354 93.4426C70.9354 92.9108 70.5095 92.4797 69.984 92.4797Z" fill="white"/>
<path opacity="0.35" d="M92.6281 52.1373H34.276C32.3791 52.1373 30.8413 53.6935 30.8413 55.6131C30.8413 57.5328 32.3791 59.0889 34.276 59.0889H92.6281C94.5251 59.0889 96.0629 57.5328 96.0629 55.6131C96.0629 53.6935 94.5251 52.1373 92.6281 52.1373Z" fill="#36A6F5"/>
<path opacity="0.35" d="M73.3042 192.748H34.276C32.3791 192.748 30.8413 194.304 30.8413 196.224C30.8413 198.144 32.3791 199.7 34.276 199.7H73.3042C75.2011 199.7 76.7389 198.144 76.7389 196.224C76.7389 194.304 75.2011 192.748 73.3042 192.748Z" fill="#FFC03C"/>
<path opacity="0.35" d="M97.4421 211.764H34.276C32.3791 211.764 30.8413 213.32 30.8413 215.24C30.8413 217.159 32.3791 218.715 34.276 218.715H97.4421C99.3391 218.715 100.877 217.159 100.877 215.24C100.877 213.32 99.3391 211.764 97.4421 211.764Z" fill="#FFC03C"/>
<path opacity="0.35" d="M85.2922 114.538H34.276C32.3791 114.538 30.8413 116.094 30.8413 118.014C30.8413 119.933 32.3791 121.49 34.276 121.49H85.2922C87.1892 121.49 88.7269 119.933 88.7269 118.014C88.7269 116.094 87.1892 114.538 85.2922 114.538Z" fill="#FF94AB"/>
</g>
<path d="M59.8034 131.522H34.2761C32.3791 131.522 30.8413 133.078 30.8413 134.998C30.8413 136.918 32.3791 138.474 34.2761 138.474H59.8034C61.7004 138.474 63.2382 136.918 63.2382 134.998C63.2382 133.078 61.7004 131.522 59.8034 131.522Z" fill="#FFA6BF"/>
<path fill-rule="evenodd" clip-rule="evenodd" d="M80.1073 132.755H77.5004C77.4132 132.754 77.3311 132.713 77.2773 132.644C77.2236 132.575 77.2041 132.484 77.2244 132.398L77.7002 130.309C77.7397 130.121 77.6824 129.925 77.5479 129.789C77.3336 129.577 76.9916 129.577 76.7773 129.789L73.8754 132.591C73.7673 132.701 73.7058 132.85 73.7041 133.005V137.752C73.7016 138.057 73.8198 138.351 74.0324 138.568C74.245 138.785 74.5344 138.907 74.8363 138.907H78.6421C79.0727 138.906 79.4645 138.655 79.6506 138.262L80.7638 135.99C81.0774 135.356 81.2403 134.657 81.2395 133.948C81.2524 133.636 81.1389 133.332 80.9252 133.107C80.7114 132.882 80.416 132.754 80.1073 132.755Z" fill="#A8BDCC"/>
<path d="M72.3719 132.755H71.0017C70.8441 132.755 70.7163 132.884 70.7163 133.043V138.608C70.7163 138.768 70.8441 138.897 71.0017 138.897H72.3719C72.5295 138.897 72.6573 138.768 72.6573 138.608V133.043C72.6573 132.884 72.5295 132.755 72.3719 132.755Z" fill="#A8BDCC"/>
<path fill-rule="evenodd" clip-rule="evenodd" d="M86.5389 136.943H89.1458C89.233 136.943 89.3151 136.984 89.3689 137.053C89.4226 137.123 89.4421 137.213 89.4218 137.299L88.946 139.388C88.9065 139.577 88.9638 139.772 89.0983 139.908C89.3094 140.119 89.6483 140.119 89.8594 139.908L92.7612 137.107C92.8756 137 92.941 136.85 92.942 136.693V131.946C92.942 131.311 92.4366 130.796 91.8098 130.79H88.0041C87.5599 130.776 87.1478 131.024 86.948 131.426L85.8349 133.698C85.5287 134.334 85.3693 135.032 85.3687 135.739C85.3525 136.06 85.4699 136.373 85.6924 136.601C85.9148 136.83 86.2219 136.954 86.5389 136.943Z" fill="#A8BDCC"/>
<path d="M95.6442 130.8H94.2742C94.1166 130.8 93.9888 130.929 93.9888 131.089V136.654C93.9888 136.814 94.1166 136.943 94.2742 136.943H95.6442C95.8018 136.943 95.9296 136.814 95.9296 136.654V131.089C95.9296 130.929 95.8018 130.8 95.6442 130.8Z" fill="#A8BDCC"/>
<path opacity="0.15" fill-rule="evenodd" clip-rule="evenodd" d="M47.5966 154.89L50.7269 152.464C50.9213 152.325 51.1671 152.283 51.396 152.348C51.6249 152.413 51.8125 152.58 51.9067 152.801L55.0274 159.107C55.1341 159.359 55.3356 159.558 55.5874 159.659C55.8392 159.76 56.1204 159.756 56.3689 159.646L57.8151 159.03C58.0642 158.922 58.2604 158.718 58.3604 158.463C58.4604 158.209 58.4559 157.924 58.3479 157.672L55.2272 151.376C55.1375 151.151 55.1517 150.898 55.2659 150.686C55.3801 150.473 55.5824 150.324 55.8171 150.278L59.7656 149.614C60.071 149.478 60.2934 149.202 60.3632 148.872C60.4329 148.542 60.3415 148.198 60.1176 147.948L48.1104 136.24C47.7789 135.909 47.2829 135.812 46.8538 135.996C46.4246 136.179 46.147 136.606 46.1504 137.078V153.946C46.1524 154.297 46.3295 154.624 46.6211 154.814C46.9128 155.005 47.2797 155.033 47.5966 154.89Z" fill="#062A63"/>
<path fill-rule="evenodd" clip-rule="evenodd" d="M49.632 152.829L52.7623 150.394C52.958 150.255 53.2049 150.214 53.434 150.282C53.6631 150.349 53.8498 150.517 53.9421 150.74L57.0723 157.037C57.1772 157.291 57.378 157.491 57.63 157.595C57.882 157.698 58.1642 157.695 58.4139 157.586L59.8506 156.96C60.1013 156.854 60.2997 156.651 60.4016 156.396C60.5034 156.141 60.5003 155.855 60.3929 155.602L57.2721 149.315C57.1751 149.09 57.1856 148.832 57.3008 148.616C57.4159 148.4 57.6229 148.25 57.862 148.208L61.801 147.553C62.1097 147.421 62.3353 147.145 62.4054 146.813C62.4755 146.481 62.3813 146.136 62.1531 145.887L50.1553 134.199C49.8194 133.876 49.326 133.786 48.9001 133.97C48.4741 134.155 48.1971 134.577 48.1953 135.046V151.915C48.2124 152.256 48.3929 152.568 48.6788 152.75C48.9648 152.932 49.3204 152.962 49.632 152.829Z" fill="#062A63"/>
<defs>
<filter id="filter0_dd" x="0.319824" y="0.221558" width="137.749" height="319.441" filterUnits="userSpaceOnUse" color-interpolation-filters="sRGB">
<feFlood flood-opacity="0" result="BackgroundImageFix"/>
<feColorMatrix in="SourceAlpha" type="matrix" values="0 0 0 0 0 0 0 0 0 0 0 0 0 0 0 0 0 0 127 0"/>
<feOffset dy="2"/>
<feGaussianBlur stdDeviation="4.5"/>
<feColorMatrix type="matrix" values="0 0 0 0 0.523985 0 0 0 0 0.551093 0 0 0 0 0.605309 0 0 0 0.0960711 0"/>
<feBlend mode="normal" in2="BackgroundImageFix" result="effect1_dropShadow"/>
<feColorMatrix in="SourceAlpha" type="matrix" values="0 0 0 0 0 0 0 0 0 0 0 0 0 0 0 0 0 0 127 0"/>
<feOffset dy="1"/>
<feGaussianBlur stdDeviation="1.5"/>
<feColorMatrix type="matrix" values="0 0 0 0 0.883118 0 0 0 0 0.894921 0 0 0 0 0.918527 0 0 0 0.436198 0"/>
<feBlend mode="normal" in2="effect1_dropShadow" result="effect2_dropShadow"/>
<feBlend mode="normal" in="SourceGraphic" in2="effect2_dropShadow" result="shape"/>
</filter>
</defs>
</svg>
