<svg width="201" height="200" viewBox="0 0 201 200" fill="none" xmlns="http://www.w3.org/2000/svg">
<g clip-path="url(#clip0)">
<path d="M172.103 192.145H147.078C142.106 192.145 138.061 188.1 138.061 183.128V67.0315H128.191C124.738 67.0315 121.642 65.1089 120.11 62.0136C118.578 58.9187 118.929 55.2905 121.024 52.5448L152.423 11.4015C154.142 9.14795 156.754 7.85498 159.59 7.85498C162.425 7.85498 165.038 9.14795 166.758 11.4022L198.156 52.5448C200.251 55.289 200.602 58.9171 199.071 62.0128C197.539 65.1085 194.443 67.0315 190.989 67.0315H175.38C172.211 67.0315 169.641 64.4624 169.641 61.2925C169.641 58.1226 172.211 55.5534 175.38 55.5534H186.013L159.59 20.9296L133.167 55.5538H143.8C146.969 55.5538 149.539 58.123 149.539 61.2929V180.667H169.641V87.4605C169.641 84.2909 172.211 81.7214 175.38 81.7214C178.549 81.7214 181.119 84.2905 181.119 87.4605V183.129C181.119 188.1 177.074 192.145 172.103 192.145Z" fill="#0492EB"/>
<path d="M74.396 84.5909V183.129C74.396 184.939 75.8636 186.406 77.6733 186.406H102.698C104.508 186.406 105.976 184.939 105.976 183.129V84.5909C105.976 82.7807 104.508 81.3135 102.698 81.3135H77.6733C75.8636 81.3131 74.396 82.7807 74.396 84.5909Z" fill="#91CFFA"/>
<path d="M102.699 192.145H77.6733C72.7022 192.145 68.6577 188.1 68.6577 183.129V84.591C68.6577 79.6195 72.7026 75.5746 77.6733 75.5746H102.698C107.67 75.5746 111.715 79.6195 111.715 84.591V183.129C111.715 188.1 107.671 192.145 102.699 192.145ZM80.1355 180.667H100.237V87.0523H80.1355V180.667Z" fill="#0492EB"/>
<path d="M34.0553 192.145H9.03106C4.05957 192.145 0.0146484 188.1 0.0146484 183.129V126.523C0.0146484 121.551 4.05957 117.506 9.03106 117.506H34.0553C37.2244 117.506 39.7943 120.075 39.7943 123.245C39.7943 126.415 37.2244 128.984 34.0553 128.984H11.4924V180.668H31.5939V150.876C31.5939 147.706 34.1639 145.137 37.333 145.137C40.5022 145.137 43.0721 147.706 43.0721 150.876V183.129C43.0717 188.1 39.0271 192.145 34.0553 192.145Z" fill="#0492EB"/>
</g>
<defs>
<clipPath id="clip0">
<rect width="200" height="200" fill="white" transform="translate(0.0146484)"/>
</clipPath>
</defs>
</svg>
