<svg width="521" height="525" viewBox="0 0 521 525" fill="none" xmlns="http://www.w3.org/2000/svg">
<g filter="url(#filter0_d)">
<path d="M425.795 101.74H230.575C180.497 105.078 180.727 160.222 180.727 160.222V423.824H376.177V160.222C376.177 160.222 377.098 104.877 425.795 101.74Z" fill="#0492EB"/>
<path d="M169.359 163.561H167.056V366.436H169.359V163.561Z" fill="#0492EB"/>
<path d="M392.495 70.8292H273.199V4.71997H392.495V70.8292ZM275.502 68.5267H390.193V7.02242H275.502V68.5267Z" fill="#0492EB"/>
<path d="M169.359 139.701H50.0627V56.5828H169.359V139.701ZM52.3652 137.399H167.056V58.8852H52.3652V137.399Z" fill="#0492EB"/>
<path d="M507.244 272.179H387.948V205.839H507.244V272.179ZM390.25 269.876H504.941V208.142H390.25V269.876Z" fill="#0492EB"/>
<path d="M417.995 98.1421C369.298 101.279 368.377 156.624 368.377 156.624V420.227H172.899V156.653C172.899 156.653 172.668 101.481 222.747 98.1709H417.995V98.1421Z" fill="#EBF7FF"/>
<path d="M332.833 167.014H198.571V178.872H332.833V167.014Z" fill="#0492EB"/>
<path d="M313.204 194.414H198.571V202.818H313.204V194.414Z" fill="#0492EB"/>
<path d="M256.19 216.546H198.571V229.008H256.19V216.546Z" fill="#0492EB"/>
<path d="M332.833 216.546H273.228V229.008H332.833V216.546Z" fill="#0492EB"/>
<path d="M290.381 240.549H198.571V249.442H290.381V240.549Z" fill="#0492EB"/>
<path d="M302.009 262.768H198.571V267.718H302.009V262.768Z" fill="#0492EB"/>
<path d="M322.961 284.986H198.571V289.937H322.961V284.986Z" fill="#0492EB"/>
<path d="M256.651 334.777H198.139V306.773H256.622V334.777H256.651ZM199.003 333.913H255.758V307.637H199.003V333.913Z" fill="#0492EB"/>
<path d="M322.961 307.205H270.638V313.623H322.961V307.205Z" fill="#0492EB"/>
<path d="M307.736 320.761H270.638V327.179H307.736V320.761Z" fill="#0492EB"/>
<path d="M310.442 351.614H198.571V356.564H310.442V351.614Z" fill="#0492EB"/>
<path d="M257.485 373.832H198.571V378.783H257.485V373.832Z" fill="#0492EB"/>
<path d="M147.888 94.8035H111.078V101.481H147.888V94.8035Z" fill="#91CFFA"/>
<path d="M152.378 109.367H111.078V116.044H152.378V109.367Z" fill="#91CFFA"/>
<path d="M485.399 228.403H451.927V235.08H485.399V228.403Z" fill="#91CFFA"/>
<path d="M489.486 242.967H451.927V249.644H489.486V242.967Z" fill="#91CFFA"/>
<path d="M370.622 34.4504H337.15V41.1276H370.622V34.4504Z" fill="#91CFFA"/>
<path d="M374.709 48.9849H337.15V55.662H374.709V48.9849Z" fill="#91CFFA"/>
<path d="M419.146 316.242H382.94V313.94H416.844V273.647H419.146V316.242Z" fill="#0492EB"/>
<path d="M245.628 94.1991H243.325V82.4278H321.81V74.1965H324.112V84.7303H245.628V94.1991Z" fill="#0492EB"/>
<path d="M157.904 232.634H116.719V143.817H119.021V230.332H157.904V232.634Z" fill="#0492EB"/>
<path d="M382.998 196.572H380.695V169.72C380.666 169.288 377.788 117.771 421.276 110.288L421.679 112.561C380.235 119.699 382.998 169.173 383.027 169.662L382.998 196.572Z" fill="#0492EB"/>
<path d="M513 248.147H510.698V202.645H461.857V200.342H513V248.147Z" fill="#0492EB"/>
<path d="M90.1255 146.494H43.7311V102.776H46.0335V144.191H90.1255V146.494Z" fill="#0492EB"/>
<path d="M270.12 34.4505H267.817V0H325.408V2.30245H270.12V34.4505Z" fill="#0492EB"/>
<path d="M384.091 431.595H341.841V429.292H381.789V365.284H384.091V431.595Z" fill="#0492EB"/>
<path d="M351.771 386.87H314.931V350.031H351.771V386.87ZM318.414 383.416H348.346V353.484H318.414V383.416Z" fill="#0492EB"/>
<path d="M333.955 376.163L321.004 363.96L324.947 359.787L334.214 368.508L354.447 351.873L358.102 356.305L333.955 376.163Z" fill="#0492EB"/>
<path opacity="0.24" d="M322.213 281.014C294.641 233.526 233.77 217.38 186.253 244.952C181.475 247.715 177.043 250.824 172.927 254.22V277.043C178.885 270.049 186.08 263.948 194.455 259.084C234.144 236.03 285.028 249.528 308.082 289.217C315.162 301.391 318.788 314.63 319.277 327.812C319.306 328.848 319.335 329.855 319.335 330.891C319.335 359.557 304.513 387.445 277.948 402.843C242.634 423.335 198.456 414.931 172.927 384.884V407.707C178.943 412.657 185.476 416.859 192.354 420.227H280.049C282.093 419.219 284.107 418.126 286.122 416.974C333.639 389.403 349.785 328.531 322.213 281.014Z" fill="#3F444F"/>
<path d="M17.5041 516.18L140.985 413.275L123.48 392.271L-4.09145e-05 495.177L17.5041 516.18Z" fill="#8E9DAA"/>
<path d="M138.881 410.748L145.469 405.257L132.185 389.316L125.596 394.807L138.881 410.748Z" fill="#B1BDC8"/>
<path d="M124.432 380.912C152.004 428.4 212.875 444.546 260.392 416.974C307.909 389.403 324.026 328.531 296.454 281.014C268.882 233.526 208.011 217.38 160.494 244.952C112.977 272.524 96.8601 333.424 124.432 380.912ZM138.563 372.71C126.332 351.642 124.374 327.409 131.195 305.881C137.211 286.828 150.076 269.905 168.697 259.084C208.414 236.03 259.298 249.528 282.352 289.217C289.432 301.391 293.058 314.63 293.547 327.812C294.641 357.542 279.733 386.87 252.218 402.843C212.501 425.925 161.617 412.427 138.563 372.71Z" fill="#494F5C"/>
<path opacity="0.3" d="M131.195 305.881C131.195 305.881 217.768 240.146 293.547 327.812C293.058 314.659 289.432 301.42 282.352 289.217C259.298 249.528 208.414 236.03 168.697 259.084C150.076 269.905 137.211 286.857 131.195 305.881Z" fill="#C2C2C2"/>
<path d="M211.522 304.931C208.759 306.025 210.342 311.723 210.055 322.113C209.767 332.503 202.14 334.374 202.14 334.374C202.14 334.374 205.507 330.402 206.198 326.747C206.889 323.121 199.319 313.911 202.629 306.687C205.191 301.103 211.868 304.701 211.868 304.701L211.522 304.931Z" fill="#754836"/>
<path d="M255.528 360.507C255.528 360.507 254.175 360.046 253.369 360.19C252.564 360.334 254.895 356.218 254.895 356.218L255.528 360.507Z" fill="#EEA886"/>
<path d="M254.895 356.19C254.895 356.19 257.025 354.319 257.37 354.031C257.715 353.743 258.924 353.628 260.306 353.628C261.716 353.599 263.615 354.233 263.759 354.405C263.903 354.607 264.134 354.751 264.105 355.355C264.076 355.959 263.759 356.506 263.759 356.506C263.759 356.506 264.105 357.283 263.644 357.888C263.644 357.888 263.932 358.636 263.299 359.24C263.299 359.24 263.558 359.96 263.069 360.363C263.069 360.363 261.86 360.478 261.428 360.651C260.996 360.823 258.464 360.91 255.989 360.593C255.96 360.622 253.226 360.392 254.895 356.19Z" fill="#EEA886"/>
<path d="M259.01 356.765C259.01 356.765 258.464 358.089 258.118 358.377C257.773 358.665 260.277 360.334 260.277 360.334C260.277 360.334 260.622 357.485 259.01 356.765Z" fill="#CF8C6C"/>
<path d="M263.385 354.405C263.385 354.405 259.845 354.52 259.788 355.096C259.73 355.672 260.075 355.902 260.075 355.902L258.636 356.621C258.636 356.621 257.946 357.629 259.241 358.089C259.241 358.089 258.492 358.981 259.816 359.24C259.816 359.24 259.586 360.046 260.162 360.277C260.737 360.507 263.04 360.334 263.04 360.334C263.04 360.334 263.5 360.075 263.27 359.212C263.27 359.212 263.932 358.665 263.615 357.859C263.615 357.859 264.076 357.341 263.731 356.477C263.731 356.477 264.68 355.24 263.731 354.376C263.759 354.405 263.529 354.405 263.385 354.405Z" fill="#DB9C7C"/>
<path d="M259.759 355.067C259.759 355.067 260.334 351.757 260.162 350.318C260.133 350.002 260.133 349.858 259.816 349.772C259.5 349.685 258.982 350.808 258.608 351.815C258.262 352.822 257.312 354.031 257.312 354.031C257.312 354.031 257.284 355.096 259.759 355.067Z" fill="#EEA886"/>
<path d="M204.816 462.16C204.816 462.16 208.644 467.772 209.997 468.952C209.997 468.952 212.674 470.334 212.76 471.456C212.904 473.557 213.105 475.514 209.594 475.601C206.083 475.687 203.809 474.881 203.147 472.751C202.514 470.622 200.96 468.78 200.96 468.78V473.241H200.154C200.154 473.241 199.953 468.924 199.895 468.147C199.837 467.341 199.319 464.319 200.989 462.966C202.687 461.585 204.816 462.16 204.816 462.16Z" fill="#D17591"/>
<path d="M210.515 469.24C210.515 469.24 208.615 469.787 206.342 469.211C204.068 468.636 201.91 463.225 201.248 462.764L200.672 460.577H205.075C205.075 460.577 205.104 462.189 205.824 463.57C206.543 464.981 210.515 469.24 210.515 469.24Z" fill="#EEA886"/>
<path d="M229.712 460.059C229.712 460.059 230.287 461.412 231.381 462.822C232.187 463.858 234.662 468.118 235.727 468.405C236.821 468.693 240.188 469.298 240.476 471.168C240.763 473.039 240.907 474.392 237.598 474.536C234.288 474.68 232.1 474.881 230.518 472.55C228.935 470.219 226.402 468.549 226.402 468.549V474.622H225.107C225.107 474.622 224.502 468.29 224.157 467.859C223.812 467.427 222.919 462.563 225.999 460.03C229.079 457.526 229.712 460.059 229.712 460.059Z" fill="#D17591"/>
<path d="M235.727 468.434C235.727 468.434 232.763 469.183 231.611 468.434C230.46 467.686 226.603 461.153 225.308 460.75C225.308 460.75 226.546 458.217 229.683 460.059C229.712 460.059 234.892 467.341 235.727 468.434Z" fill="#EEA886"/>
<path d="M203.147 369.083C203.147 369.083 198.945 374.523 197.823 380.999C196.7 387.474 198.485 409.146 198.456 412.341C198.398 415.535 195.492 425.724 196.096 431.739C196.7 437.754 199.953 462.621 199.953 462.621L207.205 462.477C207.205 462.477 205.737 435.365 206.112 432.833C206.486 430.3 207.666 419.565 207.81 418.529C207.954 417.492 216.07 389.978 216.07 385.316C216.07 380.711 213.249 361.485 203.147 369.083Z" fill="#041B67"/>
<path d="M224.186 371.213C224.186 371.213 231.064 397.49 231.899 401.145C232.734 404.8 234.345 409.549 234.288 410.211C234.202 410.873 233.425 422.098 233.425 422.098L231.467 460.289H224.215C224.215 460.289 221.883 435.999 221.509 431.077C221.135 426.184 224.186 418.586 223.438 416.514C222.689 414.442 211.465 390.439 211.465 390.439C211.465 390.439 202.975 363.586 224.186 371.213Z" fill="#041B67"/>
<path d="M222.258 331.812C222.258 331.812 226.517 332.302 228.301 334.777C230.086 337.252 230.69 340.994 231.093 342.26C231.496 343.497 236.993 355.24 237.367 355.557C237.742 355.844 242.778 355.643 245.8 355.729C250.06 355.844 255.125 355.758 255.125 355.758L254.492 361.831C254.492 361.831 234.288 362.291 232.878 360.708C229.798 357.197 222.833 344.994 222.833 344.994C222.833 344.994 215.58 335.093 222.258 331.812Z" fill="#F092AC"/>
<path d="M217.25 329.97C217.25 329.97 220.819 331.668 222.056 331.899C223.294 332.158 228.1 338.374 228.935 340.677C229.769 342.95 228.935 346.375 227.208 350.376C225.481 354.376 227.122 355.729 226.316 359.73C225.51 363.73 224.819 372.249 224.992 374.465C225.136 376.681 204.96 377.113 200.355 373.055C200.355 373.055 204.989 366.119 205.594 365.14C206.198 364.162 205.68 358.751 205.162 357.37C204.615 355.988 198.916 344.821 198.916 344.821C198.916 344.821 198.024 335.122 200.701 333.05C203.032 331.237 209.364 330.604 210.515 330.201C211.609 329.798 214.947 329.625 217.25 329.97Z" fill="#EDDAD3"/>
<path d="M218.401 337.914L220.559 335.381L218.689 328.704C218.689 328.675 218.056 332.417 218.401 337.914Z" fill="#D6C5BE"/>
<path d="M218.977 325.855C218.977 325.855 218.257 332.388 218.401 334.518C218.401 334.518 214.688 338.231 210.486 330.172C210.486 330.172 212.271 326.862 210.918 322.344C209.594 317.825 218.977 325.855 218.977 325.855Z" fill="#EEA886"/>
<path d="M218.401 334.518V337.914L214.141 334.719L218.401 334.518Z" fill="#EEA886"/>
<path d="M218.401 337.914L216.617 335.727L210.659 329.769L208.731 331.64L218.401 337.914Z" fill="#D6C5BE"/>
<path d="M211.551 377.689C209.882 385.719 197.708 376.768 197.708 376.768C197.708 376.768 205.594 363.529 202.456 352.938C202.428 352.851 202.399 352.765 202.37 352.679C202.169 352.017 201.967 351.383 201.766 350.779C198.888 342.03 196.297 339.986 196.297 339.986C196.297 339.986 199.953 331.956 203.349 331.438C206.745 330.92 209.824 330.345 209.824 330.345C209.824 330.345 214.832 337.943 215.062 341.281C215.321 344.62 213.22 369.63 211.551 377.689Z" fill="#F092AC"/>
<path d="M229.712 341.598C229.712 341.598 228.906 349.196 227.38 352.937C227.38 352.937 226.747 360.967 226.834 363.788C226.92 366.608 227.611 377.286 227.611 377.286L224.128 379.329C223.438 379.732 222.574 379.157 222.66 378.351C223.639 370.235 226.862 339.41 219.926 331.122L222.718 331.927C222.689 331.956 228.417 337.281 229.712 341.598Z" fill="#F092AC"/>
<path d="M220.559 335.381L223.294 336.129L218.689 328.675L220.559 335.381Z" fill="#FAE6DE"/>
<path d="M216.617 335.727L214.141 338.979L209.047 330.489L210.659 329.769L216.617 335.727Z" fill="#FAE6DE"/>
<path d="M228.618 353.858C228.618 353.858 230.23 348.764 229.28 345.138C229.28 345.138 229.395 348.332 227.496 352.534L228.618 353.858Z" fill="#D17591"/>
<path d="M216.386 304.73C219.005 304.471 224.848 305.507 226.085 312.414C226.085 312.414 225.97 314.285 225.567 315.782C225.193 317.278 226.69 321.538 226.373 321.768C226.028 321.998 224.646 322.344 224.646 322.344C224.646 322.344 223.351 327.15 221.682 327.179C220.013 327.208 213.681 326.229 210.429 320.473C207.176 314.717 205.853 305.737 216.386 304.73Z" fill="#EEA886"/>
<path d="M226.085 312.414C226.085 312.414 221.97 315.522 217.797 316.299C213.623 317.077 211.35 324.387 211.35 324.387C211.35 324.387 204.327 313.796 209.191 307.061C214.055 300.326 226.603 304.298 226.085 312.414Z" fill="#754836"/>
<path d="M216.012 316.184C215.955 315.379 214.976 314.199 213.71 315.379C212.415 316.559 214.4 320.358 215.494 319.926C216.559 319.465 216.099 317.019 216.012 316.184Z" fill="#EEA886"/>
<path d="M218.976 326.776C218.89 327.294 218.775 327.87 218.717 328.503C215.206 326.488 213.364 323.955 213.364 323.955C215.379 325.625 218.976 326.776 218.976 326.776Z" fill="#A77860"/>
<path d="M222.2 361.428L207.407 387.014L190.973 377.545L205.133 351.556L222.2 361.428Z" fill="#3D92E4"/>
<path d="M214.861 378.437C214.861 378.437 214.199 378.437 213.882 378.293C213.882 378.293 213.364 378.005 212.99 377.804C212.875 377.746 212.76 377.689 212.702 377.66C212.415 377.545 211.695 377.43 211.062 376.969C210.4 376.509 208.097 373.832 208.097 373.832L209.191 372.163L209.997 370.465C209.997 370.465 214.861 370.781 215.523 371.127C215.58 371.156 215.638 371.184 215.696 371.242C216.214 371.587 216.473 372.077 216.732 372.307C216.818 372.393 217.71 373.257 217.681 373.602C217.653 374.12 217.394 374.437 217.106 374.609C217.106 374.609 216.991 375.588 216.501 376.048C216.501 376.048 216.415 376.969 215.638 377.372C215.609 377.372 215.408 378.293 214.861 378.437Z" fill="#EEA886"/>
<path d="M205.277 331.323C205.277 331.323 200.384 330.69 197.794 335.64C195.233 340.591 195.233 342.692 194.887 345.109C194.571 347.383 193.103 353.628 192.959 354.261C192.815 354.895 189.505 362.579 191.002 365.256C192.527 367.961 208.069 375.876 207.982 376.48C207.896 377.084 210.688 370.494 210.688 370.494C210.688 370.494 204.414 366.982 203.377 365.918C201.708 364.162 198.168 362.262 198.888 360.104C199.751 357.542 202.284 348.937 202.888 347.671C203.464 346.375 209.047 332.906 205.277 331.323Z" fill="#F092AC"/>
<path d="M204.845 342.49C204.672 347.239 202.37 352.707 202.37 352.707C202.169 352.045 201.967 351.412 201.766 350.808C203.061 347.21 204.845 342.49 204.845 342.49Z" fill="#D17591"/>
<path d="M256.737 210.847C256.737 210.847 258.694 211.596 259.615 210.617C260.334 209.869 261.543 208.487 261.745 208.084C261.917 207.71 262.982 206.242 263.184 207.02C263.385 207.768 262.176 211.164 261.658 211.567C261.111 211.97 263.99 212.661 264.421 213.207C264.853 213.754 263.356 218.589 261.457 217.899C259.529 217.208 258.147 215.222 257.802 215.049C257.255 214.79 255.096 213.869 255.096 213.869L256.737 210.847Z" fill="#EEA886"/>
<path d="M263.99 212.919C263.99 212.919 269.717 215.481 269.947 215.97C270.177 216.459 270.034 216.776 269.487 216.575C268.94 216.373 263.903 214.272 263.903 214.272C263.903 214.272 270.149 218.474 270.436 218.819C270.609 219.021 270.321 219.654 270.034 219.568C269.717 219.481 263.299 215.682 263.299 215.682C263.299 215.682 269.113 219.597 269.256 219.999C269.372 220.345 268.997 220.834 268.537 220.575C268.076 220.316 262.464 216.978 262.464 216.978C262.464 216.978 266.436 220.086 266.465 220.518C266.465 220.863 266.206 221.323 265.198 220.46C264.191 219.625 261.572 217.898 261.572 217.898L263.99 212.919Z" fill="#EEA886"/>
<path d="M218.315 186.096C218.804 186.758 223.063 192.399 226.2 196.255C226.632 196.802 227.064 197.32 227.467 197.752C228.215 198.644 228.791 199.306 229.165 199.651C231.064 201.378 233.108 204.256 235.871 206.357C237.914 207.911 256.104 214.991 256.334 214.991C256.478 214.934 258.291 210.905 258.291 210.905C258.291 210.905 242.462 202.04 240.85 201.378C238.346 200.313 237.396 198.702 236.504 197.867C235.612 197.032 224.359 181.145 223.812 180.253C223.812 180.253 220.473 174.152 217.163 177.461C213.825 180.742 217.624 185.175 218.315 186.096Z" fill="#BFC0E2"/>
<path d="M226.201 186.384V196.284C226.632 196.831 227.064 197.349 227.467 197.781C227.467 197.781 229.136 194.931 228.043 191.535C226.978 188.168 226.201 186.384 226.201 186.384Z" fill="#C2B2AD"/>
<path d="M243.584 273.244C243.584 273.244 247.095 279.23 248.592 280.209C250.607 281.532 249.34 282.885 248.39 282.885C247.441 282.885 242.519 283.231 241.454 282.022C240.361 280.784 239.843 277.129 238.835 276.15C237.828 275.201 236.792 271.373 239.324 270.452C241.569 269.617 243.584 273.244 243.584 273.244Z" fill="#D17591"/>
<path d="M242.059 270.625C242.059 270.625 246.088 277.618 246.779 278.654C247.469 279.691 245.455 279.69 244.217 279.201C242.98 278.712 239.843 273.704 239.411 272.783C238.864 271.689 239.324 270.452 239.324 270.452L242.059 270.625Z" fill="#EEA886"/>
<path d="M237.972 274.395L238.893 281.561L239.411 281.59L239.238 276.438L237.972 274.395Z" fill="#D17591"/>
<path d="M208.615 273.244C208.615 273.244 212.127 279.23 213.623 280.209C215.638 281.533 214.372 282.885 213.422 282.885C212.472 282.885 207.551 283.231 206.486 282.022C205.392 280.784 204.874 277.129 203.867 276.151C202.859 275.201 201.794 271.287 204.356 270.452C206.601 269.704 208.615 273.244 208.615 273.244Z" fill="#D17591"/>
<path d="M207.32 270.653C207.32 270.653 211.148 277.647 211.839 278.683C212.53 279.719 210.515 279.719 209.277 279.23C208.04 278.741 204.903 273.733 204.471 272.812C203.924 271.718 204.385 270.481 204.385 270.481L207.32 270.653Z" fill="#EEA886"/>
<path d="M203.003 274.395L203.953 281.561L204.442 281.59L204.27 276.438L203.003 274.395Z" fill="#D17591"/>
<path d="M192.988 218.877L224.877 233.411C224.877 233.411 228.445 234.563 228.848 238.534C230.086 250.881 239.324 270.452 239.324 270.452C242.289 271.891 242.059 270.654 242.059 270.654C240.188 264.667 237.914 239.973 237.108 230.044C236.936 227.943 236.821 226.504 236.821 226.043C236.792 225.727 236.475 225.324 235.871 224.835C231.496 221.295 213.479 213.927 213.479 213.927C199.952 213.553 192.988 218.877 192.988 218.877Z" fill="#EEA886"/>
<path d="M190.138 223.856C191.117 232.49 200.269 232.749 200.269 232.749H215.177C215.177 232.749 211.263 241.47 209.738 248.838C208.126 256.637 204.356 270.452 204.356 270.452C204.356 270.452 204.615 270.912 207.292 270.653C207.292 270.653 219.005 247.312 223.495 241.441C224.474 240.175 227.237 233.325 227.697 229.238C227.87 227.856 227.755 226.792 227.237 226.36C226.719 225.928 225.539 225.122 223.956 224.115C219.293 221.179 211.177 216.632 206.658 215.625C200.614 214.272 195.175 212.804 195.175 212.804C195.175 212.804 189.16 215.222 190.138 223.856Z" fill="#EEA886"/>
<path d="M213.623 232.749H200.269C200.269 232.749 190.081 233.44 189.102 224.806C188.124 216.172 192.988 212.229 192.988 212.229C192.988 212.229 197.535 213.438 203.205 214.819C206.054 214.215 209.479 213.812 213.479 213.927C213.479 213.927 230.431 217.352 236.705 225.698C236.705 225.669 226.747 220.661 213.623 232.749Z" fill="#D17591"/>
<path d="M222.114 172.108C222.2 173.087 222.344 174.037 222.459 174.958C222.488 175.246 222.545 175.533 222.603 175.821C223.006 177.49 223.841 179.045 224.992 180.167C226.603 181.75 228.82 182.498 231.151 181.577C235.41 179.879 236.216 165.115 236.216 165.115C234.173 159.704 226.661 160.481 223.956 162.927C221.883 164.827 221.768 168.482 222.114 172.108Z" fill="#EEA886"/>
<path d="M224.099 180.771C224.099 180.771 226.402 185.319 226.776 189.578C226.978 191.996 228.388 194.816 226.344 197.234C224.301 199.652 221.682 199.335 221.164 200.486C220.646 201.637 219.293 203.566 218.516 204.199C217.739 204.832 216.789 210.646 216.53 211.25C216.271 211.855 217.998 215.049 205.191 215.164C192.383 215.308 192.959 212.229 192.959 212.229C192.959 212.229 196.384 208.487 200.355 201.465C201.564 199.306 204.529 184.686 206.025 182.671C207.551 180.628 215.695 169.403 224.099 180.771Z" fill="#8084BE"/>
<path d="M216.588 176.282C216.588 176.282 219.351 188.139 222.401 189.089C225.567 190.039 222.776 178.383 222.776 178.383C222.776 178.383 219.61 173.778 216.588 176.282Z" fill="#EEA886"/>
<path d="M232.935 166.496C232.935 166.496 235.18 171.216 235.209 173.231C235.209 173.231 236.792 170.266 236.821 167.762C236.849 165.287 237.425 161.172 233.338 158.697C229.251 156.221 232.935 166.496 232.935 166.496Z" fill="#754836"/>
<path d="M232.532 218.071C232.532 218.071 234.403 219.107 235.756 219.769C236.792 220.258 239.008 222.244 239.353 223.165C239.699 224.115 239.871 229.065 240.102 229.555C240.361 230.044 239.555 230.159 239.065 229.44C239.065 229.44 237.713 230.591 236.59 228.95C235.439 227.31 235.209 225.295 234.576 224.518C233.942 223.741 230.028 219.481 230.028 219.481C230.028 219.481 231.582 216.862 232.532 218.071Z" fill="#EEA886"/>
<path d="M239.008 222.619C239.008 222.619 239.9 223.914 240.102 224.317C240.303 224.748 241.138 226.36 241.339 226.763C241.541 227.166 240.562 227.137 238.806 224.777C237.051 222.446 239.008 222.619 239.008 222.619Z" fill="#EEA886"/>
<path d="M233.683 217.927L231.669 221.611L225.74 219.28L228.388 215.423L233.683 217.927Z" fill="#F5E1DA"/>
<path d="M213.393 187.391C213.393 187.391 214.084 180.944 209.796 181.692C205.507 182.469 206.054 187.88 206.112 188.945C206.14 190.039 206.659 202.789 207.205 205.149C207.752 207.509 208.472 212.085 210.486 213.409C212.53 214.704 231.669 221.323 231.813 221.352C231.957 221.41 233.712 217.898 233.712 217.898C233.712 217.898 220.675 211.682 219.121 211.077C217.595 210.502 214.026 208.775 213.796 207.652C213.537 206.559 213.364 188.369 213.393 187.391Z" fill="#BFC0E2"/>
<path d="M219.639 179.448C220.099 182.412 223.495 183.621 223.524 182.153C223.524 181.98 223.841 181.549 224.071 181.232C224.157 181.117 224.243 181.002 224.301 180.915C224.474 180.656 224.733 180.397 225.021 180.138C226.114 179.189 227.755 178.44 227.755 178.44L223.265 170.18C223.265 170.18 222.776 170.957 222.142 172.08C220.962 174.181 219.351 177.519 219.639 179.448Z" fill="#EEA886"/>
<path d="M233.626 166.928C233.626 166.928 232.101 170.9 228.733 170.526C225.366 170.151 223.121 171.331 222.92 172.77C222.718 174.181 221.049 181.923 218.084 182.124C215.12 182.326 212.328 178.181 210.803 179.304C209.278 180.426 208.213 185.607 205.853 184.599C203.493 183.592 203.262 178.987 207.551 176.339C211.839 173.691 215.12 173.202 216.07 170.439C217.02 167.676 219.322 160.193 222.315 158.351C224.531 156.97 227.208 155.79 232.072 158.006C236.936 160.222 236.245 165.144 236.245 165.144L233.626 166.928Z" fill="#754836"/>
<path d="M224.071 181.232C224.157 181.117 224.243 181.002 224.301 180.915C224.474 180.656 224.733 180.397 225.02 180.138C225.02 180.138 223.15 178.239 222.632 175.792C222.632 175.821 222.2 177.778 224.071 181.232Z" fill="#A77860"/>
<path d="M409.303 464.837C409.303 464.837 409.821 468.463 409.879 468.981C409.937 469.528 415.606 468.665 415.606 468.665L416.067 464.376C416.067 464.376 409.994 464.319 409.303 464.837Z" fill="#5C544D"/>
<path d="M409.821 468.55C409.821 468.55 408.037 470.737 406.281 471.687C404.526 472.636 401.82 473.011 400.784 473.989C400.036 474.709 398.079 477.759 405.303 477.702C412.527 477.644 416.009 478.134 416.786 476.954C417.563 475.774 415.664 468.319 415.664 468.319C415.664 468.319 413.937 468.924 409.821 468.55Z" fill="#3C4145"/>
<path d="M368.665 464.837C368.665 464.837 369.183 468.463 369.241 468.981C369.298 469.528 374.968 468.665 374.968 468.665L375.428 464.376C375.428 464.376 369.356 464.319 368.665 464.837Z" fill="#5C544D"/>
<path d="M369.183 468.55C369.183 468.55 367.399 470.737 365.643 471.687C363.916 472.636 357.498 473.414 356.491 474.392C355.743 475.112 354.505 477.961 364.665 477.702C371.888 477.5 375.371 478.134 376.148 476.954C376.925 475.774 375.026 468.319 375.026 468.319C375.026 468.319 373.414 468.953 369.183 468.55Z" fill="#3C4145"/>
<path d="M407.289 371.559C407.289 371.559 410.311 380.538 409.908 388.251C409.505 395.993 411.462 404.426 412.268 412.514C413.16 421.522 416.815 442.82 416.959 447.626C417.103 452.432 416.383 467.801 416.383 467.801L409.073 467.974C409.073 467.974 402.943 430.732 401.331 426.933C399.748 423.134 391.862 396.051 391.574 393C391.315 389.949 407.289 371.559 407.289 371.559Z" fill="#A6B3C0"/>
<path d="M376.551 373.142C376.551 373.142 372.522 394.324 372.004 399.044C371.486 403.764 371.111 421.925 370.852 424.889C370.593 427.854 369.097 463.571 367.658 467.974H377.011C377.011 467.974 384.178 442.014 384.178 429.725C384.178 417.435 389.732 403.016 393.301 394.9C396.87 386.784 405.073 386.611 407.26 371.559C407.289 371.559 379.515 368.364 376.551 373.142Z" fill="#A6B3C0"/>
<path d="M395.546 300.758C395.546 300.758 388.178 297.995 384.782 303.607C381.386 309.22 381.703 320.444 385.415 321.826C389.128 323.207 394.711 322.488 396.611 318.976C398.511 315.465 400.237 310.4 400.151 307.004C400.065 303.607 397.474 301.737 395.546 300.758Z" fill="#EEA886"/>
<path d="M386.653 321.48C386.653 321.48 386.941 323.408 386.452 324.358C385.962 325.308 395.719 325.337 395.719 325.337C395.719 325.337 396.525 320.156 398.021 315.782C399.518 311.436 386.653 321.48 386.653 321.48Z" fill="#EEA886"/>
<path d="M398.021 315.811C398.021 315.811 397.359 316.933 394.596 316.501C391.833 316.07 388.495 312.414 387.344 312.012C386.192 311.609 386.192 310.947 386.192 310.947L385.473 311.983L384.264 312.069C384.264 312.069 385.387 308.788 383.689 307.464C382.019 306.14 385.444 296.873 394.251 299.952C394.251 299.952 401.015 301.823 400.784 305.68C400.525 309.508 399.547 313.882 398.021 315.811Z" fill="#FCCCA2"/>
<path d="M385.876 324.272C385.876 324.272 385.905 322.459 386.739 322.286C387.574 322.114 395.834 321.308 396.841 321.711V323.84C396.841 323.812 394.884 325.02 385.876 324.272Z" fill="#E2D2CA"/>
<path d="M386.365 309.508C386.509 308.874 388.15 307.004 388.783 308.989C389.416 310.975 387.833 313.623 386.941 313.393C386.077 313.191 385.991 311.148 386.365 309.508Z" fill="#EEA886"/>
<path d="M385.876 324.272C385.876 324.272 381.328 325.912 376.09 328.129C376.09 328.129 370.046 330.373 369.385 337.051C369.039 340.591 365.269 359.384 364.549 360.967C363.83 362.55 355.483 388.108 355.196 388.626C354.908 389.144 362.017 392.108 362.477 391.878C362.938 391.648 370.565 368.565 371.342 366.867C371.342 366.867 375.716 353.024 375.86 350.98C375.86 350.98 375.975 356.852 376.234 358.492C376.465 360.133 372.32 392.166 372.435 393.058C372.55 393.95 391.258 395.072 398.741 394.238C406.224 393.403 412.268 391.705 412.268 391.705C412.268 391.705 406.368 366.436 406.569 363.615C406.972 357.514 409.016 346.001 409.016 346.001L415.117 357.514L407.317 377.603L409.102 383.704C409.102 383.704 423.607 361.773 424.097 359.787C424.557 357.773 423.377 355.24 422.629 353.571C421.852 351.93 416.844 339.382 415.664 337.597C414.484 335.842 412.498 328.762 407.692 326.776C403.662 325.135 396.928 323.783 396.928 323.783L385.876 324.272Z" fill="#000758"/>
<path d="M382.029 376.403L347.848 367.638L341.736 391.475L375.917 400.24L382.029 376.403Z" fill="#BDBDBD"/>
<path d="M352.231 393.864C352.231 393.864 351.253 395.447 350.907 395.878C350.562 396.339 351.771 396.598 352.318 396.166C352.864 395.735 352.231 393.864 352.231 393.864Z" fill="#C98462"/>
<path d="M359.369 399.246C359.369 399.246 359.945 398.641 360.06 398.267C360.06 398.267 360.232 397.547 360.376 397.029C360.434 396.857 360.463 396.742 360.52 396.655C360.693 396.281 361.153 395.562 361.297 394.583C361.441 393.605 361.873 389.23 361.873 389.23L359.225 388.568L357.095 388.107C357.095 388.107 352.49 392.684 352.26 393.576C352.231 393.662 352.202 393.748 352.202 393.835C352.059 394.612 352.289 395.245 352.26 395.648C352.26 395.792 352.26 397.317 352.634 397.605C353.123 398.008 353.613 398.066 354.044 397.95C354.044 397.95 355.052 398.67 355.858 398.641C355.858 398.641 356.75 399.332 357.786 398.987C357.786 399.015 358.764 399.62 359.369 399.246Z" fill="#DE9D7D"/>
<path d="M369.701 371.588C369.701 371.588 363.628 389.95 362.506 391.878C362.506 391.878 358.045 390.928 355.224 388.626L361.873 368.796L369.701 371.588Z" fill="#495054"/>
<g clip-path="url(#clip0)">
<path d="M87.1015 115.128H79.8895C79.2792 115.128 78.7845 114.633 78.7845 114.023C78.7845 113.413 79.2792 112.918 79.8895 112.918H87.1015C87.7117 112.918 88.2064 113.413 88.2064 114.023C88.2064 114.633 87.7117 115.128 87.1015 115.128Z" fill="#0492EB"/>
<path d="M72.9005 115.128C72.3538 115.128 71.8788 114.723 71.8062 114.166L69.8344 99.0585C68.8679 92.7431 71.2865 86.3747 76.1482 82.4356C77.9515 80.9745 79.4092 80.1697 79.4703 80.1361C79.8042 79.953 80.2086 79.9548 80.541 80.1406C80.6063 80.1771 82.1617 81.0529 84.048 82.6232C88.777 86.5595 91.1201 92.8717 90.1629 99.0964C90.0701 99.6996 89.5052 100.113 88.903 100.021C88.2998 99.9278 87.886 99.3637 87.9788 98.7605C88.8189 93.2976 86.771 87.7649 82.6344 84.3215C81.5462 83.4157 80.5705 82.7575 79.9969 82.3941C79.4548 82.7323 78.5539 83.3307 77.5394 84.1526C73.2826 87.6017 71.168 93.1896 72.0207 98.7354C72.022 98.7437 72.0231 98.752 72.0242 98.7604L73.9975 113.88C74.0765 114.485 73.6499 115.04 73.0448 115.119C72.9964 115.125 72.9481 115.128 72.9005 115.128Z" fill="#0492EB"/>
<path d="M72.9019 114.023L71.6447 104.389L68.9113 107.187C67.6749 108.453 66.9827 110.152 66.9827 111.921V117.89L72.9202 114.023H72.9019V114.023Z" fill="#91CFFA"/>
<path d="M66.9827 118.995C66.8019 118.995 66.6208 118.951 66.4562 118.862C66.0997 118.668 65.8778 118.296 65.8778 117.89V111.921C65.8778 109.851 66.6744 107.896 68.121 106.415L70.8544 103.617C71.1502 103.315 71.5929 103.208 71.9944 103.341C72.3959 103.475 72.6856 103.827 72.7403 104.247L73.9721 113.686C73.9745 113.693 73.9769 113.701 73.9792 113.708C74.1184 114.177 73.9328 114.682 73.523 114.949L67.5856 118.816C67.403 118.935 67.193 118.995 66.9827 118.995ZM70.8437 106.791L69.7017 107.96C68.6609 109.025 68.0877 110.432 68.0877 111.921V115.852L71.7179 113.488L70.8437 106.791Z" fill="#0492EB"/>
<path d="M91.0885 107.187L88.3579 104.393L87.1014 114.023H87.0797L93.0172 117.89V111.921C93.0172 110.152 92.325 108.453 91.0885 107.187Z" fill="#91CFFA"/>
<path d="M93.0174 118.995C92.8069 118.995 92.597 118.935 92.4142 118.816L86.4768 114.949C86.067 114.682 85.8814 114.177 86.0207 113.708C86.0247 113.695 86.029 113.681 86.0336 113.668L87.2623 104.249C87.317 103.83 87.6067 103.478 88.0082 103.344C88.4098 103.21 88.8526 103.317 89.1482 103.62L91.8788 106.415C93.3255 107.896 94.1221 109.851 94.1221 111.921V117.89C94.1221 118.295 93.9002 118.668 93.5438 118.862C93.3791 118.951 93.1979 118.995 93.0174 118.995ZM88.2855 113.49L91.9124 115.852V111.921C91.9124 110.432 91.3392 109.025 90.2984 107.959L89.1591 106.793L88.2855 113.49Z" fill="#0492EB"/>
<path d="M80 118.895L76.8927 114.023L80 109.151L83.1073 114.023L80 118.895Z" fill="#91CFFA"/>
<path d="M79.9999 120C79.6225 120 79.2712 119.807 79.0684 119.489L75.9611 114.617C75.7299 114.255 75.7299 113.791 75.9611 113.429L79.0684 108.557C79.2712 108.239 79.6226 108.046 79.9999 108.046C80.3773 108.046 80.7286 108.239 80.9316 108.557L84.0389 113.429C84.2699 113.791 84.2699 114.255 84.0389 114.617L80.9316 119.489C80.7287 119.807 80.3773 120 79.9999 120ZM78.2032 114.023L79.9999 116.84L81.7968 114.023L79.9999 111.206L78.2032 114.023Z" fill="#0492EB"/>
<path d="M80.0004 102.532C82.0343 102.532 83.6831 100.883 83.6831 98.849C83.6831 96.8151 82.0343 95.1663 80.0004 95.1663C77.9664 95.1663 76.3176 96.8151 76.3176 98.849C76.3176 100.883 77.9664 102.532 80.0004 102.532Z" fill="#91CFFA"/>
<path d="M80 103.637C77.3598 103.637 75.2119 101.489 75.2119 98.8486C75.2119 96.2084 77.3598 94.0605 80 94.0605C82.6401 94.0605 84.788 96.2084 84.788 98.8486C84.788 101.489 82.6401 103.637 80 103.637ZM80 96.2705C78.5783 96.2705 77.4218 97.427 77.4218 98.8486C77.4218 100.27 78.5784 101.427 80 101.427C81.4215 101.427 82.5781 100.27 82.5781 98.8486C82.5781 97.427 81.4216 96.2705 80 96.2705Z" fill="#0492EB"/>
<path d="M79.9999 91.1141H72.2652C71.655 91.1141 71.1603 90.6194 71.1603 90.0092C71.1603 89.399 71.655 88.9043 72.2652 88.9043H79.9999C80.6101 88.9043 81.1048 89.399 81.1048 90.0092C81.1048 90.6194 80.6101 91.1141 79.9999 91.1141Z" fill="#0492EB"/>
<path d="M87.6375 91.1141H84.2538C83.6437 91.1141 83.1489 90.6194 83.1489 90.0092C83.1489 89.399 83.6437 88.9043 84.2538 88.9043H87.6375C88.2477 88.9043 88.7424 89.399 88.7424 90.0092C88.7424 90.6194 88.2478 91.1141 87.6375 91.1141Z" fill="#0492EB"/>
</g>
<path d="M420 255.96C410.648 255.96 403.04 248.352 403.04 239C403.04 229.648 410.648 222.04 420 222.04C422.296 222.04 424.525 222.494 426.624 223.388C428.525 224.197 430.248 225.337 431.744 226.775C432.186 227.199 432.2 227.901 431.776 228.342C431.352 228.783 430.65 228.797 430.209 228.373C428.907 227.121 427.409 226.13 425.756 225.426C423.933 224.65 421.996 224.256 420 224.256C411.87 224.256 405.256 230.87 405.256 239C405.256 247.13 411.87 253.744 420 253.744C428.13 253.744 434.744 247.13 434.744 239C434.744 238.388 435.24 237.892 435.852 237.892C436.464 237.892 436.96 238.388 436.96 239C436.96 248.352 429.352 255.96 420 255.96Z" fill="#0492EB"/>
<path d="M420 251.084C413.337 251.084 407.916 245.663 407.916 239C407.916 232.337 413.337 226.916 420 226.916C422.991 226.916 425.864 228.021 428.088 230.029C428.543 230.439 428.579 231.139 428.169 231.594C427.759 232.048 427.058 232.084 426.604 231.674C424.787 230.035 422.442 229.132 420 229.132C414.558 229.132 410.132 233.559 410.132 239C410.132 244.441 414.559 248.868 420 248.868C425.441 248.868 429.868 244.441 429.868 239C429.868 238.388 430.365 237.892 430.976 237.892C431.588 237.892 432.084 238.388 432.084 239C432.084 245.663 426.663 251.084 420 251.084Z" fill="#0492EB"/>
<path d="M420 244.803C423.205 244.803 425.803 242.205 425.803 239C425.803 235.795 423.205 233.197 420 233.197C416.795 233.197 414.197 235.795 414.197 239C414.197 242.205 416.795 244.803 420 244.803Z" fill="#91CFFA"/>
<path d="M420 245.911C416.189 245.911 413.089 242.811 413.089 239C413.089 235.189 416.189 232.089 420 232.089C423.811 232.089 426.911 235.189 426.911 239C426.911 242.811 423.811 245.911 420 245.911ZM420 234.305C417.411 234.305 415.305 236.411 415.305 239C415.305 241.589 417.411 243.695 420 243.695C422.589 243.695 424.695 241.589 424.695 239C424.695 236.411 422.589 234.305 420 234.305Z" fill="#0492EB"/>
<path d="M420 229.076C419.388 229.076 418.892 228.58 418.892 227.968V220.108C418.892 219.496 419.388 219 420 219C420.612 219 421.108 219.496 421.108 220.108V227.968C421.108 228.58 420.612 229.076 420 229.076Z" fill="#0492EB"/>
<path d="M420 259C419.388 259 418.892 258.504 418.892 257.892V250.032C418.892 249.42 419.388 248.924 420 248.924C420.612 248.924 421.108 249.42 421.108 250.032V257.892C421.108 258.504 420.612 259 420 259Z" fill="#0492EB"/>
<path d="M438.892 240.108H430.976C430.364 240.108 429.868 239.612 429.868 239C429.868 238.388 430.364 237.892 430.976 237.892H438.892C439.504 237.892 440 238.388 440 239C440 239.612 439.504 240.108 438.892 240.108Z" fill="#0492EB"/>
<path d="M408.968 240.108H401.108C400.496 240.108 400 239.612 400 239C400 238.388 400.496 237.892 401.108 237.892H408.968C409.58 237.892 410.076 238.388 410.076 239C410.076 239.612 409.58 240.108 408.968 240.108Z" fill="#0492EB"/>
<g clip-path="url(#clip1)">
<path d="M312.143 58H291.41C290.759 58 290.231 57.472 290.231 56.8209C290.231 56.1698 290.759 55.6418 291.41 55.6418H312.143C312.794 55.6418 313.322 56.1698 313.322 56.8209C313.322 57.472 312.794 58 312.143 58Z" fill="#0492EB"/>
<path d="M321.561 58.0001H319.093C318.442 58.0001 317.914 57.4721 317.914 56.8211C317.914 56.17 318.442 55.642 319.093 55.642H321.56C322.157 55.642 322.642 55.1569 322.642 54.5607V53.8507C322.642 53.2543 322.157 52.7693 321.56 52.7693H291.41C290.759 52.7693 290.231 52.2413 290.231 51.5902C290.231 50.9391 290.759 50.4111 291.41 50.4111H321.56C323.457 50.4111 325 51.9542 325 53.8507V54.5607C325 56.4571 323.457 58.0001 321.561 58.0001Z" fill="#0492EB"/>
<path d="M291.411 57.743C290.76 57.743 290.232 57.215 290.232 56.5639V21.4395C290.232 20.8432 289.747 20.3581 289.151 20.3581H288.441C287.844 20.3581 287.359 20.8433 287.359 21.4395V50.5566C287.359 51.2077 286.831 51.7356 286.18 51.7356C285.529 51.7356 285.001 51.2077 285.001 50.5566V21.4395C285.001 19.543 286.544 18 288.44 18H289.15C291.047 18 292.59 19.543 292.59 21.4395V56.5638C292.59 57.215 292.062 57.743 291.411 57.743Z" fill="#0492EB"/>
<path d="M303.47 29.8326L306.231 32.5928L291.425 47.3983L291.41 51.6022H296.33L310.785 37.1471L313.545 39.9073C313.728 40.0901 314.041 39.9844 314.075 39.7281L315.638 28.0903C315.666 27.8862 315.492 27.7119 315.287 27.7394L303.65 29.3026C303.393 29.3369 303.288 29.6498 303.47 29.8326Z" fill="#91CFFA"/>
<path d="M296.33 52.7813H291.41C291.097 52.7813 290.796 52.6565 290.575 52.4345C290.354 52.2124 290.23 51.9114 290.231 51.598L290.246 47.3942C290.247 47.083 290.371 46.7848 290.591 46.5648L304.563 32.593L302.637 30.6666C302.233 30.2626 302.096 29.6758 302.278 29.1347C302.461 28.5936 302.926 28.2101 303.492 28.1341L315.13 26.5709C315.624 26.5047 316.124 26.6934 316.451 27.0673C316.734 27.3908 316.864 27.8211 316.807 28.2475L315.244 39.8853C315.144 40.6226 314.508 41.1784 313.764 41.1784C313.367 41.1784 312.993 41.0233 312.711 40.7413L310.785 38.8148L297.163 52.4359C296.942 52.657 296.642 52.7813 296.33 52.7813ZM292.593 50.4231H295.841L309.951 36.3133C310.172 36.0923 310.472 35.968 310.785 35.968C311.097 35.968 311.397 36.0923 311.618 36.3133L313.14 37.8346L314.318 29.0591L305.543 30.2379L307.064 31.7591C307.525 32.2195 307.525 32.9662 307.064 33.4267L292.603 47.8886L292.593 50.4231Z" fill="#0492EB"/>
<path d="M300.964 26.563H291.646C290.995 26.563 290.467 26.035 290.467 25.3839C290.467 24.7328 290.995 24.2048 291.646 24.2048H300.964C301.616 24.2048 302.144 24.7328 302.144 25.3839C302.144 26.035 301.616 26.563 300.964 26.563Z" fill="#0492EB"/>
<path d="M317.734 52.5453C317.083 52.5453 316.555 52.0174 316.555 51.3663V42.7657C316.555 42.1146 317.083 41.5867 317.734 41.5867C318.385 41.5867 318.913 42.1146 318.913 42.7657V51.3663C318.913 52.0174 318.385 52.5453 317.734 52.5453Z" fill="#0492EB"/>
</g>
</g>
<path d="M111.628 78.334C111.628 78.5253 111.66 78.6887 111.726 78.824C111.791 78.9593 111.882 79.0713 111.999 79.16C112.115 79.244 112.248 79.307 112.398 79.349C112.552 79.3863 112.717 79.405 112.895 79.405C113.086 79.405 113.249 79.384 113.385 79.342C113.52 79.2953 113.63 79.237 113.714 79.167C113.798 79.097 113.858 79.0177 113.896 78.929C113.933 78.8357 113.952 78.7423 113.952 78.649C113.952 78.4577 113.907 78.3177 113.819 78.229C113.735 78.1357 113.641 78.0703 113.539 78.033C113.361 77.9677 113.154 77.907 112.916 77.851C112.682 77.7903 112.393 77.7133 112.048 77.62C111.833 77.564 111.653 77.4917 111.509 77.403C111.369 77.3097 111.257 77.207 111.173 77.095C111.089 76.983 111.028 76.864 110.991 76.738C110.958 76.612 110.942 76.4837 110.942 76.353C110.942 76.101 110.993 75.884 111.096 75.702C111.203 75.5153 111.343 75.3613 111.516 75.24C111.688 75.1187 111.884 75.03 112.104 74.974C112.323 74.9133 112.545 74.883 112.769 74.883C113.03 74.883 113.275 74.918 113.504 74.988C113.737 75.0533 113.94 75.1537 114.113 75.289C114.29 75.4243 114.43 75.5923 114.533 75.793C114.635 75.989 114.687 76.2177 114.687 76.479H113.812C113.788 76.157 113.679 75.9307 113.483 75.8C113.287 75.6647 113.037 75.597 112.734 75.597C112.631 75.597 112.526 75.6087 112.419 75.632C112.311 75.6507 112.213 75.6857 112.125 75.737C112.036 75.7837 111.961 75.849 111.901 75.933C111.845 76.017 111.817 76.122 111.817 76.248C111.817 76.4253 111.87 76.5653 111.978 76.668C112.09 76.766 112.234 76.8407 112.412 76.892C112.43 76.8967 112.503 76.9177 112.629 76.955C112.759 76.9877 112.904 77.025 113.063 77.067C113.221 77.109 113.375 77.151 113.525 77.193C113.679 77.2303 113.788 77.2583 113.854 77.277C114.017 77.3283 114.159 77.3983 114.281 77.487C114.402 77.5757 114.502 77.6783 114.582 77.795C114.666 77.907 114.726 78.0283 114.764 78.159C114.806 78.2897 114.827 78.4203 114.827 78.551C114.827 78.831 114.768 79.0713 114.652 79.272C114.54 79.468 114.39 79.629 114.204 79.755C114.017 79.881 113.805 79.972 113.567 80.028C113.329 80.0887 113.086 80.119 112.839 80.119C112.554 80.119 112.286 80.084 112.034 80.014C111.782 79.944 111.562 79.8367 111.376 79.692C111.189 79.5473 111.04 79.363 110.928 79.139C110.816 78.9103 110.757 78.642 110.753 78.334H111.628ZM117.272 76.381H118.028V76.871H118.042C118.154 76.661 118.31 76.5117 118.511 76.423C118.711 76.3297 118.928 76.283 119.162 76.283C119.446 76.283 119.694 76.3343 119.904 76.437C120.118 76.535 120.296 76.6727 120.436 76.85C120.576 77.0227 120.681 77.2257 120.751 77.459C120.821 77.6923 120.856 77.942 120.856 78.208C120.856 78.4507 120.823 78.6863 120.758 78.915C120.697 79.1437 120.601 79.3467 120.471 79.524C120.345 79.6967 120.184 79.8367 119.988 79.944C119.792 80.0467 119.561 80.098 119.295 80.098C119.178 80.098 119.061 80.0863 118.945 80.063C118.828 80.0443 118.716 80.0117 118.609 79.965C118.501 79.9183 118.401 79.86 118.308 79.79C118.219 79.7153 118.144 79.629 118.084 79.531H118.07V81.337H117.272V76.381ZM120.058 78.194C120.058 78.0307 120.037 77.872 119.995 77.718C119.953 77.564 119.89 77.4287 119.806 77.312C119.722 77.1907 119.617 77.095 119.491 77.025C119.365 76.9503 119.22 76.913 119.057 76.913C118.721 76.913 118.466 77.0297 118.294 77.263C118.126 77.4963 118.042 77.8067 118.042 78.194C118.042 78.376 118.063 78.5463 118.105 78.705C118.151 78.859 118.219 78.992 118.308 79.104C118.396 79.216 118.501 79.3047 118.623 79.37C118.749 79.4353 118.893 79.468 119.057 79.468C119.239 79.468 119.393 79.4307 119.519 79.356C119.645 79.2813 119.747 79.1857 119.827 79.069C119.911 78.9477 119.969 78.8123 120.002 78.663C120.039 78.509 120.058 78.3527 120.058 78.194ZM125.785 77.872C125.776 77.746 125.748 77.6247 125.701 77.508C125.659 77.3913 125.598 77.291 125.519 77.207C125.444 77.1183 125.351 77.0483 125.239 76.997C125.132 76.941 125.01 76.913 124.875 76.913C124.735 76.913 124.607 76.9387 124.49 76.99C124.378 77.0367 124.28 77.1043 124.196 77.193C124.117 77.277 124.051 77.3773 124 77.494C123.953 77.6107 123.928 77.7367 123.923 77.872H125.785ZM123.923 78.397C123.923 78.537 123.942 78.6723 123.979 78.803C124.021 78.9337 124.082 79.048 124.161 79.146C124.24 79.244 124.341 79.3233 124.462 79.384C124.583 79.44 124.728 79.468 124.896 79.468C125.129 79.468 125.316 79.419 125.456 79.321C125.601 79.2183 125.708 79.0667 125.778 78.866H126.534C126.492 79.062 126.42 79.237 126.317 79.391C126.214 79.545 126.091 79.6757 125.946 79.783C125.801 79.8857 125.638 79.9627 125.456 80.014C125.279 80.07 125.092 80.098 124.896 80.098C124.611 80.098 124.359 80.0513 124.14 79.958C123.921 79.8647 123.734 79.734 123.58 79.566C123.431 79.398 123.316 79.1973 123.237 78.964C123.162 78.7307 123.125 78.474 123.125 78.194C123.125 77.9373 123.165 77.6947 123.244 77.466C123.328 77.2327 123.445 77.0297 123.594 76.857C123.748 76.6797 123.932 76.5397 124.147 76.437C124.362 76.3343 124.604 76.283 124.875 76.283C125.16 76.283 125.414 76.3437 125.638 76.465C125.867 76.5817 126.056 76.738 126.205 76.934C126.354 77.13 126.462 77.3563 126.527 77.613C126.597 77.865 126.616 78.1263 126.583 78.397H123.923ZM131.445 77.872C131.435 77.746 131.407 77.6247 131.361 77.508C131.319 77.3913 131.258 77.291 131.179 77.207C131.104 77.1183 131.011 77.0483 130.899 76.997C130.791 76.941 130.67 76.913 130.535 76.913C130.395 76.913 130.266 76.9387 130.15 76.99C130.038 77.0367 129.94 77.1043 129.856 77.193C129.776 77.277 129.711 77.3773 129.66 77.494C129.613 77.6107 129.587 77.7367 129.583 77.872H131.445ZM129.583 78.397C129.583 78.537 129.601 78.6723 129.639 78.803C129.681 78.9337 129.741 79.048 129.821 79.146C129.9 79.244 130 79.3233 130.122 79.384C130.243 79.44 130.388 79.468 130.556 79.468C130.789 79.468 130.976 79.419 131.116 79.321C131.26 79.2183 131.368 79.0667 131.438 78.866H132.194C132.152 79.062 132.079 79.237 131.977 79.391C131.874 79.545 131.75 79.6757 131.606 79.783C131.461 79.8857 131.298 79.9627 131.116 80.014C130.938 80.07 130.752 80.098 130.556 80.098C130.271 80.098 130.019 80.0513 129.8 79.958C129.58 79.8647 129.394 79.734 129.24 79.566C129.09 79.398 128.976 79.1973 128.897 78.964C128.822 78.7307 128.785 78.474 128.785 78.194C128.785 77.9373 128.824 77.6947 128.904 77.466C128.988 77.2327 129.104 77.0297 129.254 76.857C129.408 76.6797 129.592 76.5397 129.807 76.437C130.021 76.3343 130.264 76.283 130.535 76.283C130.819 76.283 131.074 76.3437 131.298 76.465C131.526 76.5817 131.715 76.738 131.865 76.934C132.014 77.13 132.121 77.3563 132.187 77.613C132.257 77.865 132.275 78.1263 132.243 78.397H129.583ZM138.028 80H137.272V79.51H137.258C137.151 79.72 136.995 79.8717 136.789 79.965C136.584 80.0537 136.367 80.098 136.138 80.098C135.854 80.098 135.604 80.049 135.389 79.951C135.179 79.8483 135.004 79.7107 134.864 79.538C134.724 79.3653 134.619 79.1623 134.549 78.929C134.479 78.691 134.444 78.4367 134.444 78.166C134.444 77.8393 134.489 77.557 134.577 77.319C134.666 77.081 134.783 76.885 134.927 76.731C135.077 76.577 135.245 76.465 135.431 76.395C135.623 76.3203 135.816 76.283 136.012 76.283C136.124 76.283 136.239 76.2947 136.355 76.318C136.472 76.3367 136.584 76.3693 136.691 76.416C136.799 76.4627 136.897 76.5233 136.985 76.598C137.079 76.668 137.156 76.752 137.216 76.85H137.23V75.002H138.028V80ZM135.242 78.229C135.242 78.383 135.261 78.5347 135.298 78.684C135.34 78.8333 135.401 78.9663 135.48 79.083C135.564 79.1997 135.669 79.293 135.795 79.363C135.921 79.433 136.071 79.468 136.243 79.468C136.421 79.468 136.572 79.4307 136.698 79.356C136.829 79.2813 136.934 79.1833 137.013 79.062C137.097 78.9407 137.158 78.8053 137.195 78.656C137.237 78.502 137.258 78.3457 137.258 78.187C137.258 77.7857 137.167 77.473 136.985 77.249C136.808 77.025 136.565 76.913 136.257 76.913C136.071 76.913 135.912 76.9527 135.781 77.032C135.655 77.1067 135.55 77.207 135.466 77.333C135.387 77.4543 135.329 77.5943 135.291 77.753C135.259 77.907 135.242 78.0657 135.242 78.229Z" fill="#0492EB"/>
<path d="M339.118 18.334C339.118 18.5253 339.15 18.6887 339.216 18.824C339.281 18.9593 339.372 19.0713 339.489 19.16C339.605 19.244 339.738 19.307 339.888 19.349C340.042 19.3863 340.207 19.405 340.385 19.405C340.576 19.405 340.739 19.384 340.875 19.342C341.01 19.2953 341.12 19.237 341.204 19.167C341.288 19.097 341.348 19.0177 341.386 18.929C341.423 18.8357 341.442 18.7423 341.442 18.649C341.442 18.4577 341.397 18.3177 341.309 18.229C341.225 18.1357 341.131 18.0703 341.029 18.033C340.851 17.9677 340.644 17.907 340.406 17.851C340.172 17.7903 339.883 17.7133 339.538 17.62C339.323 17.564 339.143 17.4917 338.999 17.403C338.859 17.3097 338.747 17.207 338.663 17.095C338.579 16.983 338.518 16.864 338.481 16.738C338.448 16.612 338.432 16.4837 338.432 16.353C338.432 16.101 338.483 15.884 338.586 15.702C338.693 15.5153 338.833 15.3613 339.006 15.24C339.178 15.1187 339.374 15.03 339.594 14.974C339.813 14.9133 340.035 14.883 340.259 14.883C340.52 14.883 340.765 14.918 340.994 14.988C341.227 15.0533 341.43 15.1537 341.603 15.289C341.78 15.4243 341.92 15.5923 342.023 15.793C342.125 15.989 342.177 16.2177 342.177 16.479H341.302C341.278 16.157 341.169 15.9307 340.973 15.8C340.777 15.6647 340.527 15.597 340.224 15.597C340.121 15.597 340.016 15.6087 339.909 15.632C339.801 15.6507 339.703 15.6857 339.615 15.737C339.526 15.7837 339.451 15.849 339.391 15.933C339.335 16.017 339.307 16.122 339.307 16.248C339.307 16.4253 339.36 16.5653 339.468 16.668C339.58 16.766 339.724 16.8407 339.902 16.892C339.92 16.8967 339.993 16.9177 340.119 16.955C340.249 16.9877 340.394 17.025 340.553 17.067C340.711 17.109 340.865 17.151 341.015 17.193C341.169 17.2303 341.278 17.2583 341.344 17.277C341.507 17.3283 341.649 17.3983 341.771 17.487C341.892 17.5757 341.992 17.6783 342.072 17.795C342.156 17.907 342.216 18.0283 342.254 18.159C342.296 18.2897 342.317 18.4203 342.317 18.551C342.317 18.831 342.258 19.0713 342.142 19.272C342.03 19.468 341.88 19.629 341.694 19.755C341.507 19.881 341.295 19.972 341.057 20.028C340.819 20.0887 340.576 20.119 340.329 20.119C340.044 20.119 339.776 20.084 339.524 20.014C339.272 19.944 339.052 19.8367 338.866 19.692C338.679 19.5473 338.53 19.363 338.418 19.139C338.306 18.9103 338.247 18.642 338.243 18.334H339.118ZM347.184 17.592C347.151 17.368 347.06 17.2 346.911 17.088C346.766 16.9713 346.582 16.913 346.358 16.913C346.255 16.913 346.145 16.9317 346.029 16.969C345.912 17.0017 345.805 17.067 345.707 17.165C345.609 17.2583 345.527 17.3913 345.462 17.564C345.396 17.732 345.364 17.9537 345.364 18.229C345.364 18.3783 345.38 18.5277 345.413 18.677C345.45 18.8263 345.506 18.9593 345.581 19.076C345.66 19.1927 345.76 19.2883 345.882 19.363C346.003 19.433 346.15 19.468 346.323 19.468C346.556 19.468 346.747 19.3957 346.897 19.251C347.051 19.1063 347.146 18.9033 347.184 18.642H347.982C347.907 19.1133 347.727 19.475 347.443 19.727C347.163 19.9743 346.789 20.098 346.323 20.098C346.038 20.098 345.786 20.0513 345.567 19.958C345.352 19.86 345.17 19.7293 345.021 19.566C344.871 19.398 344.757 19.1997 344.678 18.971C344.603 18.7423 344.566 18.495 344.566 18.229C344.566 17.9583 344.603 17.704 344.678 17.466C344.752 17.228 344.864 17.0227 345.014 16.85C345.163 16.6727 345.347 16.535 345.567 16.437C345.791 16.3343 346.052 16.283 346.351 16.283C346.561 16.283 346.759 16.311 346.946 16.367C347.137 16.4183 347.305 16.4977 347.45 16.605C347.599 16.7123 347.72 16.8477 347.814 17.011C347.907 17.1743 347.963 17.368 347.982 17.592H347.184ZM353.431 19.195C353.431 19.293 353.443 19.363 353.466 19.405C353.494 19.447 353.546 19.468 353.62 19.468C353.644 19.468 353.672 19.468 353.704 19.468C353.737 19.468 353.774 19.4633 353.816 19.454V20.007C353.788 20.0163 353.751 20.0257 353.704 20.035C353.662 20.049 353.618 20.0607 353.571 20.07C353.525 20.0793 353.478 20.0863 353.431 20.091C353.385 20.0957 353.345 20.098 353.312 20.098C353.149 20.098 353.014 20.0653 352.906 20C352.799 19.9347 352.729 19.8203 352.696 19.657C352.538 19.811 352.342 19.923 352.108 19.993C351.88 20.063 351.658 20.098 351.443 20.098C351.28 20.098 351.124 20.0747 350.974 20.028C350.825 19.986 350.692 19.923 350.575 19.839C350.463 19.7503 350.372 19.6407 350.302 19.51C350.237 19.3747 350.204 19.2183 350.204 19.041C350.204 18.817 350.244 18.635 350.323 18.495C350.407 18.355 350.515 18.2453 350.645 18.166C350.781 18.0867 350.93 18.0307 351.093 17.998C351.261 17.9607 351.429 17.9327 351.597 17.914C351.742 17.886 351.88 17.8673 352.01 17.858C352.141 17.844 352.255 17.823 352.353 17.795C352.456 17.767 352.535 17.725 352.591 17.669C352.652 17.6083 352.682 17.5197 352.682 17.403C352.682 17.3003 352.657 17.2163 352.605 17.151C352.559 17.0857 352.498 17.0367 352.423 17.004C352.353 16.9667 352.274 16.9433 352.185 16.934C352.097 16.92 352.013 16.913 351.933 16.913C351.709 16.913 351.525 16.9597 351.38 17.053C351.236 17.1463 351.154 17.291 351.135 17.487H350.337C350.351 17.2537 350.407 17.06 350.505 16.906C350.603 16.752 350.727 16.6283 350.876 16.535C351.03 16.4417 351.203 16.3763 351.394 16.339C351.586 16.3017 351.782 16.283 351.982 16.283C352.16 16.283 352.335 16.3017 352.507 16.339C352.68 16.3763 352.834 16.437 352.969 16.521C353.109 16.605 353.221 16.7147 353.305 16.85C353.389 16.9807 353.431 17.1417 353.431 17.333V19.195ZM352.633 18.187C352.512 18.2663 352.363 18.3153 352.185 18.334C352.008 18.348 351.831 18.3713 351.653 18.404C351.569 18.418 351.488 18.439 351.408 18.467C351.329 18.4903 351.259 18.5253 351.198 18.572C351.138 18.614 351.089 18.6723 351.051 18.747C351.019 18.817 351.002 18.9033 351.002 19.006C351.002 19.0947 351.028 19.1693 351.079 19.23C351.131 19.2907 351.191 19.3397 351.261 19.377C351.336 19.4097 351.415 19.433 351.499 19.447C351.588 19.461 351.667 19.468 351.737 19.468C351.826 19.468 351.922 19.4563 352.024 19.433C352.127 19.4097 352.223 19.37 352.311 19.314C352.405 19.258 352.482 19.188 352.542 19.104C352.603 19.0153 352.633 18.908 352.633 18.782V18.187ZM356.081 15.002H356.879V20H356.081V15.002ZM362.004 17.872C361.994 17.746 361.966 17.6247 361.92 17.508C361.878 17.3913 361.817 17.291 361.738 17.207C361.663 17.1183 361.57 17.0483 361.458 16.997C361.35 16.941 361.229 16.913 361.094 16.913C360.954 16.913 360.825 16.9387 360.709 16.99C360.597 17.0367 360.499 17.1043 360.415 17.193C360.335 17.277 360.27 17.3773 360.219 17.494C360.172 17.6107 360.146 17.7367 360.142 17.872H362.004ZM360.142 18.397C360.142 18.537 360.16 18.6723 360.198 18.803C360.24 18.9337 360.3 19.048 360.38 19.146C360.459 19.244 360.559 19.3233 360.681 19.384C360.802 19.44 360.947 19.468 361.115 19.468C361.348 19.468 361.535 19.419 361.675 19.321C361.819 19.2183 361.927 19.0667 361.997 18.866H362.753C362.711 19.062 362.638 19.237 362.536 19.391C362.433 19.545 362.309 19.6757 362.165 19.783C362.02 19.8857 361.857 19.9627 361.675 20.014C361.497 20.07 361.311 20.098 361.115 20.098C360.83 20.098 360.578 20.0513 360.359 19.958C360.139 19.8647 359.953 19.734 359.799 19.566C359.649 19.398 359.535 19.1973 359.456 18.964C359.381 18.7307 359.344 18.474 359.344 18.194C359.344 17.9373 359.383 17.6947 359.463 17.466C359.547 17.2327 359.663 17.0297 359.813 16.857C359.967 16.6797 360.151 16.5397 360.366 16.437C360.58 16.3343 360.823 16.283 361.094 16.283C361.378 16.283 361.633 16.3437 361.857 16.465C362.085 16.5817 362.274 16.738 362.424 16.934C362.573 17.13 362.68 17.3563 362.746 17.613C362.816 17.865 362.834 18.1263 362.802 18.397H360.142Z" fill="#0492EB"/>
<path d="M449.255 211.002H450.186L452.111 216H451.173L450.704 214.677H448.709L448.24 216H447.337L449.255 211.002ZM448.947 214.012H450.473L449.724 211.863H449.703L448.947 214.012ZM456.188 213.592C456.155 213.368 456.064 213.2 455.915 213.088C455.77 212.971 455.586 212.913 455.362 212.913C455.259 212.913 455.15 212.932 455.033 212.969C454.916 213.002 454.809 213.067 454.711 213.165C454.613 213.258 454.531 213.391 454.466 213.564C454.401 213.732 454.368 213.954 454.368 214.229C454.368 214.378 454.384 214.528 454.417 214.677C454.454 214.826 454.51 214.959 454.585 215.076C454.664 215.193 454.765 215.288 454.886 215.363C455.007 215.433 455.154 215.468 455.327 215.468C455.56 215.468 455.752 215.396 455.901 215.251C456.055 215.106 456.151 214.903 456.188 214.642H456.986C456.911 215.113 456.732 215.475 456.447 215.727C456.167 215.974 455.794 216.098 455.327 216.098C455.042 216.098 454.79 216.051 454.571 215.958C454.356 215.86 454.174 215.729 454.025 215.566C453.876 215.398 453.761 215.2 453.682 214.971C453.607 214.742 453.57 214.495 453.57 214.229C453.57 213.958 453.607 213.704 453.682 213.466C453.757 213.228 453.869 213.023 454.018 212.85C454.167 212.673 454.352 212.535 454.571 212.437C454.795 212.334 455.056 212.283 455.355 212.283C455.565 212.283 455.763 212.311 455.95 212.367C456.141 212.418 456.309 212.498 456.454 212.605C456.603 212.712 456.725 212.848 456.818 213.011C456.911 213.174 456.967 213.368 456.986 213.592H456.188ZM461.348 213.592C461.315 213.368 461.224 213.2 461.075 213.088C460.93 212.971 460.746 212.913 460.522 212.913C460.419 212.913 460.309 212.932 460.193 212.969C460.076 213.002 459.969 213.067 459.871 213.165C459.773 213.258 459.691 213.391 459.626 213.564C459.56 213.732 459.528 213.954 459.528 214.229C459.528 214.378 459.544 214.528 459.577 214.677C459.614 214.826 459.67 214.959 459.745 215.076C459.824 215.193 459.924 215.288 460.046 215.363C460.167 215.433 460.314 215.468 460.487 215.468C460.72 215.468 460.911 215.396 461.061 215.251C461.215 215.106 461.31 214.903 461.348 214.642H462.146C462.071 215.113 461.891 215.475 461.607 215.727C461.327 215.974 460.953 216.098 460.487 216.098C460.202 216.098 459.95 216.051 459.731 215.958C459.516 215.86 459.334 215.729 459.185 215.566C459.035 215.398 458.921 215.2 458.842 214.971C458.767 214.742 458.73 214.495 458.73 214.229C458.73 213.958 458.767 213.704 458.842 213.466C458.916 213.228 459.028 213.023 459.178 212.85C459.327 212.673 459.511 212.535 459.731 212.437C459.955 212.334 460.216 212.283 460.515 212.283C460.725 212.283 460.923 212.311 461.11 212.367C461.301 212.418 461.469 212.498 461.614 212.605C461.763 212.712 461.884 212.848 461.978 213.011C462.071 213.174 462.127 213.368 462.146 213.592H461.348ZM467.242 216H466.458V215.496H466.444C466.346 215.678 466.199 215.825 466.003 215.937C465.812 216.044 465.616 216.098 465.415 216.098C464.939 216.098 464.594 215.981 464.379 215.748C464.169 215.51 464.064 215.153 464.064 214.677V212.381H464.862V214.6C464.862 214.917 464.923 215.141 465.044 215.272C465.166 215.403 465.336 215.468 465.555 215.468C465.723 215.468 465.863 215.442 465.975 215.391C466.087 215.34 466.178 215.272 466.248 215.188C466.318 215.099 466.367 214.994 466.395 214.873C466.428 214.752 466.444 214.621 466.444 214.481V212.381H467.242V216ZM469.354 212.381H470.103V213.081H470.117C470.14 212.983 470.184 212.887 470.25 212.794C470.32 212.701 470.401 212.617 470.495 212.542C470.593 212.463 470.7 212.4 470.817 212.353C470.933 212.306 471.052 212.283 471.174 212.283C471.267 212.283 471.33 212.285 471.363 212.29C471.4 212.295 471.437 212.299 471.475 212.304V213.074C471.419 213.065 471.36 213.058 471.3 213.053C471.244 213.044 471.188 213.039 471.132 213.039C470.996 213.039 470.868 213.067 470.747 213.123C470.63 213.174 470.527 213.254 470.439 213.361C470.35 213.464 470.28 213.592 470.229 213.746C470.177 213.9 470.152 214.077 470.152 214.278V216H469.354V212.381ZM476.116 215.195C476.116 215.293 476.127 215.363 476.151 215.405C476.179 215.447 476.23 215.468 476.305 215.468C476.328 215.468 476.356 215.468 476.389 215.468C476.421 215.468 476.459 215.463 476.501 215.454V216.007C476.473 216.016 476.435 216.026 476.389 216.035C476.347 216.049 476.302 216.061 476.256 216.07C476.209 216.079 476.162 216.086 476.116 216.091C476.069 216.096 476.029 216.098 475.997 216.098C475.833 216.098 475.698 216.065 475.591 216C475.483 215.935 475.413 215.82 475.381 215.657C475.222 215.811 475.026 215.923 474.793 215.993C474.564 216.063 474.342 216.098 474.128 216.098C473.964 216.098 473.808 216.075 473.659 216.028C473.509 215.986 473.376 215.923 473.26 215.839C473.148 215.75 473.057 215.641 472.987 215.51C472.921 215.375 472.889 215.218 472.889 215.041C472.889 214.817 472.928 214.635 473.008 214.495C473.092 214.355 473.199 214.245 473.33 214.166C473.465 214.087 473.614 214.031 473.778 213.998C473.946 213.961 474.114 213.933 474.282 213.914C474.426 213.886 474.564 213.867 474.695 213.858C474.825 213.844 474.94 213.823 475.038 213.795C475.14 213.767 475.22 213.725 475.276 213.669C475.336 213.608 475.367 213.52 475.367 213.403C475.367 213.3 475.341 213.216 475.29 213.151C475.243 213.086 475.182 213.037 475.108 213.004C475.038 212.967 474.958 212.943 474.87 212.934C474.781 212.92 474.697 212.913 474.618 212.913C474.394 212.913 474.209 212.96 474.065 213.053C473.92 213.146 473.838 213.291 473.82 213.487H473.022C473.036 213.254 473.092 213.06 473.19 212.906C473.288 212.752 473.411 212.628 473.561 212.535C473.715 212.442 473.887 212.376 474.079 212.339C474.27 212.302 474.466 212.283 474.667 212.283C474.844 212.283 475.019 212.302 475.192 212.339C475.364 212.376 475.518 212.437 475.654 212.521C475.794 212.605 475.906 212.715 475.99 212.85C476.074 212.981 476.116 213.142 476.116 213.333V215.195ZM475.318 214.187C475.196 214.266 475.047 214.315 474.87 214.334C474.692 214.348 474.515 214.371 474.338 214.404C474.254 214.418 474.172 214.439 474.093 214.467C474.013 214.49 473.943 214.525 473.883 214.572C473.822 214.614 473.773 214.672 473.736 214.747C473.703 214.817 473.687 214.903 473.687 215.006C473.687 215.095 473.712 215.169 473.764 215.23C473.815 215.291 473.876 215.34 473.946 215.377C474.02 215.41 474.1 215.433 474.184 215.447C474.272 215.461 474.352 215.468 474.422 215.468C474.51 215.468 474.606 215.456 474.709 215.433C474.811 215.41 474.907 215.37 474.996 215.314C475.089 215.258 475.166 215.188 475.227 215.104C475.287 215.015 475.318 214.908 475.318 214.782V214.187ZM480.687 213.592C480.655 213.368 480.564 213.2 480.414 213.088C480.27 212.971 480.085 212.913 479.861 212.913C479.759 212.913 479.649 212.932 479.532 212.969C479.416 213.002 479.308 213.067 479.21 213.165C479.112 213.258 479.031 213.391 478.965 213.564C478.9 213.732 478.867 213.954 478.867 214.229C478.867 214.378 478.884 214.528 478.916 214.677C478.954 214.826 479.01 214.959 479.084 215.076C479.164 215.193 479.264 215.288 479.385 215.363C479.507 215.433 479.654 215.468 479.826 215.468C480.06 215.468 480.251 215.396 480.4 215.251C480.554 215.106 480.65 214.903 480.687 214.642H481.485C481.411 215.113 481.231 215.475 480.946 215.727C480.666 215.974 480.293 216.098 479.826 216.098C479.542 216.098 479.29 216.051 479.07 215.958C478.856 215.86 478.674 215.729 478.524 215.566C478.375 215.398 478.261 215.2 478.181 214.971C478.107 214.742 478.069 214.495 478.069 214.229C478.069 213.958 478.107 213.704 478.181 213.466C478.256 213.228 478.368 213.023 478.517 212.85C478.667 212.673 478.851 212.535 479.07 212.437C479.294 212.334 479.556 212.283 479.854 212.283C480.064 212.283 480.263 212.311 480.449 212.367C480.641 212.418 480.809 212.498 480.953 212.605C481.103 212.712 481.224 212.848 481.317 213.011C481.411 213.174 481.467 213.368 481.485 213.592H480.687ZM483.005 212.381H483.88L484.825 215.083H484.839L485.756 212.381H486.589L485.182 216.196C485.117 216.359 485.051 216.516 484.986 216.665C484.925 216.814 484.848 216.945 484.755 217.057C484.666 217.174 484.554 217.265 484.419 217.33C484.284 217.4 484.111 217.435 483.901 217.435C483.714 217.435 483.53 217.421 483.348 217.393V216.721C483.413 216.73 483.476 216.74 483.537 216.749C483.598 216.763 483.661 216.77 483.726 216.77C483.819 216.77 483.896 216.758 483.957 216.735C484.018 216.712 484.067 216.677 484.104 216.63C484.146 216.588 484.181 216.537 484.209 216.476C484.237 216.415 484.263 216.345 484.286 216.266L484.377 215.986L483.005 212.381Z" fill="#0492EB"/>
<defs>
<filter id="filter0_d" x="0" y="0" width="521" height="524.18" filterUnits="userSpaceOnUse" color-interpolation-filters="sRGB">
<feFlood flood-opacity="0" result="BackgroundImageFix"/>
<feColorMatrix in="SourceAlpha" type="matrix" values="0 0 0 0 0 0 0 0 0 0 0 0 0 0 0 0 0 0 127 0"/>
<feOffset dx="4" dy="4"/>
<feGaussianBlur stdDeviation="2"/>
<feColorMatrix type="matrix" values="0 0 0 0 0 0 0 0 0 0 0 0 0 0 0 0 0 0 0.25 0"/>
<feBlend mode="normal" in2="BackgroundImageFix" result="effect1_dropShadow"/>
<feBlend mode="normal" in="SourceGraphic" in2="effect1_dropShadow" result="shape"/>
</filter>
<clipPath id="clip0">
<rect width="40" height="40" fill="white" transform="translate(60 80)"/>
</clipPath>
<clipPath id="clip1">
<rect width="40" height="40" fill="white" transform="translate(285 18)"/>
</clipPath>
</defs>
</svg>
