<svg width="264" height="320" viewBox="0 0 264 320" fill="none" xmlns="http://www.w3.org/2000/svg">
<g filter="url(#filter0_dd)">
<path d="M243.745 7.22156H20.0968C14.0928 7.22156 9.22559 12.1545 9.22559 18.2396V297.736C9.22559 303.822 14.0928 308.754 20.0968 308.754H243.745C249.749 308.754 254.617 303.822 254.617 297.736V18.2396C254.617 12.1545 249.749 7.22156 243.745 7.22156Z" fill="black"/>
</g>
<path d="M243.745 7.22156H20.0968C14.0928 7.22156 9.22559 12.1545 9.22559 18.2396V297.736C9.22559 303.822 14.0928 308.754 20.0968 308.754H243.745C249.749 308.754 254.617 303.822 254.617 297.736V18.2396C254.617 12.1545 249.749 7.22156 243.745 7.22156Z" fill="white"/>
<path opacity="0.4" d="M87.3291 33.3701H38.6841C36.4326 33.3701 34.6074 35.22 34.6074 37.5019V79.7924C34.6074 82.0743 36.4326 83.9241 38.6841 83.9241H87.3291C89.5806 83.9241 91.4058 82.0743 91.4058 79.7924V37.5019C91.4058 35.22 89.5806 33.3701 87.3291 33.3701Z" fill="#FF94AB"/>
<path opacity="0.35" fill-rule="evenodd" clip-rule="evenodd" d="M38.8178 215.197H70.3862C72.5074 215.237 74.3142 213.643 74.5674 211.509C74.666 210.379 74.2921 209.259 73.5368 208.422C72.7815 207.585 71.7143 207.108 70.5952 207.107H39.0268C36.9088 207.066 35.1033 208.655 34.8456 210.786C34.7471 211.917 35.1208 213.038 35.8758 213.876C36.6307 214.714 37.6978 215.194 38.8178 215.197Z" fill="#36A6F5"/>
<path opacity="0.35" fill-rule="evenodd" clip-rule="evenodd" d="M89.6578 215.197H105.594C107.717 215.242 109.526 213.646 109.775 211.508C109.874 210.379 109.5 209.259 108.744 208.422C107.989 207.585 106.922 207.108 105.803 207.107H89.8573C87.741 207.071 85.938 208.657 85.6761 210.786C85.5776 211.918 85.9525 213.041 86.7095 213.879C87.4666 214.718 88.5362 215.196 89.6578 215.197Z" fill="#36A6F5"/>
<path opacity="0.35" fill-rule="evenodd" clip-rule="evenodd" d="M220.188 176.442H141.448C139.331 176.405 137.528 177.992 137.266 180.121C137.168 181.253 137.543 182.375 138.3 183.214C139.057 184.053 140.127 184.531 141.248 184.532H220.007C222.13 184.576 223.94 182.98 224.189 180.843C224.288 179.708 223.91 178.584 223.148 177.746C222.387 176.908 221.312 176.434 220.188 176.442Z" fill="#FF94AB"/>
<path opacity="0.35" fill-rule="evenodd" clip-rule="evenodd" d="M122.062 176.441H39.0268C36.9088 176.401 35.1033 177.99 34.8456 180.121C34.7471 181.251 35.1208 182.372 35.8758 183.21C36.6307 184.049 37.6978 184.528 38.8178 184.532H121.853C123.973 184.567 125.777 182.976 126.035 180.843C126.133 179.713 125.759 178.593 125.004 177.756C124.249 176.92 123.181 176.442 122.062 176.441Z" fill="#FF94AB"/>
<path opacity="0.35" fill-rule="evenodd" clip-rule="evenodd" d="M111.685 245.853H155.892C158.012 245.898 159.82 244.307 160.073 242.174C160.175 241.044 159.802 239.922 159.046 239.084C158.29 238.247 157.221 237.771 156.101 237.773H111.856C109.736 237.728 107.928 239.318 107.675 241.452C107.572 242.589 107.95 243.717 108.715 244.556C109.479 245.395 110.558 245.866 111.685 245.853Z" fill="#36A6F5"/>
<path opacity="0.35" fill-rule="evenodd" clip-rule="evenodd" d="M175.288 245.853H220.008C222.128 245.898 223.936 244.307 224.189 242.174C224.291 241.044 223.918 239.922 223.162 239.084C222.406 238.247 221.337 237.771 220.217 237.773H175.525C173.406 237.728 171.598 239.318 171.344 241.452C171.243 242.577 171.612 243.694 172.362 244.531C173.111 245.367 174.173 245.847 175.288 245.853Z" fill="#36A6F5"/>
<path opacity="0.35" fill-rule="evenodd" clip-rule="evenodd" d="M38.8174 245.853H90.3321C92.4517 245.898 94.2598 244.307 94.5134 242.174C94.6149 241.044 94.242 239.922 93.4861 239.084C92.7302 238.247 91.6612 237.771 90.5412 237.773H39.0265C36.9213 237.747 35.1353 239.333 34.8832 241.452C34.7852 242.575 35.1541 243.688 35.901 244.524C36.6479 245.36 37.705 245.841 38.8174 245.853Z" fill="#36A6F5"/>
<path opacity="0.35" fill-rule="evenodd" clip-rule="evenodd" d="M118.232 268.438H39.0264C36.9341 268.411 35.153 269.976 34.8832 272.079C34.7846 273.209 35.1585 274.329 35.9138 275.166C36.6691 276.002 37.7363 276.48 38.8554 276.481H118.061C120.181 276.526 121.989 274.935 122.243 272.801C122.333 271.671 121.95 270.553 121.187 269.723C120.424 268.893 119.352 268.427 118.232 268.438Z" fill="#36A6F5"/>
<path opacity="0.35" fill-rule="evenodd" clip-rule="evenodd" d="M89.6578 153.866H173.444C175.56 153.902 177.363 152.316 177.625 150.187C177.724 149.055 177.349 147.932 176.592 147.094C175.835 146.255 174.765 145.777 173.643 145.776H89.8574C87.741 145.74 85.938 147.326 85.6761 149.455C85.5776 150.587 85.9525 151.709 86.7095 152.548C87.4666 153.387 88.5362 153.865 89.6578 153.866Z" fill="#FF94AB"/>
<path opacity="0.35" fill-rule="evenodd" clip-rule="evenodd" d="M38.8178 153.866H70.3862C72.5042 153.906 74.3097 152.318 74.5675 150.187C74.6659 149.056 74.2922 147.935 73.5373 147.097C72.7823 146.259 71.7152 145.779 70.5953 145.776H39.0268C36.9088 145.735 35.1033 147.324 34.8456 149.455C34.7471 150.585 35.1208 151.706 35.8758 152.544C36.6307 153.383 37.6978 153.862 38.8178 153.866Z" fill="#FF94AB"/>
<path opacity="0.35" fill-rule="evenodd" clip-rule="evenodd" d="M195.244 153.866H220.008C222.128 153.911 223.936 152.32 224.189 150.187C224.291 149.056 223.918 147.933 223.162 147.094C222.407 146.255 221.338 145.777 220.217 145.776H195.481C193.362 145.731 191.554 147.322 191.3 149.455C191.199 150.581 191.568 151.699 192.317 152.537C193.067 153.375 194.128 153.857 195.244 153.866Z" fill="#FF94AB"/>
<path opacity="0.78" fill-rule="evenodd" clip-rule="evenodd" d="M78.6628 40.1023C78.6615 37.8406 78.4547 35.5838 78.0451 33.3605H65.4158C67.9001 42.0688 65.3828 51.4543 58.8905 57.6897C52.3982 63.925 43.0158 65.9682 34.5693 62.986V75.9206C45.2952 78.3545 56.5311 75.7158 65.1076 68.7489C73.6841 61.782 78.6715 51.242 78.6628 40.1023Z" fill="#36A6F5"/>
<path opacity="0.4" d="M112.479 111.845H40.951C37.5737 111.845 34.8359 114.62 34.8359 118.043C34.8359 121.466 37.5737 124.24 40.951 124.24H112.479C115.856 124.24 118.594 121.466 118.594 118.043C118.594 114.62 115.856 111.845 112.479 111.845Z" fill="#A3B3C1"/>
<path d="M106.993 37.8859V53.6463H109.065V37.8859H106.993Z" fill="#70788C"/>
<path d="M112.245 42.2343V53.6463H114.099V47.2009C114.099 46.6858 114.164 46.2149 114.295 45.7882C114.441 45.3467 114.651 44.9641 114.928 44.6404C115.204 44.3166 115.546 44.0664 115.953 43.8899C116.375 43.7133 116.869 43.625 117.436 43.625C118.149 43.625 118.709 43.831 119.116 44.243C119.523 44.6551 119.726 45.2143 119.726 45.9206V53.6463H121.581V46.1414C121.581 45.5233 121.515 44.9641 121.384 44.4638C121.268 43.9487 121.057 43.5072 120.752 43.1394C120.446 42.7715 120.046 42.4845 119.552 42.2785C119.058 42.0725 118.44 41.9695 117.698 41.9695C116.026 41.9695 114.804 42.6611 114.033 44.0444H113.99V42.2343H112.245Z" fill="#70788C"/>
<path d="M126.939 42.2343V38.813H125.085V42.2343H123.165V43.8899H125.085V51.152C125.085 51.6818 125.136 52.1086 125.238 52.4323C125.339 52.756 125.492 53.0062 125.696 53.1828C125.914 53.3594 126.19 53.4845 126.525 53.558C126.874 53.6169 127.288 53.6463 127.768 53.6463H129.186V51.9908H128.335C128.044 51.9908 127.804 51.9835 127.615 51.9688C127.441 51.9393 127.303 51.8878 127.201 51.8142C127.099 51.7407 127.026 51.6377 126.983 51.5052C126.954 51.3728 126.939 51.1962 126.939 50.9754V43.8899H129.186V42.2343H126.939Z" fill="#70788C"/>
<path d="M139.076 46.8477H132.598C132.627 46.4062 132.721 45.9942 132.881 45.6116C133.041 45.2143 133.26 44.8684 133.536 44.5741C133.812 44.2798 134.139 44.0517 134.517 43.8899C134.91 43.7133 135.346 43.625 135.826 43.625C136.291 43.625 136.713 43.7133 137.091 43.8899C137.484 44.0517 137.818 44.2798 138.095 44.5741C138.385 44.8537 138.611 45.1922 138.771 45.5895C138.945 45.9868 139.047 46.4062 139.076 46.8477ZM140.865 50.0263H139.033C138.873 50.7768 138.538 51.336 138.029 51.7039C137.535 52.0718 136.895 52.2557 136.11 52.2557C135.499 52.2557 134.968 52.1527 134.517 51.9467C134.067 51.7407 133.696 51.4684 133.405 51.13C133.114 50.7768 132.903 50.3795 132.772 49.938C132.642 49.4818 132.583 49.0035 132.598 48.5032H141.039C141.068 47.8116 141.003 47.0832 140.843 46.3179C140.698 45.5527 140.421 44.8464 140.014 44.1989C139.622 43.5514 139.091 43.0216 138.422 42.6096C137.767 42.1828 136.939 41.9695 135.935 41.9695C135.164 41.9695 134.452 42.1166 133.798 42.4109C133.158 42.7052 132.598 43.1173 132.118 43.647C131.653 44.1768 131.289 44.8022 131.027 45.5233C130.766 46.2444 130.635 47.039 130.635 47.9072C130.664 48.7755 130.787 49.5775 131.006 50.3132C131.238 51.049 131.58 51.6818 132.031 52.2116C132.482 52.7413 133.034 53.1534 133.689 53.4477C134.357 53.742 135.143 53.8892 136.044 53.8892C137.324 53.8892 138.385 53.5654 139.229 52.9179C140.072 52.2704 140.618 51.3066 140.865 50.0263Z" fill="#70788C"/>
<path d="M143.07 37.8859V53.6463H144.924V37.8859H143.07Z" fill="#70788C"/>
<path d="M147.906 37.8859V53.6463H149.76V37.8859H147.906Z" fill="#70788C"/>
<path d="M154.595 40.1815V37.8859H152.741V40.1815H154.595ZM152.741 42.2343V53.6463H154.595V42.2343H152.741Z" fill="#70788C"/>
<path d="M167.196 52.6751V42.2343H165.451V43.8678H165.429C165.095 43.235 164.629 42.7641 164.033 42.4551C163.437 42.1313 162.782 41.9695 162.07 41.9695C161.096 41.9695 160.274 42.1608 159.605 42.5434C158.936 42.9113 158.398 43.3895 157.991 43.9781C157.584 44.5521 157.293 45.1995 157.118 45.9206C156.944 46.627 156.857 47.3186 156.857 47.9955C156.857 48.7755 156.958 49.5186 157.162 50.225C157.38 50.9166 157.7 51.5273 158.122 52.057C158.543 52.5721 159.067 52.9841 159.692 53.2932C160.318 53.6022 161.052 53.7567 161.895 53.7567C162.622 53.7567 163.306 53.5948 163.946 53.2711C164.6 52.9326 165.087 52.4102 165.407 51.7039H165.451V52.4544C165.451 53.0871 165.385 53.6684 165.254 54.1982C165.138 54.7279 164.942 55.1768 164.666 55.5447C164.389 55.9273 164.04 56.2216 163.619 56.4276C163.197 56.6483 162.681 56.7587 162.07 56.7587C161.764 56.7587 161.445 56.7219 161.11 56.6483C160.776 56.5895 160.463 56.4865 160.172 56.3393C159.896 56.1922 159.656 56.0008 159.452 55.7654C159.263 55.5299 159.162 55.243 159.147 54.9045H157.293C157.322 55.5226 157.482 56.045 157.773 56.4718C158.064 56.8985 158.427 57.2443 158.863 57.5092C159.314 57.7741 159.809 57.9654 160.347 58.0831C160.899 58.2008 161.437 58.2597 161.961 58.2597C163.764 58.2597 165.087 57.7962 165.931 56.8691C166.774 55.942 167.196 54.544 167.196 52.6751ZM162.004 52.1233C161.394 52.1233 160.885 51.9982 160.478 51.748C160.07 51.4831 159.743 51.1447 159.496 50.7326C159.249 50.3059 159.074 49.835 158.972 49.3199C158.871 48.8049 158.82 48.2898 158.82 47.7748C158.82 47.2303 158.878 46.7079 158.994 46.2076C159.125 45.7072 159.321 45.2658 159.583 44.8832C159.86 44.5006 160.209 44.1989 160.63 43.9781C161.052 43.7427 161.561 43.625 162.157 43.625C162.739 43.625 163.233 43.7427 163.64 43.9781C164.048 44.2136 164.375 44.53 164.622 44.9273C164.884 45.3099 165.073 45.744 165.189 46.2296C165.305 46.7153 165.364 47.2082 165.364 47.7086C165.364 48.2383 165.298 48.7681 165.167 49.2979C165.051 49.8276 164.862 50.3059 164.6 50.7326C164.338 51.1447 163.989 51.4831 163.553 51.748C163.131 51.9982 162.615 52.1233 162.004 52.1233Z" fill="#70788C"/>
<path d="M177.823 46.8477H171.345C171.374 46.4062 171.469 45.9942 171.629 45.6116C171.788 45.2143 172.007 44.8684 172.283 44.5741C172.559 44.2798 172.886 44.0517 173.264 43.8899C173.657 43.7133 174.093 43.625 174.573 43.625C175.039 43.625 175.46 43.7133 175.838 43.8899C176.231 44.0517 176.565 44.2798 176.842 44.5741C177.133 44.8537 177.358 45.1922 177.518 45.5895C177.692 45.9868 177.794 46.4062 177.823 46.8477ZM179.612 50.0263H177.78C177.62 50.7768 177.285 51.336 176.776 51.7039C176.282 52.0718 175.642 52.2557 174.857 52.2557C174.246 52.2557 173.715 52.1527 173.264 51.9467C172.814 51.7407 172.443 51.4684 172.152 51.13C171.861 50.7768 171.65 50.3795 171.519 49.938C171.389 49.4818 171.33 49.0035 171.345 48.5032H179.786C179.815 47.8116 179.75 47.0832 179.59 46.3179C179.445 45.5527 179.168 44.8464 178.761 44.1989C178.369 43.5514 177.838 43.0216 177.169 42.6096C176.515 42.1828 175.686 41.9695 174.682 41.9695C173.912 41.9695 173.199 42.1166 172.545 42.4109C171.905 42.7052 171.345 43.1173 170.865 43.647C170.4 44.1768 170.036 44.8022 169.774 45.5233C169.513 46.2444 169.382 47.039 169.382 47.9072C169.411 48.7755 169.535 49.5775 169.753 50.3132C169.985 51.049 170.327 51.6818 170.778 52.2116C171.229 52.7413 171.781 53.1534 172.436 53.4477C173.104 53.742 173.89 53.8892 174.791 53.8892C176.071 53.8892 177.133 53.5654 177.976 52.9179C178.819 52.2704 179.365 51.3066 179.612 50.0263Z" fill="#70788C"/>
<path d="M181.708 42.2343V53.6463H183.562V47.2009C183.562 46.6858 183.628 46.2149 183.759 45.7882C183.904 45.3467 184.115 44.9641 184.391 44.6404C184.668 44.3166 185.009 44.0664 185.416 43.8899C185.838 43.7133 186.333 43.625 186.9 43.625C187.612 43.625 188.172 43.831 188.579 44.243C188.986 44.6551 189.19 45.2143 189.19 45.9206V53.6463H191.044V46.1414C191.044 45.5233 190.979 44.9641 190.848 44.4638C190.731 43.9487 190.521 43.5072 190.215 43.1394C189.91 42.7715 189.51 42.4845 189.015 42.2785C188.521 42.0725 187.903 41.9695 187.161 41.9695C185.489 41.9695 184.268 42.6611 183.497 44.0444H183.453V42.2343H181.708Z" fill="#70788C"/>
<path d="M196.403 42.2343V38.813H194.549V42.2343H192.629V43.8899H194.549V51.152C194.549 51.6818 194.599 52.1086 194.701 52.4323C194.803 52.756 194.956 53.0062 195.159 53.1828C195.377 53.3594 195.654 53.4845 195.988 53.558C196.337 53.6169 196.752 53.6463 197.231 53.6463H198.649V51.9908H197.799C197.508 51.9908 197.268 51.9835 197.079 51.9688C196.904 51.9393 196.766 51.8878 196.664 51.8142C196.563 51.7407 196.49 51.6377 196.446 51.5052C196.417 51.3728 196.403 51.1962 196.403 50.9754V43.8899H198.649V42.2343H196.403Z" fill="#70788C"/>
<path d="M108.977 78.3227V66.094H112.467C113.427 66.094 114.234 66.2338 114.889 66.5133C115.543 66.7782 116.074 67.1756 116.481 67.7053C116.903 68.2204 117.201 68.8531 117.375 69.6036C117.564 70.3394 117.659 71.1782 117.659 72.12C117.659 73.0913 117.557 73.9227 117.353 74.6143C117.164 75.2912 116.917 75.8578 116.612 76.314C116.306 76.7702 115.957 77.1307 115.565 77.3956C115.187 77.6605 114.801 77.8665 114.409 78.0136C114.016 78.1461 113.645 78.2344 113.296 78.2785C112.947 78.308 112.657 78.3227 112.424 78.3227H108.977ZM106.905 64.3281V80.0886H112.249C113.544 80.0886 114.663 79.9046 115.608 79.5367C116.554 79.1688 117.332 78.6391 117.942 77.9474C118.553 77.2411 119.004 76.3802 119.295 75.3648C119.586 74.3347 119.731 73.1575 119.731 71.8331C119.731 69.302 119.084 67.4184 117.79 66.1822C116.496 64.9461 114.649 64.3281 112.249 64.3281H106.905Z" fill="#70788C"/>
<path d="M123.311 74.3936C123.311 73.702 123.398 73.0913 123.572 72.5615C123.761 72.017 124.016 71.5608 124.336 71.1929C124.656 70.825 125.026 70.5454 125.448 70.3541C125.884 70.1628 126.342 70.0672 126.822 70.0672C127.302 70.0672 127.753 70.1628 128.175 70.3541C128.611 70.5454 128.989 70.825 129.309 71.1929C129.629 71.5608 129.876 72.017 130.051 72.5615C130.24 73.0913 130.334 73.702 130.334 74.3936C130.334 75.0852 130.24 75.7033 130.051 76.2478C129.876 76.7775 129.629 77.2264 129.309 77.5942C128.989 77.9474 128.611 78.2197 128.175 78.411C127.753 78.6023 127.302 78.6979 126.822 78.6979C126.342 78.6979 125.884 78.6023 125.448 78.411C125.026 78.2197 124.656 77.9474 124.336 77.5942C124.016 77.2264 123.761 76.7775 123.572 76.2478C123.398 75.7033 123.311 75.0852 123.311 74.3936ZM121.347 74.3936C121.347 75.2324 121.464 76.0123 121.696 76.7334C121.929 77.4544 122.278 78.0872 122.743 78.6317C123.209 79.1615 123.783 79.5809 124.467 79.8899C125.15 80.1842 125.935 80.3314 126.822 80.3314C127.724 80.3314 128.509 80.1842 129.178 79.8899C129.862 79.5809 130.436 79.1615 130.901 78.6317C131.367 78.0872 131.716 77.4544 131.948 76.7334C132.181 76.0123 132.297 75.2324 132.297 74.3936C132.297 73.5548 132.181 72.7749 131.948 72.0538C131.716 71.318 131.367 70.6852 130.901 70.1555C130.436 69.611 129.862 69.1842 129.178 68.8752C128.509 68.5662 127.724 68.4117 126.822 68.4117C125.935 68.4117 125.15 68.5662 124.467 68.8752C123.783 69.1842 123.209 69.611 122.743 70.1555C122.278 70.6852 121.929 71.318 121.696 72.0538C121.464 72.7749 121.347 73.5548 121.347 74.3936Z" fill="#70788C"/>
<path d="M142.139 72.3408H144.059C143.986 71.6638 143.812 71.0826 143.535 70.5969C143.259 70.0966 142.903 69.6846 142.467 69.3608C142.045 69.0371 141.551 68.8016 140.983 68.6545C140.431 68.4926 139.835 68.4117 139.195 68.4117C138.308 68.4117 137.53 68.5735 136.861 68.8973C136.192 69.2063 135.632 69.6404 135.181 70.1996C134.745 70.7441 134.418 71.3916 134.2 72.1421C133.982 72.8779 133.873 73.6725 133.873 74.526C133.873 75.3795 133.982 76.1668 134.2 76.8879C134.432 77.5942 134.767 78.2049 135.203 78.72C135.654 79.235 136.206 79.6324 136.861 79.912C137.53 80.1916 138.293 80.3314 139.151 80.3314C140.591 80.3314 141.725 79.9487 142.554 79.1835C143.397 78.4183 143.921 77.3294 144.124 75.9167H142.227C142.11 76.7996 141.79 77.4839 141.267 77.9695C140.758 78.4551 140.045 78.6979 139.129 78.6979C138.548 78.6979 138.046 78.5802 137.624 78.3447C137.203 78.1093 136.861 77.8003 136.599 77.4177C136.337 77.0203 136.141 76.5715 136.01 76.0712C135.894 75.5708 135.836 75.0558 135.836 74.526C135.836 73.9521 135.894 73.4003 136.01 72.8705C136.127 72.326 136.316 71.8478 136.577 71.4357C136.854 71.0237 137.217 70.6926 137.668 70.4424C138.119 70.1923 138.679 70.0672 139.347 70.0672C140.133 70.0672 140.758 70.2658 141.223 70.6632C141.689 71.0605 141.994 71.6197 142.139 72.3408Z" fill="#70788C"/>
<defs>
<filter id="filter0_dd" x="0.225586" y="0.221558" width="263.391" height="319.533" filterUnits="userSpaceOnUse" color-interpolation-filters="sRGB">
<feFlood flood-opacity="0" result="BackgroundImageFix"/>
<feColorMatrix in="SourceAlpha" type="matrix" values="0 0 0 0 0 0 0 0 0 0 0 0 0 0 0 0 0 0 127 0"/>
<feOffset dy="2"/>
<feGaussianBlur stdDeviation="4.5"/>
<feColorMatrix type="matrix" values="0 0 0 0 0.523985 0 0 0 0 0.551093 0 0 0 0 0.605309 0 0 0 0.0960711 0"/>
<feBlend mode="normal" in2="BackgroundImageFix" result="effect1_dropShadow"/>
<feColorMatrix in="SourceAlpha" type="matrix" values="0 0 0 0 0 0 0 0 0 0 0 0 0 0 0 0 0 0 127 0"/>
<feOffset dy="1"/>
<feGaussianBlur stdDeviation="1.5"/>
<feColorMatrix type="matrix" values="0 0 0 0 0.883118 0 0 0 0 0.894921 0 0 0 0 0.918527 0 0 0 0.436198 0"/>
<feBlend mode="normal" in2="effect1_dropShadow" result="effect2_dropShadow"/>
<feBlend mode="normal" in="SourceGraphic" in2="effect2_dropShadow" result="shape"/>
</filter>
</defs>
</svg>
