<svg width="160" height="30" viewBox="0 0 160 30" fill="none" xmlns="http://www.w3.org/2000/svg">
<path d="M16.6743 1.98169V7.92702C16.6743 8.74707 17.3577 9.43044 18.1777 9.43044H24.1231C22.6196 6.28693 20.0912 3.69012 16.9477 2.11836L16.6743 1.98169Z" fill="#0492EB" fill-opacity="0.292884"/>
<path fill-rule="evenodd" clip-rule="evenodd" d="M15.9909 12.164H22.6879C24.0547 12.164 25.1481 13.2574 25.1481 14.6241V27.4032C25.1481 28.8383 23.9863 30 22.5513 30H2.59681C1.16173 30 0 28.8383 0 27.4032V2.59681C0 1.16173 1.16173 0 2.59681 0H11.549C12.9157 0 14.0091 1.09339 14.0091 2.46014V10.1822C14.0091 11.2756 14.8975 12.164 15.9909 12.164ZM4.78363 22.6879C4.78363 23.6446 20.3645 23.6446 20.3645 22.6879V21.6628C20.3645 20.7061 19.6128 19.9544 18.6561 19.9544C14.6242 20.4327 10.5239 20.4327 6.49205 19.9544C5.53534 19.9544 4.78363 20.7061 4.78363 21.6628V22.6879Z" fill="#0492EB"/>
<path fill-rule="evenodd" clip-rule="evenodd" d="M105.786 7.58543C105.786 6.15035 106.743 5.26196 108.246 5.26196C109.818 5.26196 110.775 6.21868 110.775 7.58543C110.775 9.0205 109.818 9.97722 108.246 9.97722C106.743 9.97722 105.786 9.08884 105.786 7.58543ZM40.4557 26.3099L40.7291 24.2598C41.6175 25.8315 43.0526 26.5832 44.8977 26.5832C48.8612 26.5832 51.5264 23.8497 51.5264 18.9978C51.5264 14.2825 49.1346 11.7541 45.2393 11.7541C43.3942 11.7541 41.9592 12.4374 41.0024 13.8725L41.0171 13.6528C41.0802 12.7108 41.1391 11.8319 41.1391 11.0707V5.39872H37.2439V26.3099H40.4557ZM55.0799 13.7358C53.7132 15.1025 53.0298 16.9476 53.0298 19.2711C53.0298 21.5945 53.7132 23.3713 54.8749 24.6014C56.105 25.8314 57.8134 26.5148 60.1369 26.5148C64.9888 26.5148 67.7223 23.713 67.7223 19.0661C67.7223 14.4875 65.1938 11.6857 60.6836 11.6857C58.2918 11.6857 56.3783 12.369 55.0799 13.7358ZM70.7975 21.4578V15.3758H68.8157V11.959H70.3191C70.5925 11.959 70.7291 11.8223 70.7975 11.549L71.2075 7.17538H74.761V11.959H78.5879V15.3758H74.761V20.7061C74.761 22.2095 75.3077 22.8929 76.3328 22.8929C76.9478 22.8929 77.4945 22.6879 77.9045 22.3462L78.9296 25.3531C78.1096 26.1731 76.8795 26.5831 75.3077 26.5831C72.4376 26.5831 70.7975 25.2164 70.7975 21.4578ZM85.2167 26.3098V17.631C85.7634 16.0592 86.6518 15.3075 87.9502 15.3075C89.4536 15.3075 90.2736 16.3325 90.2736 18.3827V26.3098H94.1688V17.5626C94.7155 16.0592 95.6039 15.3075 96.7657 15.3075C98.2691 15.3075 99.0891 16.3325 99.0891 18.3827V26.3098H102.984V17.4943C102.984 13.6674 101.276 11.754 97.9957 11.754C96.0139 11.754 94.5105 12.6423 93.4855 14.3508C92.8021 12.574 91.4354 11.754 89.3169 11.754C87.2668 11.754 85.8317 12.7107 84.9433 14.5558V13.5991V12.0273H81.3215V26.3098H85.2167ZM110.228 12.0273H106.333V26.2414H110.228V12.0273ZM117.813 17.631V26.2414H113.918V12.0273H117.54V13.5991V14.6241C118.36 12.7107 119.864 11.754 121.914 11.754C125.194 11.754 126.902 13.6674 126.902 17.4943V26.3098H123.007V18.5877C123.007 16.1959 122.187 15.3075 120.615 15.3075C119.317 15.3075 118.428 16.0592 117.813 17.631ZM140.059 24.7428C140.157 25.318 140.246 25.8361 140.296 26.2415V26.3099H143.645V5.39872H139.75V13.3942C138.861 12.3008 137.495 11.7541 135.718 11.7541C131.754 11.7541 129.157 14.6242 129.157 19.3395C129.157 24.0548 131.481 26.5832 135.444 26.5832C137.495 26.5832 138.998 25.7632 139.955 24.1231C139.99 24.3341 140.025 24.5407 140.059 24.7403L140.059 24.7428ZM155.125 16.6059C155.125 15.4442 154.305 14.6925 152.802 14.6925C151.504 14.6925 150.684 15.2392 150.684 15.9909C150.684 16.6059 151.094 17.0843 151.845 17.2893C151.972 17.3315 152.255 17.3999 152.647 17.4943C152.889 17.5527 153.172 17.621 153.485 17.6993C155.399 18.1777 156.629 18.5877 157.244 18.9294C158.406 19.6811 158.952 20.7745 159.021 22.2096C159.021 25.0797 156.561 26.5832 153.075 26.5832C148.77 26.5832 146.378 25.2164 146.378 21.7996L150.274 21.7312C150.547 23.1663 151.435 23.6447 152.939 23.6447C154.169 23.6447 155.057 23.098 155.057 22.1412C155.057 21.4579 154.442 20.9795 153.895 20.7745C153.622 20.7062 153.144 20.5695 152.46 20.3645C151.982 20.2961 151.64 20.2278 151.572 20.1595C151.504 20.1595 151.162 20.0911 150.752 19.9545C150.274 19.8861 149.932 19.7494 149.864 19.6811C149.784 19.6414 149.641 19.5844 149.472 19.5168L149.472 19.5167L149.471 19.5166C149.058 19.3515 148.486 19.1233 148.292 18.9294C148.231 18.8688 148.154 18.798 148.068 18.7195L148.067 18.7192L148.067 18.719C147.765 18.4434 147.358 18.0714 147.198 17.6993C146.993 17.221 146.788 16.6059 146.788 15.8542C146.788 13.3258 149.248 11.6857 152.87 11.6857C156.834 11.6857 159.021 13.3941 159.021 16.3326L155.125 16.6059ZM47.4944 19.1344C47.4944 21.8679 46.196 23.3713 44.2142 23.3713C42.3008 23.3713 41.0707 21.8679 41.0707 19.3394C41.0707 16.9476 42.2325 14.9658 44.3509 14.9658C46.2644 14.9658 47.4944 16.4692 47.4944 19.1344ZM60.4101 23.3713C62.3919 23.3713 63.6903 21.7312 63.6903 19.2027C63.6903 16.6059 62.5286 14.9658 60.6152 14.9658C58.565 14.9658 57.2666 16.5376 57.2666 19.2027C57.1983 21.7995 58.36 23.3713 60.4101 23.3713ZM133.257 19.1344C133.257 16.5376 134.556 14.9658 136.538 14.9658C138.451 14.9658 139.681 16.4692 139.681 18.9294C139.681 21.3895 138.519 23.3029 136.401 23.3029C134.488 23.3029 133.257 21.7312 133.257 19.1344Z" fill="#2F363F"/>
</svg>
