<svg width="202" height="200" viewBox="0 0 202 200" fill="none" xmlns="http://www.w3.org/2000/svg">
<path d="M12.1268 107.528C8.99853 107.528 6.4624 105.013 6.4624 101.912V75.7143C6.4624 54.9679 23.4864 38.0894 44.4121 38.0894H162.42C165.548 38.0894 168.084 40.6042 168.084 43.7054C168.084 46.8065 165.548 49.3214 162.42 49.3214H44.4121C29.7332 49.3214 17.7913 61.1612 17.7913 75.714V101.912C17.7913 105.013 15.2555 107.528 12.1268 107.528Z" fill="#0492EB"/>
<path d="M134.61 67.8074C144.895 52.2117 143.132 31.093 129.316 17.3949C113.475 1.68948 87.792 1.68948 71.9512 17.3949C58.135 31.093 56.3727 52.2117 66.6571 67.8074H134.61Z" fill="#91CFFA"/>
<path d="M134.61 73.4234H66.6576C64.746 73.4234 62.9628 72.4672 61.9163 70.8809C50.0225 52.8445 52.5582 28.6797 67.9464 13.4234C76.6769 4.7668 88.2858 0 100.634 0C112.981 0 124.59 4.76758 133.322 13.4234C148.709 28.6793 151.246 52.8437 139.352 70.8805C138.305 72.4668 136.522 73.4234 134.61 73.4234ZM69.8754 62.1914H131.392C138.574 48.9207 136.218 32.1801 125.31 21.3664C118.719 14.8309 109.955 11.232 100.634 11.232C91.3121 11.232 82.5481 14.8309 75.9566 21.3664C65.0493 32.1801 62.6937 48.9203 69.8754 62.1914Z" fill="#0492EB"/>
<path d="M99.841 62.8293C94.0643 62.6871 89.7197 59.6105 89.7197 56.9598C89.7197 55.6344 90.9131 53.6469 92.3934 53.6469C94.2077 53.6469 95.6399 56.7234 99.841 57.1969V47.7777C95.4964 46.1684 90.579 44.3227 90.579 38.2641C90.579 32.2527 95.067 29.6496 99.841 29.034V27.7086C99.841 27.093 100.557 26.5254 101.464 26.5254C102.276 26.5254 103.087 27.0934 103.087 27.7086V28.9391C106.19 29.0336 111.251 29.9332 111.251 32.6781C111.251 33.7664 110.487 35.9437 108.72 35.9437C107.384 35.9437 106.286 34.4289 103.087 34.1926V42.523C107.336 44.0848 112.11 46.2152 112.11 52.6523C112.11 58.4746 108.434 61.8352 103.087 62.6871V64.1547C103.087 64.7703 102.275 65.3379 101.464 65.3379C100.557 65.3379 99.841 64.7695 99.841 64.1547V62.8293ZM100.223 41.482V34.3348C97.836 34.7133 96.4042 35.8496 96.4042 37.6484C96.4034 39.7309 98.0271 40.6301 100.223 41.482ZM102.705 48.9133V57.1492C104.806 56.723 106.286 55.4926 106.286 53.268C106.286 50.9484 104.758 49.8129 102.705 48.9133Z" fill="#0492EB"/>
<path d="M163.717 200H44.4121C23.4868 200 6.4624 183.122 6.4624 162.375V99.9962C6.4624 79.2497 23.4864 62.3708 44.4121 62.3708H163.718C174.666 62.3708 183.574 71.202 183.574 82.0575V114.699C183.574 117.8 181.037 120.315 177.909 120.315C174.781 120.315 172.245 117.8 172.245 114.699V82.0575C172.245 77.3958 168.42 73.6032 163.718 73.6032H44.4121C29.7332 73.6032 17.7913 85.443 17.7913 99.9966V162.375C17.7913 176.928 29.7332 188.768 44.4121 188.768H163.718C168.42 188.768 172.245 184.975 172.245 180.314V174.982C172.245 171.881 174.781 169.366 177.909 169.366C181.037 169.366 183.574 171.881 183.574 174.982V180.314C183.573 191.169 174.666 200 163.717 200Z" fill="#0492EB"/>
<path d="M189.597 151.2H144.478C132.56 151.2 122.899 141.621 122.899 129.806C122.899 117.99 132.56 108.411 144.478 108.411H189.597V151.2Z" fill="#91CFFA"/>
<path d="M189.597 156.816H144.479C129.456 156.816 117.235 144.7 117.235 129.806C117.235 114.912 129.456 102.795 144.479 102.795H189.597C192.725 102.795 195.261 105.31 195.261 108.411V151.2C195.261 154.302 192.725 156.816 189.597 156.816ZM144.479 114.027C135.703 114.027 128.564 121.106 128.564 129.806C128.564 138.506 135.703 145.584 144.479 145.584H183.932V114.028H144.479V114.027Z" fill="#0492EB"/>
</svg>
