<svg width="419" height="336" viewBox="0 0 419 336" fill="none" xmlns="http://www.w3.org/2000/svg">
<path d="M335.329 334.977L284.342 283.399C304.297 262.762 310.807 247.808 313.819 214.897L383.926 214.897C382.082 263.706 374.382 290.327 335.329 334.977Z" fill="#5292DE"/>
<path fill-rule="evenodd" clip-rule="evenodd" d="M274.778 273.729L284.338 283.4C304.405 262.712 311.142 247.57 313.815 214.898L298.412 215.435C297.468 226.275 295.987 234.78 293.505 242.339L283.838 242.926L289.979 251.125C286.422 258.545 281.537 265.534 274.778 273.729Z" fill="#3F73B4"/>
<path d="M383.221 210.287H311.114C310.799 181.421 304.949 166.189 284.074 140.764L333.648 90.6162C366.462 126.448 379.624 150.78 383.221 210.287Z" fill="#A8B3BF"/>
<path fill-rule="evenodd" clip-rule="evenodd" d="M297.594 210.287H311.114C310.842 181.304 305.021 165.779 284.074 140.764L273.558 152.162C280.468 160.502 285.366 167.576 288.894 174.696L282.469 182.025L292.542 183.431C295.213 191.222 296.645 199.657 297.594 210.287Z" fill="#919DA9"/>
<path d="M330.348 84.8185L279.361 136.396C258.96 116.21 244.177 109.624 211.644 106.578V35.6583C259.893 37.5233 286.209 45.313 330.348 84.8185Z" fill="#061E63"/>
<path fill-rule="evenodd" clip-rule="evenodd" d="M269.801 146.067L279.361 136.396C258.91 116.096 243.941 109.282 211.644 106.578L212.175 122.159C222.89 123.114 231.298 124.612 238.77 127.122L239.35 136.902L247.456 130.69C254.791 134.288 261.699 139.229 269.801 146.067Z" fill="#000B54"/>
<path d="M206.333 35.9098L206.333 108.852C177.798 109.171 162.741 115.088 137.607 136.205L88.0339 86.0575C123.455 52.8632 147.508 39.5477 206.333 35.9098Z" fill="#F2CE81"/>
<path fill-rule="evenodd" clip-rule="evenodd" d="M206.335 122.529V108.852C177.685 109.127 162.337 115.015 137.609 136.205L148.876 146.843C157.121 139.853 164.113 134.899 171.151 131.329L178.398 137.829L179.787 127.639C187.489 124.936 195.827 123.489 206.335 122.529Z" fill="#D9B659"/>
<path d="M84.5562 90.6165L135.543 142.194C115.588 162.831 109.078 177.786 106.066 210.696L35.9592 210.696C37.8029 161.887 45.5033 135.267 84.5562 90.6165Z" fill="#E397AC"/>
<path fill-rule="evenodd" clip-rule="evenodd" d="M145.103 151.865L135.543 142.194C115.476 162.883 108.739 178.024 106.066 210.696L121.468 210.159C122.413 199.319 123.894 190.814 126.375 183.255L136.043 182.669L129.902 174.469C133.459 167.049 138.344 160.061 145.103 151.865Z" fill="#C57A91"/>
<path d="M35.458 215.226H107.564C107.88 244.093 113.729 259.324 134.604 284.749L85.0312 334.897C52.2172 299.065 39.0542 274.733 35.458 215.226Z" fill="#5292DE"/>
<path fill-rule="evenodd" clip-rule="evenodd" d="M121.085 215.226H107.565C107.836 244.209 113.657 259.735 134.605 284.749L145.12 273.352C138.211 265.011 133.313 257.938 129.784 250.818L136.209 243.488L126.137 242.083C123.465 234.292 122.034 225.856 121.085 215.226Z" fill="#3F73B4"/>
<path d="M217.162 182.254V197.312C217.162 199.389 218.873 201.12 220.926 201.12H235.812C232.047 193.158 225.717 186.581 217.846 182.6L217.162 182.254Z" fill="#0492EB" fill-opacity="0.292884"/>
<path fill-rule="evenodd" clip-rule="evenodd" d="M215.449 208.043H232.217C235.639 208.043 238.376 210.812 238.376 214.274V246.64C238.376 250.274 235.467 253.217 231.874 253.217H181.915C178.322 253.217 175.413 250.274 175.413 246.64V183.812C175.413 180.177 178.322 177.235 181.915 177.235H204.328C207.75 177.235 210.488 180.004 210.488 183.466V203.024C210.488 205.793 212.712 208.043 215.449 208.043ZM187.39 234.697C187.39 237.12 226.4 237.12 226.4 234.697V232.101C226.4 229.678 224.518 227.774 222.122 227.774C212.028 228.985 201.762 228.985 191.667 227.774C189.272 227.774 187.39 229.678 187.39 232.101V234.697Z" fill="#0492EB"/>
<path d="M167.491 302.86V298.32H171.291C171.705 298.32 172.091 298.347 172.451 298.4C172.825 298.44 173.151 298.54 173.431 298.7C173.711 298.86 173.931 299.087 174.091 299.38C174.251 299.673 174.331 300.073 174.331 300.58C174.331 301.34 174.091 301.913 173.611 302.3C173.145 302.673 172.371 302.86 171.291 302.86H167.491ZM165.591 296.72V311H172.491C173.198 311 173.818 310.887 174.351 310.66C174.898 310.42 175.351 310.113 175.711 309.74C176.085 309.353 176.365 308.913 176.551 308.42C176.738 307.927 176.831 307.42 176.831 306.9C176.831 306.02 176.598 305.273 176.131 304.66C175.665 304.047 174.991 303.647 174.111 303.46V303.42C174.791 303.153 175.311 302.747 175.671 302.2C176.045 301.64 176.231 300.98 176.231 300.22C176.231 299.5 176.065 298.893 175.731 298.4C175.411 297.907 175.018 297.52 174.551 297.24C174.338 297.107 174.078 297.007 173.771 296.94C173.478 296.873 173.158 296.827 172.811 296.8C172.465 296.76 172.111 296.74 171.751 296.74C171.405 296.727 171.078 296.72 170.771 296.72H165.591ZM167.491 309.4V304.46H171.831C172.231 304.46 172.618 304.5 172.991 304.58C173.365 304.647 173.691 304.773 173.971 304.96C174.265 305.133 174.498 305.373 174.671 305.68C174.845 305.987 174.931 306.373 174.931 306.84C174.931 307.64 174.691 308.267 174.211 308.72C173.745 309.173 173.091 309.4 172.251 309.4H167.491ZM180.243 305.84C180.243 305.213 180.323 304.66 180.483 304.18C180.656 303.687 180.889 303.273 181.183 302.94C181.476 302.607 181.816 302.353 182.203 302.18C182.603 302.007 183.023 301.92 183.463 301.92C183.903 301.92 184.316 302.007 184.703 302.18C185.103 302.353 185.449 302.607 185.743 302.94C186.036 303.273 186.263 303.687 186.423 304.18C186.596 304.66 186.683 305.213 186.683 305.84C186.683 306.467 186.596 307.027 186.423 307.52C186.263 308 186.036 308.407 185.743 308.74C185.449 309.06 185.103 309.307 184.703 309.48C184.316 309.653 183.903 309.74 183.463 309.74C183.023 309.74 182.603 309.653 182.203 309.48C181.816 309.307 181.476 309.06 181.183 308.74C180.889 308.407 180.656 308 180.483 307.52C180.323 307.027 180.243 306.467 180.243 305.84ZM178.443 305.84C178.443 306.6 178.549 307.307 178.763 307.96C178.976 308.613 179.296 309.187 179.723 309.68C180.149 310.16 180.676 310.54 181.303 310.82C181.929 311.087 182.649 311.22 183.463 311.22C184.289 311.22 185.009 311.087 185.623 310.82C186.249 310.54 186.776 310.16 187.203 309.68C187.629 309.187 187.949 308.613 188.163 307.96C188.376 307.307 188.483 306.6 188.483 305.84C188.483 305.08 188.376 304.373 188.163 303.72C187.949 303.053 187.629 302.48 187.203 302C186.776 301.507 186.249 301.12 185.623 300.84C185.009 300.56 184.289 300.42 183.463 300.42C182.649 300.42 181.929 300.56 181.303 300.84C180.676 301.12 180.149 301.507 179.723 302C179.296 302.48 178.976 303.053 178.763 303.72C178.549 304.373 178.443 305.08 178.443 305.84ZM192.847 300.66V297.56H191.147V300.66H189.387V302.16H191.147V308.74C191.147 309.22 191.194 309.607 191.287 309.9C191.38 310.193 191.52 310.42 191.707 310.58C191.907 310.74 192.16 310.853 192.467 310.92C192.787 310.973 193.167 311 193.607 311H194.907V309.5H194.127C193.86 309.5 193.64 309.493 193.467 309.48C193.307 309.453 193.18 309.407 193.087 309.34C192.994 309.273 192.927 309.18 192.887 309.06C192.86 308.94 192.847 308.78 192.847 308.58V302.16H194.907V300.66H192.847ZM196.796 300.66V311H198.496V304.56C198.496 304.36 198.542 304.113 198.636 303.82C198.742 303.513 198.902 303.22 199.116 302.94C199.342 302.66 199.629 302.42 199.976 302.22C200.336 302.02 200.762 301.92 201.256 301.92C201.642 301.92 201.956 301.98 202.196 302.1C202.449 302.207 202.649 302.367 202.796 302.58C202.942 302.78 203.042 303.02 203.096 303.3C203.162 303.58 203.196 303.887 203.196 304.22V311H204.896V304.56C204.896 303.76 205.136 303.12 205.616 302.64C206.096 302.16 206.756 301.92 207.596 301.92C208.009 301.92 208.342 301.98 208.596 302.1C208.862 302.22 209.069 302.387 209.216 302.6C209.362 302.8 209.462 303.04 209.516 303.32C209.569 303.6 209.596 303.9 209.596 304.22V311H211.296V303.42C211.296 302.887 211.209 302.433 211.036 302.06C210.876 301.673 210.642 301.36 210.336 301.12C210.042 300.88 209.682 300.707 209.256 300.6C208.842 300.48 208.376 300.42 207.856 300.42C207.176 300.42 206.549 300.573 205.976 300.88C205.416 301.187 204.962 301.62 204.616 302.18C204.402 301.54 204.036 301.087 203.516 300.82C202.996 300.553 202.416 300.42 201.776 300.42C200.322 300.42 199.209 301.007 198.436 302.18H198.396V300.66H196.796ZM215.646 298.8V296.72H213.946V298.8H215.646ZM213.946 300.66V311H215.646V300.66H213.946ZM218.28 300.66V311H219.98V305.16C219.98 304.693 220.04 304.267 220.16 303.88C220.293 303.48 220.487 303.133 220.74 302.84C220.993 302.547 221.307 302.32 221.68 302.16C222.067 302 222.52 301.92 223.04 301.92C223.693 301.92 224.207 302.107 224.58 302.48C224.953 302.853 225.14 303.36 225.14 304V311H226.84V304.2C226.84 303.64 226.78 303.133 226.66 302.68C226.553 302.213 226.36 301.813 226.08 301.48C225.8 301.147 225.433 300.887 224.98 300.7C224.527 300.513 223.96 300.42 223.28 300.42C221.747 300.42 220.627 301.047 219.92 302.3H219.88V300.66H218.28ZM230.633 305.92C230.633 305.413 230.687 304.92 230.793 304.44C230.9 303.96 231.073 303.533 231.313 303.16C231.553 302.787 231.873 302.487 232.273 302.26C232.673 302.033 233.16 301.92 233.733 301.92C234.32 301.92 234.82 302.033 235.233 302.26C235.647 302.473 235.98 302.76 236.233 303.12C236.5 303.48 236.693 303.9 236.813 304.38C236.933 304.847 236.993 305.333 236.993 305.84C236.993 306.32 236.933 306.793 236.813 307.26C236.707 307.727 236.527 308.147 236.273 308.52C236.02 308.88 235.693 309.173 235.293 309.4C234.893 309.627 234.407 309.74 233.833 309.74C233.287 309.74 232.807 309.633 232.393 309.42C231.993 309.207 231.66 308.92 231.393 308.56C231.14 308.2 230.947 307.793 230.813 307.34C230.693 306.873 230.633 306.4 230.633 305.92ZM238.633 311V296.72H236.933V302.04H236.893C236.707 301.733 236.473 301.48 236.193 301.28C235.927 301.067 235.64 300.9 235.333 300.78C235.027 300.647 234.72 300.553 234.413 300.5C234.107 300.447 233.82 300.42 233.553 300.42C232.767 300.42 232.073 300.567 231.473 300.86C230.887 301.14 230.393 301.527 229.993 302.02C229.607 302.5 229.313 303.067 229.113 303.72C228.927 304.373 228.833 305.067 228.833 305.8C228.833 306.533 228.933 307.227 229.133 307.88C229.333 308.533 229.627 309.107 230.013 309.6C230.413 310.093 230.907 310.487 231.493 310.78C232.093 311.073 232.793 311.22 233.593 311.22C234.313 311.22 234.973 311.093 235.573 310.84C236.173 310.587 236.613 310.173 236.893 309.6H236.933V311H238.633ZM242.289 307.74H240.589C240.615 308.38 240.749 308.927 240.989 309.38C241.229 309.82 241.549 310.18 241.949 310.46C242.349 310.727 242.809 310.92 243.329 311.04C243.849 311.16 244.395 311.22 244.969 311.22C245.489 311.22 246.009 311.167 246.529 311.06C247.062 310.967 247.535 310.793 247.949 310.54C248.375 310.287 248.715 309.953 248.969 309.54C249.235 309.127 249.369 308.607 249.369 307.98C249.369 307.487 249.269 307.073 249.069 306.74C248.882 306.407 248.629 306.133 248.309 305.92C248.002 305.693 247.642 305.513 247.229 305.38C246.829 305.247 246.415 305.133 245.989 305.04C245.589 304.947 245.189 304.86 244.789 304.78C244.389 304.687 244.029 304.58 243.709 304.46C243.389 304.327 243.122 304.167 242.909 303.98C242.709 303.78 242.609 303.533 242.609 303.24C242.609 302.973 242.675 302.76 242.809 302.6C242.942 302.427 243.115 302.293 243.329 302.2C243.542 302.093 243.775 302.02 244.029 301.98C244.295 301.94 244.555 301.92 244.809 301.92C245.089 301.92 245.362 301.953 245.629 302.02C245.909 302.073 246.162 302.167 246.389 302.3C246.615 302.433 246.802 302.613 246.949 302.84C247.095 303.053 247.182 303.327 247.209 303.66H248.909C248.869 303.033 248.735 302.513 248.509 302.1C248.282 301.673 247.975 301.34 247.589 301.1C247.215 300.847 246.782 300.673 246.289 300.58C245.795 300.473 245.255 300.42 244.669 300.42C244.215 300.42 243.755 300.48 243.289 300.6C242.835 300.707 242.422 300.88 242.049 301.12C241.689 301.347 241.389 301.647 241.149 302.02C240.922 302.393 240.809 302.84 240.809 303.36C240.809 304.027 240.975 304.547 241.309 304.92C241.642 305.293 242.055 305.587 242.549 305.8C243.055 306 243.602 306.16 244.189 306.28C244.775 306.387 245.315 306.513 245.809 306.66C246.315 306.793 246.735 306.973 247.069 307.2C247.402 307.427 247.569 307.76 247.569 308.2C247.569 308.52 247.489 308.787 247.329 309C247.169 309.2 246.962 309.353 246.709 309.46C246.469 309.567 246.202 309.64 245.909 309.68C245.615 309.72 245.335 309.74 245.069 309.74C244.722 309.74 244.382 309.707 244.049 309.64C243.729 309.573 243.435 309.467 243.169 309.32C242.915 309.16 242.709 308.953 242.549 308.7C242.389 308.433 242.302 308.113 242.289 307.74ZM172.677 327.56V322.32H176.397C177.477 322.32 178.263 322.547 178.757 323C179.263 323.44 179.517 324.087 179.517 324.94C179.517 325.793 179.263 326.447 178.757 326.9C178.263 327.353 177.477 327.573 176.397 327.56H172.677ZM170.777 320.72V335H172.677V329.16H177.037C178.477 329.173 179.563 328.807 180.297 328.06C181.043 327.313 181.417 326.273 181.417 324.94C181.417 323.607 181.043 322.573 180.297 321.84C179.563 321.093 178.477 320.72 177.037 320.72H170.777ZM183.566 320.72V335H185.266V320.72H183.566ZM197.059 334.96C196.766 335.133 196.359 335.22 195.839 335.22C195.399 335.22 195.046 335.1 194.779 334.86C194.526 334.607 194.399 334.2 194.399 333.64C193.932 334.2 193.386 334.607 192.759 334.86C192.146 335.1 191.479 335.22 190.759 335.22C190.292 335.22 189.846 335.167 189.419 335.06C189.006 334.953 188.646 334.787 188.339 334.56C188.032 334.333 187.786 334.04 187.599 333.68C187.426 333.307 187.339 332.86 187.339 332.34C187.339 331.753 187.439 331.273 187.639 330.9C187.839 330.527 188.099 330.227 188.419 330C188.752 329.76 189.126 329.58 189.539 329.46C189.966 329.34 190.399 329.24 190.839 329.16C191.306 329.067 191.746 329 192.159 328.96C192.586 328.907 192.959 328.84 193.279 328.76C193.599 328.667 193.852 328.54 194.039 328.38C194.226 328.207 194.319 327.96 194.319 327.64C194.319 327.267 194.246 326.967 194.099 326.74C193.966 326.513 193.786 326.34 193.559 326.22C193.346 326.1 193.099 326.02 192.819 325.98C192.552 325.94 192.286 325.92 192.019 325.92C191.299 325.92 190.699 326.06 190.219 326.34C189.739 326.607 189.479 327.12 189.439 327.88H187.739C187.766 327.24 187.899 326.7 188.139 326.26C188.379 325.82 188.699 325.467 189.099 325.2C189.499 324.92 189.952 324.72 190.459 324.6C190.979 324.48 191.532 324.42 192.119 324.42C192.586 324.42 193.046 324.453 193.499 324.52C193.966 324.587 194.386 324.727 194.759 324.94C195.132 325.14 195.432 325.427 195.659 325.8C195.886 326.173 195.999 326.66 195.999 327.26V332.58C195.999 332.98 196.019 333.273 196.059 333.46C196.112 333.647 196.272 333.74 196.539 333.74C196.686 333.74 196.859 333.707 197.059 333.64V334.96ZM194.299 329.66C194.086 329.82 193.806 329.94 193.459 330.02C193.112 330.087 192.746 330.147 192.359 330.2C191.986 330.24 191.606 330.293 191.219 330.36C190.832 330.413 190.486 330.507 190.179 330.64C189.872 330.773 189.619 330.967 189.419 331.22C189.232 331.46 189.139 331.793 189.139 332.22C189.139 332.5 189.192 332.74 189.299 332.94C189.419 333.127 189.566 333.28 189.739 333.4C189.926 333.52 190.139 333.607 190.379 333.66C190.619 333.713 190.872 333.74 191.139 333.74C191.699 333.74 192.179 333.667 192.579 333.52C192.979 333.36 193.306 333.167 193.559 332.94C193.812 332.7 193.999 332.447 194.119 332.18C194.239 331.9 194.299 331.64 194.299 331.4V329.66ZM201.001 324.66V321.56H199.301V324.66H197.541V326.16H199.301V332.74C199.301 333.22 199.348 333.607 199.441 333.9C199.535 334.193 199.675 334.42 199.861 334.58C200.061 334.74 200.315 334.853 200.621 334.92C200.941 334.973 201.321 335 201.761 335H203.061V333.5H202.281C202.015 333.5 201.795 333.493 201.621 333.48C201.461 333.453 201.335 333.407 201.241 333.34C201.148 333.273 201.081 333.18 201.041 333.06C201.015 332.94 201.001 332.78 201.001 332.58V326.16H203.061V324.66H201.001ZM205.65 326.16V335H207.35V326.16H209.35V324.66H207.35V323.22C207.35 322.767 207.463 322.46 207.69 322.3C207.917 322.14 208.237 322.06 208.65 322.06C208.797 322.06 208.957 322.073 209.13 322.1C209.303 322.113 209.463 322.147 209.61 322.2V320.72C209.45 320.667 209.263 320.627 209.05 320.6C208.85 320.573 208.67 320.56 208.51 320.56C207.577 320.56 206.863 320.78 206.37 321.22C205.89 321.647 205.65 322.28 205.65 323.12V324.66H203.91V326.16H205.65ZM212.108 329.84C212.108 329.213 212.188 328.66 212.348 328.18C212.521 327.687 212.755 327.273 213.048 326.94C213.341 326.607 213.681 326.353 214.068 326.18C214.468 326.007 214.888 325.92 215.328 325.92C215.768 325.92 216.181 326.007 216.568 326.18C216.968 326.353 217.315 326.607 217.608 326.94C217.901 327.273 218.128 327.687 218.288 328.18C218.461 328.66 218.548 329.213 218.548 329.84C218.548 330.467 218.461 331.027 218.288 331.52C218.128 332 217.901 332.407 217.608 332.74C217.315 333.06 216.968 333.307 216.568 333.48C216.181 333.653 215.768 333.74 215.328 333.74C214.888 333.74 214.468 333.653 214.068 333.48C213.681 333.307 213.341 333.06 213.048 332.74C212.755 332.407 212.521 332 212.348 331.52C212.188 331.027 212.108 330.467 212.108 329.84ZM210.308 329.84C210.308 330.6 210.415 331.307 210.628 331.96C210.841 332.613 211.161 333.187 211.588 333.68C212.015 334.16 212.541 334.54 213.168 334.82C213.795 335.087 214.515 335.22 215.328 335.22C216.155 335.22 216.875 335.087 217.488 334.82C218.115 334.54 218.641 334.16 219.068 333.68C219.495 333.187 219.815 332.613 220.028 331.96C220.241 331.307 220.348 330.6 220.348 329.84C220.348 329.08 220.241 328.373 220.028 327.72C219.815 327.053 219.495 326.48 219.068 326C218.641 325.507 218.115 325.12 217.488 324.84C216.875 324.56 216.155 324.42 215.328 324.42C214.515 324.42 213.795 324.56 213.168 324.84C212.541 325.12 212.015 325.507 211.588 326C211.161 326.48 210.841 327.053 210.628 327.72C210.415 328.373 210.308 329.08 210.308 329.84ZM222.292 324.66V335H223.992V330.4C223.992 329.733 224.059 329.147 224.192 328.64C224.326 328.12 224.539 327.68 224.832 327.32C225.126 326.96 225.512 326.687 225.992 326.5C226.472 326.313 227.052 326.22 227.732 326.22V324.42C226.812 324.393 226.052 324.58 225.452 324.98C224.852 325.38 224.346 326 223.932 326.84H223.892V324.66H222.292ZM229.012 324.66V335H230.712V328.56C230.712 328.36 230.759 328.113 230.852 327.82C230.959 327.513 231.119 327.22 231.332 326.94C231.559 326.66 231.846 326.42 232.192 326.22C232.552 326.02 232.979 325.92 233.472 325.92C233.859 325.92 234.172 325.98 234.412 326.1C234.666 326.207 234.866 326.367 235.012 326.58C235.159 326.78 235.259 327.02 235.312 327.3C235.379 327.58 235.412 327.887 235.412 328.22V335H237.112V328.56C237.112 327.76 237.352 327.12 237.832 326.64C238.312 326.16 238.972 325.92 239.812 325.92C240.226 325.92 240.559 325.98 240.812 326.1C241.079 326.22 241.286 326.387 241.432 326.6C241.579 326.8 241.679 327.04 241.732 327.32C241.786 327.6 241.812 327.9 241.812 328.22V335H243.512V327.42C243.512 326.887 243.426 326.433 243.252 326.06C243.092 325.673 242.859 325.36 242.552 325.12C242.259 324.88 241.899 324.707 241.472 324.6C241.059 324.48 240.592 324.42 240.072 324.42C239.392 324.42 238.766 324.573 238.192 324.88C237.632 325.187 237.179 325.62 236.832 326.18C236.619 325.54 236.252 325.087 235.732 324.82C235.212 324.553 234.632 324.42 233.992 324.42C232.539 324.42 231.426 325.007 230.652 326.18H230.612V324.66H229.012Z" fill="#0492EB"/>
</svg>
