<svg width="271" height="50" viewBox="0 0 271 50" fill="none" xmlns="http://www.w3.org/2000/svg">
<path fill-rule="evenodd" clip-rule="evenodd" d="M21.7694 46.5742L32.4372 28.0572H25.2386L28.8379 21.856H45.7503L42.151 28.1006H36.0365L25.2386 46.8777C37.2507 46.8777 47.138 37.0338 47.138 24.9783C47.138 13.0095 37.2941 3.16565 25.2386 3.16565C24.3713 3.16565 23.4606 3.20901 22.68 3.33911L11.9255 21.9428H25.2386L21.5959 28.0572H4.6835L18.4736 4.20641C9.71385 7.02514 3.38254 15.3079 3.38254 24.935C3.38254 35.8196 11.3617 44.8829 21.7694 46.5742ZM25.2386 0C38.9853 0 50.2169 11.2316 50.2169 24.9783C50.2169 38.7684 38.942 50 25.2386 50C11.4485 50 0.260254 38.7684 0.260254 24.9783C0.260254 11.1882 11.4485 0 25.2386 0Z" fill="#424242"/>
<path d="M256.809 24.9349C257.459 21.9861 259.54 18.9939 262.966 18.9939C266.436 18.9939 267.173 21.9861 266.566 24.9349C265.915 27.9271 263.92 30.9627 260.408 30.9627C256.809 30.9627 256.158 27.9271 256.809 24.9349ZM253.209 24.9349C252.082 30.0087 254.25 33.608 259.801 33.608C265.265 33.608 269.081 29.9653 270.165 24.9349C271.249 19.9046 268.951 16.3486 263.53 16.3486C258.023 16.3486 254.293 19.8179 253.209 24.9349ZM238.248 33.3044H241.717L243.235 26.4094H244.363C245.837 26.4094 246.184 26.8864 246.401 28.144L247.355 33.3478H251.214L249.827 26.843C249.653 26.1058 249.306 25.1951 248.352 25.1518V25.1084C250.607 24.8048 252.342 23.2003 252.776 21.2489C253.773 16.6088 249.306 16.7389 245.577 16.7389H241.804L238.248 33.3044ZM244.753 19.2541H245.88C247.615 19.2541 249.523 19.4276 249.09 21.4224C248.612 23.5039 246.618 23.7207 244.926 23.7207H243.799L244.753 19.2541ZM223.851 33.3044H229.922C232.09 33.3044 236.167 32.6973 237.077 28.4909C237.511 26.4527 236.21 24.8916 233.912 24.7181V24.6747C236.037 24.3278 237.728 22.9401 238.162 20.9453C238.942 17.3027 235.733 16.6956 233.521 16.6956H227.45L223.851 33.3044ZM230.399 19.2541H231.743C233.348 19.2541 235.039 19.3842 234.649 21.3356C234.259 23.0269 232.394 23.3738 230.92 23.3738H229.488L230.399 19.2541ZM228.968 25.8456H230.616C232.351 25.8456 234.129 26.1925 233.652 28.3608C233.218 30.2688 231.18 30.6591 229.575 30.6591H227.927L228.968 25.8456ZM208.37 27.2767C207.416 31.7433 209.627 33.5646 214.094 33.5646C218.517 33.5646 221.553 31.7433 222.55 27.2767L224.848 16.6088H221.379L219.298 26.2359C218.691 29.0546 217.346 30.9627 214.658 30.9627C211.969 30.9627 211.449 29.098 212.099 26.2359L214.181 16.6088H210.711L208.37 27.2767ZM193.712 24.9349C194.363 21.9861 196.401 18.9939 199.827 18.9939C203.296 18.9939 204.076 21.9861 203.426 24.9349C202.776 27.9271 200.824 30.9627 197.268 30.9627C193.712 30.9627 193.018 27.9271 193.712 24.9349ZM190.07 24.9349C188.942 30.0087 191.11 33.608 196.661 33.608C202.125 33.608 205.941 29.9653 207.025 24.9349C208.109 19.9046 205.811 16.3486 200.39 16.3486C194.926 16.3486 191.197 19.8179 190.07 24.9349ZM180.92 33.3044H184.389L187.424 19.2975H192.411L192.975 16.6522H179.575L179.011 19.2975H183.998L180.92 33.3044ZM164.224 24.5447C166.349 23.5039 168.04 22.4198 168.517 20.1214C169.124 17.4328 166.782 16.3486 164.354 16.3486C161.926 16.3486 158.803 17.6062 158.24 20.1214C157.849 22.0295 158.717 22.8968 159.801 24.111C156.809 25.2385 155.594 26.6695 155.161 28.7077C154.51 31.83 156.852 33.5646 160.278 33.5646C162.012 33.5646 163.92 33.0008 165.395 31.7866L166.262 33.261H170.512L168.127 29.9219C169.861 28.3174 171.032 26.3226 171.553 24.2411H168.517C168.17 25.542 167.65 26.9297 166.609 27.8404L164.224 24.5447ZM162.663 22.8534C162.142 22.2029 161.362 21.4224 161.535 20.5117C161.795 19.2975 162.923 18.7337 163.92 18.7337C164.918 18.7337 165.698 19.2975 165.438 20.425C165.221 21.379 163.617 22.3764 162.663 22.8534ZM164.137 30.0954C163.227 30.8326 162.056 31.0928 160.885 31.0928C159.28 31.0928 158.153 30.0954 158.5 28.621C158.803 27.32 159.931 26.5394 161.188 25.9323L164.137 30.0954ZM130.226 33.3044H133.521L136.253 20.8586H136.297L140.243 33.3044H144.493L148.092 16.6522H144.753L142.064 29.098H142.021L138.118 16.6522H133.868L130.226 33.3044ZM117.346 33.3044H127.624L128.188 30.7025H121.379L122.42 26.0191H128.578L129.142 23.3738H122.94L123.851 19.2541H130.616L131.18 16.6088H120.946L117.346 33.3044ZM117.953 16.9558C116.782 16.5655 115.395 16.3486 113.92 16.3486C110.885 16.3486 107.546 17.693 106.765 21.4224C105.551 26.9297 113.443 25.6288 112.75 28.7944C112.403 30.3122 110.495 30.9627 109.194 30.9627C107.806 30.9627 106.548 30.5724 105.508 29.9219L104.554 32.9141C106.158 33.3044 106.982 33.5646 108.847 33.5646C112.316 33.5646 115.655 32.1769 116.436 28.5342C117.65 22.9835 109.757 24.1977 110.408 21.2923C110.798 19.4709 112.446 18.9939 113.617 18.9939C114.831 18.9939 116.002 19.2541 116.999 19.6878L117.953 16.9558ZM90.8068 33.3044H94.276L95.7938 26.4094H96.9212C98.3957 26.4094 98.7426 26.8864 98.9594 28.144L99.9134 33.3478H103.773L102.429 26.843C102.255 26.1058 101.865 25.1951 100.954 25.1518V25.1084C103.209 24.8048 104.944 23.2003 105.377 21.2489C106.375 16.6088 101.908 16.7389 98.1788 16.7389H94.4061L90.8068 33.3044ZM97.3115 19.2541H98.439C100.174 19.2541 102.082 19.4276 101.648 21.4224C101.171 23.5039 99.1762 23.7207 97.485 23.7207H96.3575L97.3115 19.2541ZM73.1138 33.3044H76.7131L79.0548 29.4883H86.08L86.7304 33.3044H90.5899L87.3809 16.6522H83.4781L73.1138 33.3044ZM85.6897 26.843H80.616L84.6055 19.9913H84.6489L85.6897 26.843ZM62.7495 33.3044H72.9403L73.5041 30.7025H66.7825L69.818 16.6522H66.3488L62.7495 33.3044Z" fill="#424242"/>
<path fill-rule="evenodd" clip-rule="evenodd" d="M21.5091 46.5742L32.1769 28.1006H24.9783L28.5776 21.8994H45.49L41.8907 28.144H35.7762L24.9783 46.9211C36.9905 46.9211 46.8777 37.0772 46.8777 25.0217C46.8777 13.0529 37.0338 3.20902 24.9783 3.20902C24.111 3.20902 23.2003 3.25238 22.4198 3.38248L11.6652 21.9861H24.9783L21.379 28.1873H4.46661L18.2567 4.33651C9.49696 7.15525 3.12229 15.438 3.12229 25.1084C3.12229 35.8196 11.1015 44.8829 21.5091 46.5742ZM24.9783 0C38.7251 0 49.9566 11.2316 49.9566 24.9783C49.9566 38.7684 38.6817 50 24.9783 50C11.1882 50 0 38.7684 0 24.9783C0 11.1882 11.2316 0 24.9783 0Z" fill="#424242"/>
<path d="M256.548 24.9349C257.199 21.9861 259.28 18.9939 262.706 18.9939C266.175 18.9939 266.913 21.9861 266.305 24.9349C265.655 27.9271 263.66 30.9627 260.148 30.9627C256.592 30.9627 255.898 27.9271 256.548 24.9349ZM252.949 24.9349C251.821 30.0087 253.99 33.608 259.54 33.608C265.004 33.608 268.821 29.9653 269.905 24.9349C270.989 19.9046 268.69 16.3486 263.27 16.3486C257.762 16.3486 254.033 19.8179 252.949 24.9349ZM237.988 33.3044H241.457L242.975 26.4094H244.102C245.577 26.4094 245.924 26.8864 246.141 28.144L247.095 33.3478H250.954L249.566 26.843C249.393 26.1058 249.046 25.1951 248.092 25.1518V25.1084C250.347 24.8048 252.082 23.2003 252.515 21.2489C253.513 16.6088 249.046 16.7389 245.317 16.7389H241.544L237.988 33.3044ZM244.493 19.2541H245.62C247.355 19.2541 249.263 19.4276 248.829 21.4224C248.352 23.5039 246.357 23.7207 244.666 23.7207H243.539L244.493 19.2541ZM223.591 33.3044H229.662C231.83 33.3044 235.906 32.6973 236.817 28.4909C237.251 26.4527 235.95 24.8916 233.651 24.7181V24.6747C235.776 24.3278 237.468 22.9401 237.901 20.9453C238.682 17.3027 235.473 16.6956 233.261 16.6956H227.19L223.591 33.3044ZM230.139 19.2541H231.483C233.088 19.2541 234.779 19.3842 234.389 21.3356C233.998 23.0269 232.134 23.3738 230.659 23.3738H229.228L230.139 19.2541ZM228.708 25.8456H230.356C232.09 25.8456 233.868 26.1925 233.391 28.3608C232.958 30.2688 230.919 30.6591 229.315 30.6591H227.667L228.708 25.8456ZM208.109 27.2767C207.155 31.7433 209.367 33.5646 213.834 33.5646C218.3 33.5646 221.292 31.7433 222.29 27.2767L224.588 16.6088H221.119L219.037 26.2359C218.43 29.0546 217.086 30.9627 214.397 30.9627C211.752 30.9627 211.188 29.098 211.839 26.2359L213.92 16.6088H210.451L208.109 27.2767ZM193.452 24.9349C194.102 21.9861 196.141 18.9939 199.566 18.9939C203.036 18.9939 203.816 21.9861 203.166 24.9349C202.515 27.9271 200.564 30.9627 197.008 30.9627C193.452 30.9627 192.801 27.9271 193.452 24.9349ZM189.809 24.9349C188.682 30.0087 190.85 33.608 196.401 33.608C201.865 33.608 205.681 29.9653 206.765 24.9349C207.849 19.9046 205.551 16.3486 200.13 16.3486C194.666 16.3486 190.937 19.8179 189.809 24.9349ZM180.659 33.3044H184.128L187.164 19.2975H192.151L192.715 16.6522H179.315L178.751 19.2975H183.738L180.659 33.3044ZM163.964 24.5447C166.089 23.5039 167.78 22.4198 168.257 20.1214C168.864 17.4328 166.522 16.3486 164.094 16.3486C161.665 16.3486 158.543 17.6062 157.979 20.1214C157.589 22.0295 158.456 22.8968 159.54 24.111C156.548 25.2385 155.334 26.6695 154.9 28.7077C154.25 31.83 156.592 33.5646 160.017 33.5646C161.752 33.5646 163.66 33.0008 165.135 31.7866L166.002 33.261H170.252L167.867 29.9219C169.601 28.3174 170.772 26.3226 171.292 24.2411H168.257C167.91 25.542 167.39 26.9297 166.349 27.8404L163.964 24.5447ZM162.403 22.8534C161.882 22.2029 161.102 21.4224 161.275 20.5117C161.535 19.2975 162.663 18.7337 163.66 18.7337C164.658 18.7337 165.438 19.2975 165.178 20.425C164.961 21.379 163.357 22.3764 162.403 22.8534ZM163.877 30.0954C162.966 30.8326 161.795 31.0928 160.625 31.0928C159.02 31.0928 157.893 30.0954 158.239 28.621C158.543 27.32 159.671 26.5394 160.928 25.9323L163.877 30.0954ZM130.009 33.3044H133.305L136.037 20.8586H136.08L140.026 33.3044H144.276L147.875 16.6522H144.536L141.847 29.098H141.804L137.901 16.6522H133.651L130.009 33.3044ZM117.086 33.3044H127.364L127.927 30.7025H121.119L122.16 26.0191H128.318L128.881 23.3738H122.68L123.591 19.2541H130.356L130.919 16.6088H120.685L117.086 33.3044ZM117.736 16.9558C116.566 16.5655 115.178 16.3486 113.703 16.3486C110.668 16.3486 107.329 17.693 106.548 21.4224C105.334 26.9297 113.226 25.6288 112.533 28.7944C112.186 30.3122 110.278 30.9627 108.977 30.9627C107.589 30.9627 106.331 30.5724 105.291 29.9219L104.337 32.9141C105.941 33.3044 106.765 33.5646 108.63 33.5646C112.099 33.5646 115.438 32.1769 116.219 28.5342C117.433 22.9835 109.54 24.1977 110.191 21.2923C110.581 19.4709 112.229 18.9939 113.4 18.9939C114.614 18.9939 115.785 19.2541 116.782 19.6878L117.736 16.9558ZM90.5465 33.3044H94.0157L95.5335 26.4094H96.661C98.1354 26.4094 98.4823 26.8864 98.6992 28.144L99.6532 33.3478H103.513L102.168 26.843C101.995 26.1058 101.605 25.1951 100.694 25.1518V25.1084C102.949 24.8048 104.684 23.2003 105.117 21.2489C106.115 16.6088 101.648 16.7389 97.9186 16.7389H94.1458L90.5465 33.3044ZM97.0946 19.2541H98.2221C99.9567 19.2541 101.865 19.4276 101.431 21.4224C100.954 23.5039 98.9593 23.7207 97.2681 23.7207H96.1406L97.0946 19.2541ZM72.8969 33.3044H76.4962L78.8379 29.4883H85.8631L86.5135 33.3044H90.373L87.164 16.6522H83.2612L72.8969 33.3044ZM85.4728 26.843H80.3991L84.3887 19.9913H84.432L85.4728 26.843ZM62.4893 33.3044H72.6801L73.2438 30.7025H66.5222L69.5578 16.6522H66.0886L62.4893 33.3044Z" fill="#424242"/>
</svg>
