<svg width="104" height="50" viewBox="0 0 104 50" fill="none" xmlns="http://www.w3.org/2000/svg">
<path d="M102.318 44.5279C102.003 44.5279 101.755 44.6271 101.557 44.8255C101.359 45.0239 101.259 45.2719 101.259 45.5529C101.259 45.7844 101.326 45.9828 101.441 46.1481C101.574 46.3299 101.805 46.4953 102.152 46.6771C102.483 46.8424 102.681 46.9747 102.78 47.0904C102.88 47.2061 102.913 47.3219 102.913 47.4706C102.913 47.636 102.847 47.8013 102.698 47.917C102.566 48.0493 102.384 48.1154 102.185 48.1154C101.904 48.1154 101.623 47.9666 101.375 47.6856L101.061 48.0327C101.193 48.1981 101.359 48.3303 101.557 48.4295C101.755 48.5287 101.97 48.5783 102.202 48.5783C102.532 48.5783 102.814 48.4626 103.045 48.2477C103.276 48.0327 103.376 47.7517 103.376 47.4376C103.376 47.2061 103.309 47.0077 103.177 46.8259C103.045 46.644 102.797 46.4622 102.417 46.2638C102.119 46.115 101.921 45.9662 101.822 45.8505C101.722 45.7348 101.673 45.619 101.673 45.4868C101.673 45.338 101.722 45.2223 101.838 45.1066C101.954 45.0074 102.086 44.9412 102.251 44.9412C102.499 44.9412 102.764 45.0735 103.028 45.3215L103.343 44.9908C103.028 44.6932 102.665 44.5279 102.318 44.5279ZM95.0434 46.2307C95.1426 45.8836 95.2914 45.6025 95.4898 45.4372C95.7543 45.1892 96.0849 45.0735 96.4652 45.0735C96.6966 45.0735 96.9115 45.1231 97.1265 45.2223C97.3414 45.3215 97.5067 45.4537 97.6224 45.6025C97.7547 45.7678 97.8539 45.9662 97.92 46.2307H95.0434ZM97.5067 47.7352C97.3744 47.8509 97.2257 47.9336 97.0273 47.9997C96.8454 48.0658 96.647 48.0989 96.4486 48.0989C96.0353 48.0989 95.7047 47.9501 95.4237 47.669C95.1426 47.388 95.0103 47.0077 94.9938 46.5614H98.4656C98.4656 46.0324 98.3168 45.586 98.0357 45.2388C97.639 44.7428 97.1099 44.4949 96.4652 44.4949C95.8204 44.4949 95.3079 44.7428 94.9277 45.2223C94.6301 45.6025 94.4813 46.0489 94.4813 46.5283C94.4813 47.0573 94.6632 47.5202 95.0103 47.9335C95.3741 48.3469 95.8535 48.5452 96.4817 48.5452C96.7627 48.5452 97.0273 48.4956 97.2422 48.413C97.4736 48.3303 97.672 48.1981 97.8539 48.0327C98.0357 47.8674 98.201 47.6525 98.3333 47.3715L97.92 47.1565C97.7712 47.4376 97.639 47.6194 97.5067 47.7352ZM91.2575 44.9412C91.0922 44.809 90.8938 44.7098 90.6459 44.6436C90.4144 44.561 90.1664 44.5279 89.9019 44.5279C89.4886 44.5279 89.1249 44.6106 88.7943 44.7924C88.4636 44.9743 88.1991 45.2223 88.0173 45.5364C87.8354 45.8505 87.7362 46.1977 87.7362 46.5779C87.7362 47.14 87.9346 47.6029 88.3479 47.9997C88.7447 48.3799 89.2572 48.5783 89.8688 48.5783C90.2656 48.5783 90.6293 48.4956 90.9269 48.3469C91.241 48.1981 91.489 47.9831 91.6709 47.7021L91.2741 47.4376C90.9104 47.884 90.4475 48.1154 89.8854 48.1154C89.5713 48.1154 89.2902 48.0493 89.0422 47.917C88.7943 47.7848 88.5959 47.5864 88.4471 47.3384C88.2983 47.0904 88.2322 46.8259 88.2322 46.5448C88.2322 46.115 88.381 45.7513 88.6951 45.4372C89.0092 45.1231 89.3894 44.9908 89.8688 44.9908C90.464 44.9908 90.9269 45.2223 91.2575 45.6686L91.6543 45.4207C91.5717 45.2388 91.4229 45.0735 91.2575 44.9412ZM84.314 48.3799H84.81V44.5775H84.314V48.3799ZM84.3306 43.1558C84.2479 43.2384 84.2149 43.3376 84.2149 43.4533C84.2149 43.5691 84.2479 43.6683 84.3306 43.7344C84.4132 43.817 84.5124 43.8501 84.6116 43.8501C84.7273 43.8501 84.8265 43.817 84.9092 43.7344C84.9919 43.6517 85.0249 43.5525 85.0249 43.4533C85.0249 43.3376 84.9919 43.2384 84.9092 43.1558C84.8265 43.0731 84.7273 43.04 84.6116 43.04C84.4959 43.0235 84.4132 43.0731 84.3306 43.1558ZM79.7842 48.3799H79.8834L81.6193 44.5775H81.1068L79.8338 47.3384L78.5609 44.5775H78.0484L79.7842 48.3799ZM73.8988 48.3799H74.3948V47.0904C74.3948 46.4291 74.4278 45.9993 74.4939 45.7678C74.5766 45.4868 74.6923 45.2719 74.8246 45.1396C74.9734 45.0074 75.1222 44.9412 75.2875 44.9412C75.3536 44.9412 75.4528 44.9578 75.5355 45.0074L75.7835 44.5941C75.6347 44.5114 75.5024 44.4618 75.3536 44.4618C75.1718 44.4618 75.0064 44.5114 74.8411 44.6271C74.6758 44.7428 74.527 44.9082 74.3782 45.1231V44.561H73.8823V48.3799H73.8988ZM67.7488 46.2307C67.848 45.8836 67.9968 45.6025 68.1952 45.4372C68.4762 45.1892 68.7904 45.0735 69.1706 45.0735C69.402 45.0735 69.617 45.1231 69.8319 45.2223C70.0468 45.3215 70.2121 45.4537 70.3278 45.6025C70.4601 45.7678 70.5593 45.9662 70.6254 46.2307H67.7488ZM70.2121 47.7352C70.0799 47.8509 69.9311 47.9336 69.7327 47.9997C69.5508 48.0658 69.3524 48.0989 69.1541 48.0989C68.7408 48.0989 68.4101 47.9501 68.1291 47.669C67.848 47.388 67.7158 47.0077 67.6992 46.5614H71.171C71.171 46.0324 71.0222 45.586 70.7411 45.2388C70.3444 44.7428 69.8153 44.4949 69.1706 44.4949C68.5258 44.4949 68.0133 44.7428 67.6331 45.2223C67.3355 45.6025 67.1867 46.0489 67.1867 46.5283C67.1867 47.0573 67.3686 47.5202 67.7158 47.9335C68.0629 48.3469 68.5589 48.5452 69.1871 48.5452C69.4682 48.5452 69.7327 48.4956 69.9476 48.413C70.1791 48.3303 70.3774 48.1981 70.5593 48.0327C70.7411 47.8674 70.8899 47.6525 71.0387 47.3715L70.6254 47.1565C70.4766 47.4376 70.3444 47.6194 70.2121 47.7352ZM63.3843 44.5279C63.0702 44.5279 62.8222 44.6271 62.6239 44.8255C62.4255 45.0239 62.3263 45.2719 62.3263 45.5529C62.3263 45.7844 62.3924 45.9828 62.5081 46.1481C62.6404 46.3299 62.8718 46.4953 63.219 46.6771C63.5497 46.8424 63.7481 46.9747 63.8472 47.0904C63.9464 47.2061 63.9795 47.3219 63.9795 47.4706C63.9795 47.636 63.9134 47.8013 63.7646 47.917C63.6323 48.0493 63.4505 48.1154 63.2521 48.1154C62.971 48.1154 62.69 47.9666 62.442 47.6856L62.1279 48.0327C62.2602 48.1981 62.4255 48.3303 62.6239 48.4295C62.8222 48.5287 63.0372 48.5783 63.2686 48.5783C63.5993 48.5783 63.8803 48.4626 64.1118 48.2477C64.3267 48.0327 64.4424 47.7517 64.4424 47.4376C64.4424 47.2061 64.3763 47.0077 64.244 46.8259C64.1118 46.644 63.8638 46.4622 63.4835 46.2638C63.186 46.115 62.9876 45.9662 62.8884 45.8505C62.7892 45.7348 62.7396 45.619 62.7396 45.4868C62.7396 45.338 62.7892 45.2223 62.9049 45.1066C63.0206 45.0074 63.1529 44.9412 63.3182 44.9412C63.5662 44.9412 63.8307 45.0735 64.0952 45.3215L64.4093 44.9908C64.1118 44.6932 63.748 44.5279 63.3843 44.5279ZM52.0763 46.2307C52.1755 45.8836 52.3243 45.6025 52.5227 45.4372C52.7872 45.1892 53.1179 45.0735 53.4981 45.0735C53.7296 45.0735 53.9445 45.1231 54.1594 45.2223C54.3743 45.3215 54.5396 45.4537 54.6554 45.6025C54.7876 45.7678 54.8868 45.9662 54.9529 46.2307H52.0763ZM54.5396 47.7352C54.4074 47.8509 54.2586 47.9336 54.0602 47.9997C53.8784 48.0658 53.68 48.0989 53.4816 48.0989C53.0683 48.0989 52.7376 47.9501 52.4566 47.669C52.1755 47.388 52.0433 47.0077 52.0268 46.5614H55.4985C55.4985 46.0324 55.3497 45.586 55.0687 45.2388C54.6719 44.7428 54.1429 44.4949 53.4981 44.4949C52.8534 44.4949 52.3409 44.7428 51.9606 45.2223C51.663 45.6025 51.5143 46.0489 51.5143 46.5283C51.5143 47.0573 51.6961 47.5202 52.0433 47.9335C52.407 48.3469 52.8864 48.5452 53.5146 48.5452C53.7957 48.5452 54.0602 48.4956 54.2751 48.413C54.5066 48.3303 54.705 48.1981 54.8868 48.0327C55.0687 47.8674 55.234 47.6525 55.3662 47.3715L54.9529 47.1565C54.8041 47.4376 54.6719 47.6194 54.5396 47.7352ZM47.3978 45.2057C47.6292 45.338 47.8111 45.5199 47.9433 45.7513C48.0756 45.9828 48.1417 46.2473 48.1417 46.5283C48.1417 46.9747 48.0094 47.3384 47.7284 47.6194C47.4473 47.9005 47.0836 48.0327 46.6207 48.0327C46.1744 48.0327 45.7941 47.9005 45.5131 47.6194C45.232 47.3384 45.0832 46.9912 45.0832 46.5614C45.0832 46.2803 45.1494 46.0158 45.2816 45.7844C45.4139 45.5364 45.6123 45.3545 45.8437 45.2223C46.0917 45.09 46.3397 45.0239 46.6207 45.0239C46.9018 45.0074 47.1663 45.0735 47.3978 45.2057ZM48.1086 45.2388C47.8772 45.0074 47.6292 44.809 47.3812 44.6932C47.1332 44.5775 46.8687 44.5114 46.5711 44.5114C46.224 44.5114 45.8933 44.5941 45.5792 44.7759C45.2651 44.9578 45.0171 45.2057 44.8353 45.5033C44.6534 45.8174 44.5708 46.1481 44.5708 46.4953C44.5708 46.859 44.6534 47.1731 44.8187 47.4872C44.9841 47.7848 45.232 48.0162 45.5461 48.1981C45.8603 48.3799 46.1909 48.4626 46.5546 48.4626C46.8522 48.4626 47.1498 48.3964 47.4143 48.2807C47.6788 48.1485 48.274 47.7352 48.274 47.7352V47.9335C48.274 47.9335 48.059 48.661 47.9598 48.8593C47.8606 49.0577 47.6953 49.2065 47.4639 49.3388C47.2324 49.471 46.9514 49.5206 46.6042 49.5206C46.257 49.5206 45.976 49.4545 45.7445 49.3388C45.5131 49.2231 45.3147 49.0247 45.1824 48.7106H44.6369C44.7691 49.0743 44.9345 49.3057 45.0998 49.471C45.2651 49.6364 45.48 49.7521 45.7445 49.8513C46.009 49.9505 46.3066 50.0001 46.6373 50.0001C47.0836 50.0001 47.4804 49.9009 47.7945 49.719C48.1086 49.5206 48.3401 49.2561 48.4723 48.8924C48.5715 48.6444 48.6211 48.2477 48.6046 47.7021V44.5775H48.1086V45.2388ZM40.7188 45.4537C41.0163 45.7513 41.1651 46.1315 41.1651 46.5779C41.1651 46.8755 41.099 47.14 40.9667 47.3715C40.8345 47.6029 40.6526 47.7848 40.4046 47.9335C40.1567 48.0658 39.9087 48.1319 39.6276 48.1319C39.3631 48.1319 39.0986 48.0658 38.8672 47.917C38.6357 47.7848 38.4373 47.5864 38.3051 47.3384C38.1728 47.0904 38.0901 46.8259 38.0901 46.5614C38.0901 46.2803 38.1563 46.0323 38.3051 45.7844C38.4373 45.5364 38.6357 45.3545 38.8672 45.2057C39.0986 45.0735 39.3631 45.0074 39.6276 45.0074C40.0575 45.0074 40.4212 45.1561 40.7188 45.4537ZM41.1651 43.1062V45.2719C40.9667 45.0074 40.7518 44.7924 40.4873 44.6602C40.2228 44.5279 39.9417 44.4618 39.6276 44.4618C39.0821 44.4618 38.6026 44.6602 38.2224 45.057C37.8256 45.4537 37.6438 45.9166 37.6438 46.4622C37.6438 47.0243 37.8422 47.5037 38.2224 47.9005C38.6026 48.2973 39.0821 48.4956 39.6276 48.4956C39.9417 48.4956 40.2228 48.4295 40.4708 48.2973C40.7353 48.165 40.9667 47.9831 41.1651 47.7186V48.3799H41.6611V43.0896L41.1651 43.1062ZM31.3616 46.2307C31.4608 45.8836 31.6095 45.6025 31.8079 45.4372C32.089 45.1892 32.4031 45.0735 32.7833 45.0735C33.0148 45.0735 33.2297 45.1231 33.4446 45.2223C33.6595 45.3215 33.8248 45.4537 33.9406 45.6025C34.0728 45.7678 34.172 45.9662 34.2382 46.2307H31.3616ZM33.8248 47.7352C33.6926 47.8509 33.5438 47.9336 33.3454 47.9997C33.1636 48.0658 32.9652 48.0989 32.7668 48.0989C32.3535 48.0989 32.0228 47.9501 31.7418 47.669C31.4608 47.388 31.3285 47.0077 31.312 46.5614H34.7837C34.7837 46.0324 34.6349 45.586 34.3539 45.2388C33.9571 44.7428 33.4281 44.4949 32.7833 44.4949C32.1386 44.4949 31.6261 44.7428 31.2458 45.2223C30.9483 45.6025 30.7995 46.0489 30.7995 46.5283C30.7995 47.0573 30.9813 47.5202 31.3285 47.9335C31.6922 48.3469 32.1716 48.5452 32.7999 48.5452C33.0809 48.5452 33.3454 48.4956 33.5603 48.413C33.7918 48.3303 33.9902 48.1981 34.172 48.0327C34.3539 47.8674 34.5192 47.6525 34.6515 47.3715L34.2382 47.1565C34.0894 47.4376 33.9571 47.6194 33.8248 47.7352ZM27.4434 48.3799H27.9394V43.0896H27.4434V48.3799ZM20.5661 48.3799H20.6653L21.8886 45.6686L23.112 48.3799H23.2112L24.8644 44.5775H24.3685L23.1781 47.3384L21.9548 44.5775H21.8225L20.5991 47.3384L19.4253 44.5775H18.9294L20.5661 48.3799ZM15.5072 45.4703C15.8048 45.7678 15.9536 46.1481 15.9536 46.5779C15.9536 46.859 15.8875 47.1235 15.7552 47.3549C15.6229 47.6029 15.4411 47.7848 15.2096 47.917C14.9782 48.0493 14.7302 48.1154 14.4492 48.1154C14.1681 48.1154 13.9201 48.0493 13.6887 47.917C13.4572 47.7848 13.2754 47.6029 13.1431 47.3549C13.0109 47.1069 12.9447 46.859 12.9447 46.5779C12.9447 46.1481 13.0935 45.7678 13.3911 45.4703C13.6887 45.1727 14.0359 45.0074 14.4492 45.0074C14.8459 45.0074 15.2096 45.1561 15.5072 45.4703ZM12.9613 45.1727C12.5976 45.5695 12.4322 46.0324 12.4322 46.5614C12.4322 47.1069 12.6141 47.5698 12.9943 47.9831C13.3746 48.3799 13.854 48.5948 14.4492 48.5948C15.0443 48.5948 15.5238 48.3965 15.904 47.9831C16.2842 47.5864 16.4661 47.1069 16.4661 46.5614C16.4661 46.0158 16.2842 45.5529 15.9371 45.1727C15.5403 44.7428 15.0443 44.5279 14.4492 44.5279C13.8375 44.5279 13.358 44.7428 12.9613 45.1727ZM6.15002 48.3799H6.61292V46.9582C6.61292 46.4457 6.62945 46.0985 6.67905 45.9001C6.76171 45.6025 6.9105 45.3545 7.12542 45.1561C7.35687 44.9578 7.62138 44.8586 7.91896 44.8586C8.18348 44.8586 8.38186 44.9247 8.54718 45.057C8.71251 45.1892 8.82823 45.3711 8.87783 45.6356C8.91089 45.7844 8.92742 46.0819 8.92742 46.5283V48.3799L9.58871 48.5452V46.5614C9.58871 46.0324 9.53911 45.6521 9.42339 45.4041C9.32419 45.1561 9.15887 44.9578 8.91089 44.809C8.67944 44.6602 8.41493 44.5941 8.11735 44.5941C7.8363 44.5941 7.55525 44.6602 7.30727 44.7924C7.05929 44.9247 6.82784 45.1231 6.62945 45.3876V44.5775H6.13349V48.3799H6.15002ZM0.479492 48.3799H0.826667V46.7432L2.89319 48.3799H3.58754L1.33916 46.4622L3.47181 44.5775H2.7444L0.991989 46.1811V43.0896H0.496024V48.3799H0.479492Z" fill="#343434"/>
<path d="M101.111 23.5981C100.268 23.1848 99.3748 22.9698 98.4159 22.9698C97.0107 22.9698 95.87 23.3831 94.9772 24.2098C94.0845 25.0364 93.6381 26.0283 93.6381 27.1855C93.6381 28.9875 94.8284 30.492 97.2091 31.6823L98.449 32.3105C99.5236 32.8561 100.053 33.4016 100.053 33.9803C100.053 34.2944 99.9038 34.5589 99.6062 34.7903C99.3087 35.0218 98.9119 35.1375 98.4324 35.1375C97.9861 35.1375 97.4736 34.9887 96.8784 34.6746C96.2833 34.3605 95.7873 33.9637 95.3575 33.4512L93.0926 35.931C94.3655 37.6008 96.0849 38.4439 98.2341 38.4439C99.8542 38.4439 101.127 38.0141 102.103 37.1379C103.061 36.2617 103.541 35.1706 103.541 33.8645C103.541 32.8891 103.276 32.0295 102.747 31.302C102.218 30.5746 101.243 29.8472 99.8046 29.1529L98.449 28.475C97.8704 28.194 97.4901 27.9625 97.3413 27.7972C97.1925 27.6319 97.1264 27.4501 97.1264 27.2517C97.1264 26.9872 97.2421 26.7722 97.4736 26.5904C97.705 26.4085 98.0357 26.3259 98.449 26.3259C99.2095 26.3259 100.053 26.7888 100.978 27.698L103.26 25.4166C102.665 24.6231 101.954 24.0114 101.111 23.5981ZM76.0314 29.5331C76.0314 31.8641 76.1802 33.5008 76.4612 34.377C76.8745 35.6665 77.5689 36.6585 78.5608 37.3693C79.5527 38.0968 80.8588 38.4439 82.4624 38.4439C83.9503 38.4439 85.1737 38.1298 86.1325 37.5181C87.0914 36.9064 87.8353 36.0137 88.3313 34.873C88.7446 33.9307 88.943 32.1782 88.943 29.6323V23.2509H85.1406V30.5581C85.2067 31.9468 85.1241 32.8561 84.9753 33.2694C84.7604 33.8315 84.4462 34.2613 84.0164 34.5589C83.5866 34.8565 83.0575 35.0052 82.4459 35.0052C81.8342 35.0052 81.3217 34.8565 80.8918 34.5589C80.4785 34.2613 80.1644 33.848 79.9826 33.3024C79.8007 32.7734 79.7015 31.8145 79.685 30.4258V23.4162H76.0479L76.0314 29.5331ZM67.2859 38.1298H70.9229V23.4162H67.2859V38.1298ZM58.1271 27.5823C58.8875 28.3924 59.2678 29.4174 59.2678 30.6904C59.2678 31.9633 58.8875 33.0049 58.1105 33.8315C57.3335 34.6581 56.3912 35.0548 55.267 35.0548C54.1097 35.0548 53.1343 34.6581 52.3739 33.848C51.6134 33.0379 51.2166 31.9799 51.2166 30.6738C51.2166 29.4008 51.5969 28.3593 52.3739 27.5658C53.1343 26.7722 54.1097 26.3755 55.267 26.3755C56.4077 26.3755 57.3666 26.7888 58.1271 27.5823ZM47.7779 17.6465V37.9645H51.415V36.4105C52.1424 37.0883 52.8533 37.5843 53.5807 37.8984C54.3081 38.196 55.0851 38.3447 55.9283 38.3447C57.8129 38.3447 59.4496 37.6008 60.8218 36.146C62.194 34.6911 62.8883 32.8561 62.8883 30.6573C62.8883 28.4089 62.2105 26.5408 60.8879 25.086C59.5653 23.6311 57.9452 22.9202 56.044 22.9202C55.1678 22.9202 54.3412 23.0856 53.5642 23.4162C52.7872 23.7468 52.0763 24.2428 51.415 24.9206V17.6465H47.7779ZM0 37.9645H3.63707V31.4178C3.63707 29.996 3.76933 28.971 4.01731 28.3097C4.2653 27.6484 4.64554 27.1359 5.1415 26.7722C5.63746 26.4085 6.19956 26.2267 6.82778 26.2267C7.37334 26.2267 7.85277 26.3755 8.23301 26.6565C8.62978 26.9376 8.91083 27.3839 9.10922 27.9791C9.3076 28.5742 9.4068 29.5166 9.4068 30.8391V37.9645H13.2092V31.4178C13.1927 30.0125 13.3084 28.9875 13.5564 28.3593C13.8043 27.7311 14.1681 27.2186 14.664 26.8714C15.16 26.5077 15.7221 26.3259 16.3668 26.3259C17.1934 26.3259 17.8217 26.6234 18.235 27.2186C18.6483 27.8138 18.8632 28.9379 18.8301 30.6077V38.1298H22.6325V29.5C22.6325 27.7311 22.4507 26.4581 22.1035 25.6646C21.7563 24.8876 21.1777 24.2428 20.3676 23.7634C19.5741 23.284 18.6317 23.036 17.5902 23.036C16.5818 23.036 15.6394 23.2674 14.7797 23.7138C13.9201 24.1602 13.1927 24.8214 12.5975 25.6811C12.1511 24.8214 11.556 24.1602 10.7955 23.7138C10.035 23.2674 9.20841 23.036 8.28261 23.036C7.37334 23.036 6.51367 23.2013 5.73666 23.5485C4.95965 23.8956 4.24876 24.4081 3.62054 25.1025V23.4162H0V37.9645Z" fill="#343434"/>
<path d="M27.4271 22.8707C27.7577 24.6893 28.1215 26.4913 28.7001 28.2437C29.0142 29.1695 29.3944 30.0622 29.9235 30.9054C30.5847 31.9469 31.5106 32.6412 32.7339 32.9223C33.5936 33.1207 34.4367 33.038 35.2303 32.6578C36.2057 32.1949 36.6686 31.3683 36.7512 30.3267C36.8174 29.4505 36.5033 28.6735 36.0404 27.9461C35.594 27.2683 34.9988 26.7392 34.3871 26.2268C32.4198 24.6066 30.2541 23.284 27.9396 22.226C27.89 22.2094 27.8569 22.1929 27.7412 22.1433C28.5182 22.1929 29.2291 22.226 29.94 22.2921C30.7501 22.3582 31.5601 22.4409 32.3702 22.5566C34.7674 22.9038 37.0984 23.4989 39.2145 24.7058C40.5371 25.4663 41.6613 26.4086 42.4383 27.7477C43.2484 29.186 43.6121 30.7235 43.3972 32.3436C43.1161 34.4598 41.9919 36.0469 40.1569 37.1545C38.9996 37.8489 37.7432 38.2291 36.3875 38.3614C35.2964 38.4771 34.2053 38.4109 33.1307 38.1795C31.3452 37.7993 30.0392 36.7743 29.163 35.1872C28.5182 34.0465 28.1545 32.8066 27.89 31.5336C27.642 30.2771 27.4767 29.0207 27.4436 27.7477C27.4106 26.2433 27.4106 24.7554 27.394 23.251C27.394 23.1187 27.4106 23.003 27.4271 22.8707Z" fill="#6A6A6A"/>
<path d="M27.1459 22.0937C26.4681 22.0606 25.7903 22.0276 25.0959 21.978C24.6 21.9449 24.1205 21.8953 23.6246 21.8623C21.4258 21.7135 19.227 21.4986 17.0448 21.1183C15.5569 20.8538 14.0855 20.5232 12.6803 19.9115C12.5976 19.8784 12.5315 19.8453 12.4488 19.8123C10.3823 18.9361 9.27466 17.3159 8.79522 15.2163C8.38192 13.3978 8.46458 11.5958 8.99361 9.82685C10.2666 5.4789 13.1266 2.56924 17.3423 0.916023C18.6649 0.403527 20.0536 0.105948 21.4754 0.023287C22.7814 -0.0593738 24.0709 0.0728835 25.3108 0.502719C26.6665 0.96562 27.7576 1.75916 28.4354 3.04867C28.8487 3.82568 29.0802 4.66882 29.1463 5.54503C29.2124 6.4047 29.2455 7.2809 29.2124 8.14057C29.1794 9.04984 29.0636 9.94258 28.9645 10.8353C28.8487 11.8438 28.6999 12.8357 28.5677 13.8442C28.4354 14.803 28.3032 15.7784 28.1709 16.7373C28.0717 17.4812 27.9891 18.2252 27.9064 18.9691C27.8237 19.7792 27.7411 20.6058 27.6419 21.4324C27.6088 21.0853 27.5427 20.7381 27.5262 20.3909C27.4435 18.5062 27.3608 16.605 27.2782 14.7204C27.2286 13.5135 27.1624 12.3232 27.0633 11.1164C26.9641 9.84339 26.7822 8.57041 26.4185 7.3305C26.1705 6.52042 25.8564 5.72688 25.3274 5.04906C24.4512 3.90834 23.2443 3.24706 21.8226 3.03214C19.2105 2.6519 16.896 3.37931 14.9617 5.14825C13.8706 6.14018 13.2424 7.42969 12.9613 8.86799C12.5646 10.8188 12.8125 12.7035 13.7218 14.4889C14.2674 15.5635 15.0774 16.4232 16.0198 17.1506C17.177 18.0599 18.4665 18.7377 19.8056 19.3328C21.5746 20.1264 23.4262 20.7381 25.2778 21.3332C25.9225 21.5316 26.5342 21.7796 27.179 22.0111C27.1459 22.0441 27.1459 22.0606 27.1459 22.0937Z" fill="#6A6A6A"/>
<path d="M69.1539 21.7962C70.3938 21.7962 71.3858 20.7877 71.3858 19.5644C71.3858 18.3244 70.3773 17.3325 69.1539 17.3325C67.914 17.3325 66.9221 18.341 66.9221 19.5644C66.9055 20.7877 67.914 21.7962 69.1539 21.7962Z" fill="#6A6A6A"/>
</svg>
