<svg width="235" height="50" viewBox="0 0 235 50" fill="none" xmlns="http://www.w3.org/2000/svg">
<path d="M83.0626 28.7985L81.6673 32.752H81.551C81.3184 31.8605 80.8921 30.504 80.1944 28.8761L72.7138 10.0776H65.3882V40.0388H70.2331V21.5505C70.2331 20.3877 70.2331 19.0698 70.1944 17.4419C70.1556 16.628 70.0781 16.0078 70.0393 15.5427H70.1556C70.3882 16.7055 70.6595 17.5582 70.8533 18.1009L79.8455 39.9613H83.2564L92.1711 17.9071C92.3649 17.4032 92.5587 16.3954 92.7525 15.5427H92.8688C92.7525 17.752 92.675 19.7288 92.6363 20.9303V39.9226H97.7913V10.0001H90.737L83.0626 28.7985ZM102.675 18.4497H107.714V39.9226H102.675V18.4497ZM105.233 9.37992C104.38 9.37992 103.683 9.69 103.101 10.2326C102.52 10.7753 102.21 11.4729 102.21 12.3257C102.21 13.1396 102.52 13.8373 103.101 14.3799C103.683 14.9226 104.38 15.1939 105.233 15.1939C106.086 15.1939 106.822 14.8838 107.365 14.3799C107.946 13.8373 108.256 13.1396 108.256 12.3257C108.256 11.5117 107.946 10.814 107.365 10.2326C106.861 9.69 106.125 9.37992 105.233 9.37992ZM125.582 18.2559C124.652 18.0621 123.683 17.9458 122.753 17.9458C120.466 17.9458 118.373 18.4497 116.629 19.4574C114.884 20.4652 113.489 21.8605 112.597 23.6047C111.667 25.3877 111.202 27.4419 111.202 29.8063C111.202 31.8605 111.667 33.6823 112.559 35.3489C113.45 36.9768 114.691 38.2947 116.357 39.1861C117.946 40.0776 119.807 40.5427 121.9 40.5427C124.303 40.5427 126.357 40.0388 127.985 39.1086L128.024 39.0699V34.4187L127.83 34.5737C127.094 35.1164 126.241 35.5815 125.388 35.8528C124.497 36.1629 123.683 36.3179 122.985 36.3179C120.97 36.3179 119.38 35.7365 118.256 34.4574C117.094 33.2171 116.512 31.5117 116.512 29.3799C116.512 27.1706 117.094 25.4264 118.295 24.1474C119.497 22.8683 121.086 22.2094 123.024 22.2094C124.652 22.2094 126.318 22.752 127.83 23.8373L128.024 23.9923V19.0698L127.985 19.0311C127.326 18.7598 126.59 18.4497 125.582 18.2559ZM142.21 18.1009C140.97 18.1009 139.807 18.4884 138.799 19.3024C137.946 20.0001 137.365 21.0078 136.861 22.2094H136.822V18.4497H131.784V39.9226H136.822V28.9536C136.822 27.0931 137.21 25.5427 138.063 24.4187C138.915 23.2559 140.001 22.6745 141.318 22.6745C141.784 22.6745 142.249 22.7908 142.83 22.8683C143.373 23.0233 143.76 23.1784 144.032 23.3722L144.225 23.5272V18.4884L144.109 18.4497C143.76 18.2171 143.063 18.1009 142.21 18.1009ZM155.931 17.9846C152.404 17.9846 149.574 19.0311 147.598 21.0854C145.582 23.1396 144.613 25.9691 144.613 29.535C144.613 32.8683 145.621 35.5815 147.559 37.5582C149.497 39.4962 152.132 40.504 155.427 40.504C158.877 40.504 161.629 39.4574 163.605 37.3644C165.621 35.2714 166.59 32.4807 166.59 29.0311C166.59 25.6202 165.66 22.9071 163.76 20.9303C161.939 18.9536 159.264 17.9846 155.931 17.9846ZM159.962 34.4962C159.032 35.6978 157.559 36.2792 155.737 36.2792C153.915 36.2792 152.442 35.6978 151.396 34.4187C150.349 33.2171 149.846 31.4729 149.846 29.2636C149.846 26.9768 150.388 25.2326 151.396 23.9923C152.442 22.752 153.877 22.1319 155.698 22.1319C157.481 22.1319 158.877 22.7133 159.884 23.9148C160.892 25.1164 161.435 26.8605 161.435 29.1474C161.357 31.4729 160.931 33.2947 159.962 34.4962ZM177.83 27.3644C176.241 26.7055 175.233 26.2016 174.768 25.7753C174.38 25.3877 174.187 24.845 174.187 24.1474C174.187 23.566 174.419 22.9846 175.001 22.597C175.582 22.2094 176.241 22.0156 177.21 22.0156C178.063 22.0156 178.954 22.1706 179.807 22.4032C180.66 22.6357 181.435 22.9846 182.055 23.4497L182.249 23.6047V18.876L182.132 18.8373C181.551 18.6047 180.776 18.3722 179.846 18.1784C178.915 18.0233 178.063 17.9458 177.365 17.9458C174.962 17.9458 172.985 18.5272 171.435 19.8063C169.884 21.0078 169.148 22.6357 169.148 24.535C169.148 25.5427 169.303 26.4342 169.652 27.1706C170.001 27.9071 170.505 28.6047 171.202 29.1861C171.9 29.7288 172.908 30.3489 174.303 30.9303C175.466 31.4342 176.357 31.8218 176.9 32.1319C177.442 32.4419 177.791 32.7908 178.063 33.0621C178.256 33.3722 178.373 33.7598 178.373 34.2636C178.373 35.6978 177.287 36.3954 175.078 36.3954C174.225 36.3954 173.334 36.2404 172.287 35.8916C171.241 35.5427 170.272 35.0388 169.458 34.4574L169.264 34.3024V39.2249L169.38 39.2637C170.117 39.6125 171.008 39.845 172.094 40.1164C173.179 40.3102 174.148 40.4652 175.001 40.4652C177.598 40.4652 179.729 39.8838 181.241 38.6047C182.791 37.3644 183.605 35.7753 183.605 33.721C183.605 32.2869 183.218 31.0078 182.365 30.0388C181.241 29.1086 179.846 28.1396 177.83 27.3644ZM196.9 17.9846C193.373 17.9846 190.543 19.0311 188.567 21.0854C186.59 23.1396 185.582 25.9691 185.582 29.535C185.582 32.8683 186.59 35.5815 188.528 37.5582C190.466 39.4962 193.101 40.504 196.396 40.504C199.846 40.504 202.598 39.4574 204.574 37.3644C206.59 35.2714 207.559 32.4807 207.559 29.0311C207.559 25.6202 206.629 22.9071 204.729 20.9303C202.908 18.9536 200.233 17.9846 196.9 17.9846ZM200.892 34.4962C199.962 35.6978 198.489 36.2792 196.667 36.2792C194.807 36.2792 193.373 35.6978 192.326 34.4187C191.28 33.2171 190.776 31.4729 190.776 29.2636C190.776 26.9768 191.318 25.2326 192.326 23.9923C193.373 22.752 194.807 22.1319 196.629 22.1319C198.373 22.1319 199.807 22.7133 200.815 23.9148C201.822 25.1164 202.365 26.8605 202.365 29.1474C202.365 31.4729 201.861 33.2947 200.892 34.4962ZM234.497 22.597V18.4497H229.419V12.0931L229.264 12.1319L224.458 13.566L224.342 13.6047V18.4497H216.745V15.7365C216.745 14.4962 217.055 13.5272 217.598 12.9071C218.14 12.2869 218.954 11.9768 219.962 11.9768C220.66 11.9768 221.396 12.1319 222.21 12.4807L222.404 12.597V8.21713L222.287 8.17837C221.59 7.94581 220.66 7.79077 219.458 7.79077C217.946 7.79077 216.629 8.13961 215.427 8.721C214.225 9.37992 213.334 10.2714 212.675 11.4729C212.016 12.6357 211.667 13.9536 211.667 15.4652V18.4497H208.14V22.5582H211.667V39.9226H216.745V22.597H224.342V33.6435C224.342 38.1784 226.474 40.4652 230.737 40.4652C231.435 40.4652 232.171 40.3489 232.869 40.2326C233.605 40.0776 234.148 39.8838 234.458 39.7288L234.497 39.69V35.5427L234.303 35.6978C233.993 35.8916 233.722 36.0466 233.256 36.1629C232.869 36.2792 232.52 36.3179 232.249 36.3179C231.241 36.3179 230.543 36.0854 230.039 35.504C229.574 34.9613 229.342 34.0699 229.342 32.752V22.597H234.497Z" fill="#737373"/>
<path d="M0.426758 0H24.1865V23.7597H0.426758V0Z" fill="#6F6F6F"/>
<path d="M26.667 0H50.4267V23.7597H26.667V0Z" fill="#A0A0A0"/>
<path d="M0.426758 26.2402H24.1865V49.9999H0.426758V26.2402Z" fill="#878787"/>
<path d="M26.667 26.2402H50.4267V49.9999H26.667V26.2402Z" fill="#BBBBBB"/>
</svg>
