<svg width="148" height="50" viewBox="0 0 148 50" fill="none" xmlns="http://www.w3.org/2000/svg">
<path d="M0.496094 0H50.4961V50H0.496094V0ZM45.3051 44.809V5.19099H5.68708V44.7845H45.3051V44.809ZM10.1925 12.904V28.0117C10.1925 34.9167 13.9878 39.0059 20.403 39.0059C27.0142 39.0059 30.8095 34.9167 30.8095 28.0117V12.904H25.6185V28.0117C25.6185 31.905 23.929 34.1087 20.5255 34.1087C16.9261 34.1087 15.3345 31.807 15.3345 28.0117V12.904H10.1925ZM37.4941 15.9892C39.3061 15.9892 40.7018 14.6915 40.7018 12.8795C40.7018 10.9696 39.404 9.67189 37.4941 9.67189C35.6822 9.67189 34.2865 10.9696 34.2865 12.8795C34.311 14.6915 35.7067 15.9892 37.4941 15.9892ZM34.8986 18.3888V38.712H40.0896V18.3888H34.8986ZM65.8977 30.4114C71.5049 30.4114 75.2023 27.1058 75.2023 21.621C75.2023 16.332 71.6028 12.9285 65.8977 12.9285H56.1033V38.8345H61.2943V30.5338H65.8977V30.4114ZM65.31 26.2977H61.2209V17.0911H65.31C68.3217 17.0911 69.9133 18.7806 69.9133 21.5965C69.9133 24.6082 68.2973 26.2977 65.31 26.2977ZM76.9163 28.5994C76.9163 34.6964 80.8095 39.0059 86.3188 39.0059C89.6244 39.0059 91.7302 37.8061 92.93 35.8962V38.7855H98.121V18.3888H92.93V21.5965C91.6322 19.4907 89.5264 18.193 86.3188 18.193C80.7116 18.193 76.9163 22.6004 76.9163 28.5994ZM92.9055 28.5994C92.9055 32.1009 90.7018 34.4025 87.4941 34.4025C83.9927 34.4025 82.2052 31.905 82.2052 28.5994C82.2052 25 84.213 22.6983 87.4941 22.6983C90.7752 22.6983 92.9055 25.0979 92.9055 28.5994ZM111.098 34.3046C109.091 34.3046 108.601 33.3986 108.601 31.6112V22.7963H113.106V18.3888H108.601V12.7816H103.41V18.3888H101.01V22.7963H103.41V31.6112C103.41 36.4104 105.516 38.712 110.511 38.712H113.204V34.3046H111.098ZM121.211 21.3026V11.7042H116.02V38.81H121.211V28.0117C121.211 24.5103 123.023 22.4045 126.108 22.4045C129.12 22.4045 130.712 24.4123 130.712 27.4976V38.712H135.903V27.0078C135.903 21.7189 132.107 18.2174 127.308 18.2174C124.321 18.1929 122.411 19.2948 121.211 21.3026ZM135.511 11.6063V12.4143H137.2V17.6053H138.204V12.4143H139.796V11.6063H135.511ZM146.309 11.6063L144.203 16.4055L142.195 11.6063H140.996V17.6053H141.902V13.002L143.909 17.6053H144.619L146.529 13.002V17.6053H147.435V11.6063H146.309Z" fill="#696969"/>
</svg>
